ISO-10303-21;
HEADER;
FILE_DESCRIPTION((''),'2;1');
FILE_NAME('C-640389-2','2012-10-18T',('workeradm'),('Tyco Electronics Ltd.'),
'PRO/ENGINEER BY PARAMETRIC TECHNOLOGY CORPORATION, 2010430',
'PRO/ENGINEER BY PARAMETRIC TECHNOLOGY CORPORATION, 2010430','');
FILE_SCHEMA(('AUTOMOTIVE_DESIGN { 1 0 10303 214 1 1 1 1 }'));
ENDSEC;
DATA;
#1=DRAUGHTING_PRE_DEFINED_COLOUR('black');
#2=COLOUR_RGB('',0.E0,0.E0,3.6E-1);
#3=COLOUR_RGB('',0.E0,0.E0,4.8E-1);
#4=DRAUGHTING_PRE_DEFINED_COLOUR('blue');
#5=COLOUR_RGB('',0.E0,3.6E-1,9.E-2);
#6=COLOUR_RGB('',0.E0,3.6E-1,2.7E-1);
#7=COLOUR_RGB('',0.E0,5.6E-1,6.4E-1);
#8=COLOUR_RGB('',0.E0,5.8E-1,8.E-1);
#9=COLOUR_RGB('',0.E0,7.1E-1,6.6E-1);
#10=COLOUR_RGB('',0.E0,7.13E-1,0.E0);
#11=COLOUR_RGB('',0.E0,9.5E-1,8.4E-1);
#12=DRAUGHTING_PRE_DEFINED_COLOUR('green');
#13=DRAUGHTING_PRE_DEFINED_COLOUR('cyan');
#14=COLOUR_RGB('',4.E-2,0.E0,1.6E-1);
#15=COLOUR_RGB('',9.E-2,0.E0,1.2E-1);
#16=COLOUR_RGB('',1.E-1,0.E0,2.5E-1);
#17=COLOUR_RGB('',1.6E-1,3.2E-2,0.E0);
#18=COLOUR_RGB('',1.6E-1,4.6E-1,6.5E-1);
#19=COLOUR_RGB('',1.6E-1,1.E0,1.6E-1);
#20=COLOUR_RGB('',2.E-1,3.2E-2,0.E0);
#21=COLOUR_RGB('',3.1E-1,3.1E-1,5.6E-1);
#22=COLOUR_RGB('',3.2E-1,1.5E-1,0.E0);
#23=COLOUR_RGB('',4.E-1,4.E-1,4.E-1);
#24=COLOUR_RGB('',4.2E-1,4.2E-1,1.E0);
#25=COLOUR_RGB('',4.4E-1,8.5E-1,1.E0);
#26=COLOUR_RGB('',4.9E-1,4.9E-1,0.E0);
#27=COLOUR_RGB('',4.9E-1,1.E0,0.E0);
#28=COLOUR_RGB('',5.E-1,0.E0,0.E0);
#29=COLOUR_RGB('',5.E-1,0.E0,2.3E-1);
#30=COLOUR_RGB('',5.E-1,5.E-1,5.E-1);
#31=COLOUR_RGB('',5.3E-1,0.E0,0.E0);
#32=COLOUR_RGB('',5.4E-1,0.E0,4.4E-1);
#33=COLOUR_RGB('',5.5E-1,3.E-1,0.E0);
#34=COLOUR_RGB('',5.6E-1,1.E-1,5.E-2);
#35=COLOUR_RGB('',5.8E-1,2.2E-1,1.E-2);
#36=COLOUR_RGB('',6.E-1,6.E-1,6.E-1);
#37=COLOUR_RGB('',6.2E-1,0.E0,5.5E-1);
#38=COLOUR_RGB('',6.4E-1,0.E0,2.5E-1);
#39=COLOUR_RGB('',6.4E-1,1.E-2,0.E0);
#40=COLOUR_RGB('',6.8E-1,7.5E-1,1.E0);
#41=COLOUR_RGB('',7.1E-1,3.1E-1,0.E0);
#42=COLOUR_RGB('',7.2E-1,7.2E-1,7.2E-1);
#43=COLOUR_RGB('',7.4E-1,1.E0,2.6E-1);
#44=COLOUR_RGB('',7.5E-1,3.E-2,0.E0);
#45=COLOUR_RGB('',7.6E-1,0.E0,4.7E-1);
#46=COLOUR_RGB('',8.1E-1,4.E-2,0.E0);
#47=COLOUR_RGB('',8.1E-1,6.1E-1,0.E0);
#48=COLOUR_RGB('',8.2E-1,4.E-2,6.6E-1);
#49=COLOUR_RGB('',8.5E-1,8.5E-1,8.5E-1);
#50=COLOUR_RGB('',8.784E-1,9.49E-1,1.E0);
#51=COLOUR_RGB('',9.E-1,1.E0,0.E0);
#52=COLOUR_RGB('',9.37E-1,7.85E-1,0.E0);
#53=COLOUR_RGB('',9.5E-1,2.2E-1,8.1E-1);
#54=COLOUR_RGB('',9.6E-1,3.7E-1,3.E-1);
#55=COLOUR_RGB('',9.6E-1,7.1E-1,3.75E-1);
#56=DRAUGHTING_PRE_DEFINED_COLOUR('red');
#57=COLOUR_RGB('',1.E0,0.E0,6.1E-1);
#58=COLOUR_RGB('',1.E0,4.E-2,0.E0);
#59=COLOUR_RGB('',1.E0,2.3E-1,0.E0);
#60=COLOUR_RGB('',1.E0,3.5E-1,5.2E-1);
#61=COLOUR_RGB('',1.E0,3.6E-1,0.E0);
#62=COLOUR_RGB('',1.E0,4.9E-1,3.7E-1);
#63=COLOUR_RGB('',1.E0,5.E-1,0.E0);
#64=COLOUR_RGB('',1.E0,5.6E-1,7.8E-1);
#65=COLOUR_RGB('',1.E0,6.4E-1,4.9E-1);
#66=COLOUR_RGB('',1.E0,6.7E-1,0.E0);
#67=COLOUR_RGB('',1.E0,7.6E-1,6.5E-1);
#68=COLOUR_RGB('',1.E0,8.6E-1,4.E-2);
#69=COLOUR_RGB('',1.E0,9.8E-1,7.2E-1);
#70=DRAUGHTING_PRE_DEFINED_COLOUR('yellow');
#71=DRAUGHTING_PRE_DEFINED_COLOUR('white');
#72=DIRECTION('',(0.E0,0.E0,1.E0));
#73=VECTOR('',#72,2.54E0);
#74=CARTESIAN_POINT('',(3.9624E0,2.54E-1,-2.54E0));
#75=LINE('',#74,#73);
#76=DIRECTION('',(0.E0,1.E0,0.E0));
#77=VECTOR('',#76,1.0795E0);
#78=CARTESIAN_POINT('',(3.9624E0,2.54E-1,0.E0));
#79=LINE('',#78,#77);
#80=DIRECTION('',(0.E0,0.E0,-1.E0));
#81=VECTOR('',#80,5.08E-1);
#82=CARTESIAN_POINT('',(3.9624E0,1.3335E0,0.E0));
#83=LINE('',#82,#81);
#84=CARTESIAN_POINT('',(3.9624E0,2.0955E0,-5.08E-1));
#85=DIRECTION('',(1.E0,0.E0,0.E0));
#86=DIRECTION('',(0.E0,-1.E0,0.E0));
#87=AXIS2_PLACEMENT_3D('',#84,#85,#86);
#89=DIRECTION('',(0.E0,0.E0,1.E0));
#90=VECTOR('',#89,5.08E-1);
#91=CARTESIAN_POINT('',(3.9624E0,2.8575E0,-5.08E-1));
#92=LINE('',#91,#90);
#93=DIRECTION('',(0.E0,-1.E0,0.E0));
#94=VECTOR('',#93,9.525E-1);
#95=CARTESIAN_POINT('',(3.9624E0,3.81E0,0.E0));
#96=LINE('',#95,#94);
#97=DIRECTION('',(0.E0,0.E0,-1.E0));
#98=VECTOR('',#97,3.175E0);
#99=CARTESIAN_POINT('',(3.9624E0,3.81E0,0.E0));
#100=LINE('',#99,#98);
#101=DIRECTION('',(0.E0,-1.E0,0.E0));
#102=VECTOR('',#101,1.792382579065E0);
#103=CARTESIAN_POINT('',(3.9624E0,3.81E0,-3.175E0));
#104=LINE('',#103,#102);
#105=DIRECTION('',(0.E0,-5.E-1,8.660254037844E-1));
#106=VECTOR('',#105,7.332348418708E-1);
#107=CARTESIAN_POINT('',(3.9624E0,2.017617420935E0,-3.175E0));
#108=LINE('',#107,#106);
#109=DIRECTION('',(0.E0,-1.E0,0.E0));
#110=VECTOR('',#109,1.397E0);
#111=CARTESIAN_POINT('',(3.9624E0,1.651E0,-2.54E0));
#112=LINE('',#111,#110);
#113=DIRECTION('',(0.E0,0.E0,1.E0));
#114=VECTOR('',#113,2.54E0);
#115=CARTESIAN_POINT('',(3.9624E0,-1.778E0,-2.54E0));
#116=LINE('',#115,#114);
#117=DIRECTION('',(0.E0,-1.E0,0.E0));
#118=VECTOR('',#117,8.89E-1);
#119=CARTESIAN_POINT('',(3.9624E0,-1.778E0,-2.54E0));
#120=LINE('',#119,#118);
#121=DIRECTION('',(0.E0,-5.E-1,-8.660254037844E-1));
#122=VECTOR('',#121,7.332348418708E-1);
#123=CARTESIAN_POINT('',(3.9624E0,-2.667E0,-2.54E0));
#124=LINE('',#123,#122);
#125=DIRECTION('',(0.E0,-1.E0,0.E0));
#126=VECTOR('',#125,7.763825790646E-1);
#127=CARTESIAN_POINT('',(3.9624E0,-3.033617420935E0,-3.175E0));
#128=LINE('',#127,#126);
#129=DIRECTION('',(0.E0,0.E0,1.E0));
#130=VECTOR('',#129,3.175E0);
#131=CARTESIAN_POINT('',(3.9624E0,-3.81E0,-3.175E0));
#132=LINE('',#131,#130);
#133=DIRECTION('',(0.E0,1.E0,0.E0));
#134=VECTOR('',#133,2.032E0);
#135=CARTESIAN_POINT('',(3.9624E0,-3.81E0,0.E0));
#136=LINE('',#135,#134);
#137=DIRECTION('',(-1.E0,0.E0,0.E0));
#138=VECTOR('',#137,5.08E-1);
#139=CARTESIAN_POINT('',(3.9624E0,2.54E-1,-2.54E0));
#140=LINE('',#139,#138);
#141=DIRECTION('',(-1.E0,0.E0,0.E0));
#142=VECTOR('',#141,7.9248E0);
#143=CARTESIAN_POINT('',(3.9624E0,1.651E0,-2.54E0));
#144=LINE('',#143,#142);
#145=DIRECTION('',(1.E0,0.E0,0.E0));
#146=VECTOR('',#145,5.08E-1);
#147=CARTESIAN_POINT('',(-3.9624E0,2.54E-1,-2.54E0));
#148=LINE('',#147,#146);
#149=DIRECTION('',(0.E0,1.E0,0.E0));
#150=VECTOR('',#149,2.032E0);
#151=CARTESIAN_POINT('',(-3.4544E0,-1.778E0,-2.54E0));
#152=LINE('',#151,#150);
#153=DIRECTION('',(1.E0,0.E0,0.E0));
#154=VECTOR('',#153,5.08E-1);
#155=CARTESIAN_POINT('',(-3.9624E0,-1.778E0,-2.54E0));
#156=LINE('',#155,#154);
#157=DIRECTION('',(-1.E0,0.E0,0.E0));
#158=VECTOR('',#157,5.08E-1);
#159=CARTESIAN_POINT('',(3.9624E0,-1.778E0,-2.54E0));
#160=LINE('',#159,#158);
#161=DIRECTION('',(0.E0,-1.E0,0.E0));
#162=VECTOR('',#161,2.032E0);
#163=CARTESIAN_POINT('',(3.4544E0,2.54E-1,-2.54E0));
#164=LINE('',#163,#162);
#165=DIRECTION('',(0.E0,1.E0,0.E0));
#166=VECTOR('',#165,1.143E0);
#167=CARTESIAN_POINT('',(1.4097E0,-1.3462E0,-2.54E0));
#168=LINE('',#167,#166);
#169=DIRECTION('',(1.E0,0.E0,0.E0));
#170=VECTOR('',#169,1.143E0);
#171=CARTESIAN_POINT('',(1.4097E0,-2.032E-1,-2.54E0));
#172=LINE('',#171,#170);
#173=DIRECTION('',(0.E0,1.E0,0.E0));
#174=VECTOR('',#173,1.143E0);
#175=CARTESIAN_POINT('',(2.5527E0,-1.3462E0,-2.54E0));
#176=LINE('',#175,#174);
#177=DIRECTION('',(1.E0,0.E0,0.E0));
#178=VECTOR('',#177,1.143E0);
#179=CARTESIAN_POINT('',(1.4097E0,-1.3462E0,-2.54E0));
#180=LINE('',#179,#178);
#181=DIRECTION('',(0.E0,1.E0,0.E0));
#182=VECTOR('',#181,1.143E0);
#183=CARTESIAN_POINT('',(-2.5527E0,-1.3462E0,-2.54E0));
#184=LINE('',#183,#182);
#185=DIRECTION('',(1.E0,0.E0,0.E0));
#186=VECTOR('',#185,1.143E0);
#187=CARTESIAN_POINT('',(-2.5527E0,-2.032E-1,-2.54E0));
#188=LINE('',#187,#186);
#189=DIRECTION('',(0.E0,1.E0,0.E0));
#190=VECTOR('',#189,1.143E0);
#191=CARTESIAN_POINT('',(-1.4097E0,-1.3462E0,-2.54E0));
#192=LINE('',#191,#190);
#193=DIRECTION('',(1.E0,0.E0,0.E0));
#194=VECTOR('',#193,1.143E0);
#195=CARTESIAN_POINT('',(-2.5527E0,-1.3462E0,-2.54E0));
#196=LINE('',#195,#194);
#197=DIRECTION('',(-1.E0,0.E0,0.E0));
#198=VECTOR('',#197,7.9248E0);
#199=CARTESIAN_POINT('',(3.9624E0,2.017617420935E0,-3.175E0));
#200=LINE('',#199,#198);
#201=DIRECTION('',(-1.E0,0.E0,0.E0));
#202=VECTOR('',#201,7.9248E0);
#203=CARTESIAN_POINT('',(3.9624E0,3.81E0,-3.175E0));
#204=LINE('',#203,#202);
#205=DIRECTION('',(-1.E0,0.E0,0.E0));
#206=VECTOR('',#205,1.9812E0);
#207=CARTESIAN_POINT('',(3.9624E0,3.81E0,0.E0));
#208=LINE('',#207,#206);
#209=DIRECTION('',(0.E0,0.E0,-1.E0));
#210=VECTOR('',#209,7.112E0);
#211=CARTESIAN_POINT('',(1.9812E0,3.81E0,7.112E0));
#212=LINE('',#211,#210);
#213=DIRECTION('',(-1.E0,0.E0,0.E0));
#214=VECTOR('',#213,3.9624E0);
#215=CARTESIAN_POINT('',(1.9812E0,3.81E0,7.112E0));
#216=LINE('',#215,#214);
#217=DIRECTION('',(0.E0,0.E0,-1.E0));
#218=VECTOR('',#217,7.112E0);
#219=CARTESIAN_POINT('',(-1.9812E0,3.81E0,7.112E0));
#220=LINE('',#219,#218);
#221=DIRECTION('',(-1.E0,0.E0,0.E0));
#222=VECTOR('',#221,1.9812E0);
#223=CARTESIAN_POINT('',(-1.9812E0,3.81E0,0.E0));
#224=LINE('',#223,#222);
#225=DIRECTION('',(0.E0,-1.E0,0.E0));
#226=VECTOR('',#225,9.525E-1);
#227=CARTESIAN_POINT('',(1.9812E0,3.81E0,0.E0));
#228=LINE('',#227,#226);
#229=DIRECTION('',(0.E0,1.E0,0.E0));
#230=VECTOR('',#229,9.525E-1);
#231=CARTESIAN_POINT('',(-1.9812E0,2.8575E0,0.E0));
#232=LINE('',#231,#230);
#233=DIRECTION('',(-1.E0,0.E0,0.E0));
#234=VECTOR('',#233,1.9812E0);
#235=CARTESIAN_POINT('',(3.9624E0,2.8575E0,0.E0));
#236=LINE('',#235,#234);
#237=DIRECTION('',(-1.E0,0.E0,0.E0));
#238=VECTOR('',#237,7.9248E0);
#239=CARTESIAN_POINT('',(3.9624E0,2.8575E0,-5.08E-1));
#240=LINE('',#239,#238);
#241=DIRECTION('',(-1.E0,0.E0,0.E0));
#242=VECTOR('',#241,1.9812E0);
#243=CARTESIAN_POINT('',(-1.9812E0,2.8575E0,0.E0));
#244=LINE('',#243,#242);
#245=DIRECTION('',(0.E0,0.E0,-1.E0));
#246=VECTOR('',#245,2.0066E0);
#247=CARTESIAN_POINT('',(-1.9812E0,2.8575E0,2.0066E0));
#248=LINE('',#247,#246);
#249=DIRECTION('',(0.E0,0.E0,-1.E0));
#250=VECTOR('',#249,2.0066E0);
#251=CARTESIAN_POINT('',(1.9812E0,2.8575E0,2.0066E0));
#252=LINE('',#251,#250);
#253=DIRECTION('',(-1.E0,0.E0,0.E0));
#254=VECTOR('',#253,7.9248E0);
#255=CARTESIAN_POINT('',(3.9624E0,1.3335E0,-5.08E-1));
#256=LINE('',#255,#254);
#257=DIRECTION('',(-1.E0,0.E0,0.E0));
#258=VECTOR('',#257,7.9248E0);
#259=CARTESIAN_POINT('',(3.9624E0,1.3335E0,0.E0));
#260=LINE('',#259,#258);
#261=DIRECTION('',(-1.E0,0.E0,0.E0));
#262=VECTOR('',#261,5.08E-1);
#263=CARTESIAN_POINT('',(3.9624E0,2.54E-1,0.E0));
#264=LINE('',#263,#262);
#265=DIRECTION('',(0.E0,-1.E0,0.E0));
#266=VECTOR('',#265,2.032E0);
#267=CARTESIAN_POINT('',(3.4544E0,2.54E-1,0.E0));
#268=LINE('',#267,#266);
#269=DIRECTION('',(-1.E0,0.E0,0.E0));
#270=VECTOR('',#269,5.08E-1);
#271=CARTESIAN_POINT('',(3.9624E0,-1.778E0,0.E0));
#272=LINE('',#271,#270);
#273=DIRECTION('',(-1.E0,0.E0,0.E0));
#274=VECTOR('',#273,7.9248E0);
#275=CARTESIAN_POINT('',(3.9624E0,-3.81E0,0.E0));
#276=LINE('',#275,#274);
#277=DIRECTION('',(1.E0,0.E0,0.E0));
#278=VECTOR('',#277,5.08E-1);
#279=CARTESIAN_POINT('',(-3.9624E0,-1.778E0,0.E0));
#280=LINE('',#279,#278);
#281=DIRECTION('',(0.E0,1.E0,0.E0));
#282=VECTOR('',#281,2.032E0);
#283=CARTESIAN_POINT('',(-3.4544E0,-1.778E0,0.E0));
#284=LINE('',#283,#282);
#285=DIRECTION('',(1.E0,0.E0,0.E0));
#286=VECTOR('',#285,5.08E-1);
#287=CARTESIAN_POINT('',(-3.9624E0,2.54E-1,0.E0));
#288=LINE('',#287,#286);
#289=DIRECTION('',(0.E0,1.E0,0.E0));
#290=VECTOR('',#289,1.143E0);
#291=CARTESIAN_POINT('',(1.4097E0,-1.3462E0,0.E0));
#292=LINE('',#291,#290);
#293=DIRECTION('',(1.E0,0.E0,0.E0));
#294=VECTOR('',#293,1.143E0);
#295=CARTESIAN_POINT('',(1.4097E0,-1.3462E0,0.E0));
#296=LINE('',#295,#294);
#297=DIRECTION('',(0.E0,1.E0,0.E0));
#298=VECTOR('',#297,1.143E0);
#299=CARTESIAN_POINT('',(2.5527E0,-1.3462E0,0.E0));
#300=LINE('',#299,#298);
#301=DIRECTION('',(1.E0,0.E0,0.E0));
#302=VECTOR('',#301,1.143E0);
#303=CARTESIAN_POINT('',(1.4097E0,-2.032E-1,0.E0));
#304=LINE('',#303,#302);
#305=DIRECTION('',(0.E0,1.E0,0.E0));
#306=VECTOR('',#305,1.143E0);
#307=CARTESIAN_POINT('',(-2.5527E0,-1.3462E0,0.E0));
#308=LINE('',#307,#306);
#309=DIRECTION('',(1.E0,0.E0,0.E0));
#310=VECTOR('',#309,1.143E0);
#311=CARTESIAN_POINT('',(-2.5527E0,-1.3462E0,0.E0));
#312=LINE('',#311,#310);
#313=DIRECTION('',(0.E0,1.E0,0.E0));
#314=VECTOR('',#313,1.143E0);
#315=CARTESIAN_POINT('',(-1.4097E0,-1.3462E0,0.E0));
#316=LINE('',#315,#314);
#317=DIRECTION('',(1.E0,0.E0,0.E0));
#318=VECTOR('',#317,1.143E0);
#319=CARTESIAN_POINT('',(-2.5527E0,-2.032E-1,0.E0));
#320=LINE('',#319,#318);
#321=DIRECTION('',(0.E0,0.E0,-1.E0));
#322=VECTOR('',#321,2.54E0);
#323=CARTESIAN_POINT('',(3.4544E0,2.54E-1,0.E0));
#324=LINE('',#323,#322);
#325=DIRECTION('',(0.E0,0.E0,-1.E0));
#326=VECTOR('',#325,2.54E0);
#327=CARTESIAN_POINT('',(3.4544E0,-1.778E0,0.E0));
#328=LINE('',#327,#326);
#329=DIRECTION('',(-1.E0,0.E0,0.E0));
#330=VECTOR('',#329,7.9248E0);
#331=CARTESIAN_POINT('',(3.9624E0,-3.81E0,-3.175E0));
#332=LINE('',#331,#330);
#333=DIRECTION('',(-1.E0,0.E0,0.E0));
#334=VECTOR('',#333,7.9248E0);
#335=CARTESIAN_POINT('',(3.9624E0,-3.033617420935E0,-3.175E0));
#336=LINE('',#335,#334);
#337=DIRECTION('',(-1.E0,0.E0,0.E0));
#338=VECTOR('',#337,7.9248E0);
#339=CARTESIAN_POINT('',(3.9624E0,-2.667E0,-2.54E0));
#340=LINE('',#339,#338);
#341=DIRECTION('',(0.E0,0.E0,1.E0));
#342=VECTOR('',#341,2.54E0);
#343=CARTESIAN_POINT('',(-3.9624E0,-1.778E0,-2.54E0));
#344=LINE('',#343,#342);
#345=DIRECTION('',(0.E0,1.E0,0.E0));
#346=VECTOR('',#345,2.032E0);
#347=CARTESIAN_POINT('',(-3.9624E0,-3.81E0,0.E0));
#348=LINE('',#347,#346);
#349=DIRECTION('',(0.E0,0.E0,1.E0));
#350=VECTOR('',#349,3.175E0);
#351=CARTESIAN_POINT('',(-3.9624E0,-3.81E0,-3.175E0));
#352=LINE('',#351,#350);
#353=DIRECTION('',(0.E0,-1.E0,0.E0));
#354=VECTOR('',#353,7.763825790646E-1);
#355=CARTESIAN_POINT('',(-3.9624E0,-3.033617420935E0,-3.175E0));
#356=LINE('',#355,#354);
#357=DIRECTION('',(0.E0,-5.E-1,-8.660254037844E-1));
#358=VECTOR('',#357,7.332348418708E-1);
#359=CARTESIAN_POINT('',(-3.9624E0,-2.667E0,-2.54E0));
#360=LINE('',#359,#358);
#361=DIRECTION('',(0.E0,-1.E0,0.E0));
#362=VECTOR('',#361,8.89E-1);
#363=CARTESIAN_POINT('',(-3.9624E0,-1.778E0,-2.54E0));
#364=LINE('',#363,#362);
#365=DIRECTION('',(0.E0,0.E0,1.E0));
#366=VECTOR('',#365,2.54E0);
#367=CARTESIAN_POINT('',(-3.9624E0,2.54E-1,-2.54E0));
#368=LINE('',#367,#366);
#369=DIRECTION('',(0.E0,-1.E0,0.E0));
#370=VECTOR('',#369,1.397E0);
#371=CARTESIAN_POINT('',(-3.9624E0,1.651E0,-2.54E0));
#372=LINE('',#371,#370);
#373=DIRECTION('',(0.E0,-5.E-1,8.660254037844E-1));
#374=VECTOR('',#373,7.332348418708E-1);
#375=CARTESIAN_POINT('',(-3.9624E0,2.017617420935E0,-3.175E0));
#376=LINE('',#375,#374);
#377=DIRECTION('',(0.E0,-1.E0,0.E0));
#378=VECTOR('',#377,1.792382579065E0);
#379=CARTESIAN_POINT('',(-3.9624E0,3.81E0,-3.175E0));
#380=LINE('',#379,#378);
#381=DIRECTION('',(0.E0,0.E0,-1.E0));
#382=VECTOR('',#381,3.175E0);
#383=CARTESIAN_POINT('',(-3.9624E0,3.81E0,0.E0));
#384=LINE('',#383,#382);
#385=DIRECTION('',(0.E0,-1.E0,0.E0));
#386=VECTOR('',#385,9.525E-1);
#387=CARTESIAN_POINT('',(-3.9624E0,3.81E0,0.E0));
#388=LINE('',#387,#386);
#389=DIRECTION('',(0.E0,0.E0,1.E0));
#390=VECTOR('',#389,5.08E-1);
#391=CARTESIAN_POINT('',(-3.9624E0,2.8575E0,-5.08E-1));
#392=LINE('',#391,#390);
#393=CARTESIAN_POINT('',(-3.9624E0,2.0955E0,-5.08E-1));
#394=DIRECTION('',(1.E0,0.E0,0.E0));
#395=DIRECTION('',(0.E0,-1.E0,0.E0));
#396=AXIS2_PLACEMENT_3D('',#393,#394,#395);
#398=DIRECTION('',(0.E0,0.E0,-1.E0));
#399=VECTOR('',#398,5.08E-1);
#400=CARTESIAN_POINT('',(-3.9624E0,1.3335E0,0.E0));
#401=LINE('',#400,#399);
#402=DIRECTION('',(0.E0,1.E0,0.E0));
#403=VECTOR('',#402,1.0795E0);
#404=CARTESIAN_POINT('',(-3.9624E0,2.54E-1,0.E0));
#405=LINE('',#404,#403);
#406=DIRECTION('',(0.E0,0.E0,-1.E0));
#407=VECTOR('',#406,2.54E0);
#408=CARTESIAN_POINT('',(-3.4544E0,-1.778E0,0.E0));
#409=LINE('',#408,#407);
#410=DIRECTION('',(0.E0,0.E0,-1.E0));
#411=VECTOR('',#410,2.54E0);
#412=CARTESIAN_POINT('',(-3.4544E0,2.54E-1,0.E0));
#413=LINE('',#412,#411);
#414=DIRECTION('',(0.E0,0.E0,-1.E0));
#415=VECTOR('',#414,3.6703E0);
#416=CARTESIAN_POINT('',(1.4097E0,-1.3462E0,-2.54E0));
#417=LINE('',#416,#415);
#418=CARTESIAN_POINT('',(1.4097E0,-3.1242E0,-6.2103E0));
#419=DIRECTION('',(-1.E0,0.E0,0.E0));
#420=DIRECTION('',(0.E0,1.E0,0.E0));
#421=AXIS2_PLACEMENT_3D('',#418,#419,#420);
#423=DIRECTION('',(0.E0,-1.E0,0.E0));
#424=VECTOR('',#423,3.8608E0);
#425=CARTESIAN_POINT('',(1.4097E0,-3.1242E0,-7.9883E0));
#426=LINE('',#425,#424);
#427=DIRECTION('',(0.E0,0.E0,-1.E0));
#428=VECTOR('',#427,1.143E0);
#429=CARTESIAN_POINT('',(1.4097E0,-6.985E0,-7.9883E0));
#430=LINE('',#429,#428);
#431=DIRECTION('',(0.E0,1.E0,0.E0));
#432=VECTOR('',#431,3.8608E0);
#433=CARTESIAN_POINT('',(1.4097E0,-6.985E0,-9.1313E0));
#434=LINE('',#433,#432);
#435=CARTESIAN_POINT('',(1.4097E0,-3.1242E0,-6.2103E0));
#436=DIRECTION('',(1.E0,0.E0,0.E0));
#437=DIRECTION('',(0.E0,0.E0,-1.E0));
#438=AXIS2_PLACEMENT_3D('',#435,#436,#437);
#440=DIRECTION('',(0.E0,0.E0,1.E0));
#441=VECTOR('',#440,3.6703E0);
#442=CARTESIAN_POINT('',(1.4097E0,-2.032E-1,-6.2103E0));
#443=LINE('',#442,#441);
#444=DIRECTION('',(0.E0,0.E0,1.E0));
#445=VECTOR('',#444,1.016E1);
#446=CARTESIAN_POINT('',(1.4097E0,-2.032E-1,0.E0));
#447=LINE('',#446,#445);
#448=DIRECTION('',(0.E0,-1.E0,0.E0));
#449=VECTOR('',#448,1.143E0);
#450=CARTESIAN_POINT('',(1.4097E0,-2.032E-1,1.016E1));
#451=LINE('',#450,#449);
#452=DIRECTION('',(0.E0,0.E0,-1.E0));
#453=VECTOR('',#452,1.016E1);
#454=CARTESIAN_POINT('',(1.4097E0,-1.3462E0,1.016E1));
#455=LINE('',#454,#453);
#456=DIRECTION('',(0.E0,0.E0,1.E0));
#457=VECTOR('',#456,3.6703E0);
#458=CARTESIAN_POINT('',(2.5527E0,-2.032E-1,-6.2103E0));
#459=LINE('',#458,#457);
#460=CARTESIAN_POINT('',(2.5527E0,-3.1242E0,-6.2103E0));
#461=DIRECTION('',(1.E0,0.E0,0.E0));
#462=DIRECTION('',(0.E0,0.E0,-1.E0));
#463=AXIS2_PLACEMENT_3D('',#460,#461,#462);
#465=DIRECTION('',(0.E0,1.E0,0.E0));
#466=VECTOR('',#465,3.8608E0);
#467=CARTESIAN_POINT('',(2.5527E0,-6.985E0,-9.1313E0));
#468=LINE('',#467,#466);
#469=DIRECTION('',(0.E0,0.E0,-1.E0));
#470=VECTOR('',#469,1.143E0);
#471=CARTESIAN_POINT('',(2.5527E0,-6.985E0,-7.9883E0));
#472=LINE('',#471,#470);
#473=DIRECTION('',(0.E0,-1.E0,0.E0));
#474=VECTOR('',#473,3.8608E0);
#475=CARTESIAN_POINT('',(2.5527E0,-3.1242E0,-7.9883E0));
#476=LINE('',#475,#474);
#477=CARTESIAN_POINT('',(2.5527E0,-3.1242E0,-6.2103E0));
#478=DIRECTION('',(-1.E0,0.E0,0.E0));
#479=DIRECTION('',(0.E0,1.E0,0.E0));
#480=AXIS2_PLACEMENT_3D('',#477,#478,#479);
#482=DIRECTION('',(0.E0,0.E0,-1.E0));
#483=VECTOR('',#482,3.6703E0);
#484=CARTESIAN_POINT('',(2.5527E0,-1.3462E0,-2.54E0));
#485=LINE('',#484,#483);
#486=DIRECTION('',(0.E0,0.E0,-1.E0));
#487=VECTOR('',#486,1.016E1);
#488=CARTESIAN_POINT('',(2.5527E0,-1.3462E0,1.016E1));
#489=LINE('',#488,#487);
#490=DIRECTION('',(0.E0,-1.E0,0.E0));
#491=VECTOR('',#490,1.143E0);
#492=CARTESIAN_POINT('',(2.5527E0,-2.032E-1,1.016E1));
#493=LINE('',#492,#491);
#494=DIRECTION('',(0.E0,0.E0,1.E0));
#495=VECTOR('',#494,1.016E1);
#496=CARTESIAN_POINT('',(2.5527E0,-2.032E-1,0.E0));
#497=LINE('',#496,#495);
#498=DIRECTION('',(1.E0,0.E0,0.E0));
#499=VECTOR('',#498,1.143E0);
#500=CARTESIAN_POINT('',(1.4097E0,-2.032E-1,-6.2103E0));
#501=LINE('',#500,#499);
#502=DIRECTION('',(1.E0,0.E0,0.E0));
#503=VECTOR('',#502,1.143E0);
#504=CARTESIAN_POINT('',(1.4097E0,-3.1242E0,-9.1313E0));
#505=LINE('',#504,#503);
#506=DIRECTION('',(1.E0,0.E0,0.E0));
#507=VECTOR('',#506,1.143E0);
#508=CARTESIAN_POINT('',(1.4097E0,-6.985E0,-9.1313E0));
#509=LINE('',#508,#507);
#510=DIRECTION('',(1.E0,0.E0,0.E0));
#511=VECTOR('',#510,1.143E0);
#512=CARTESIAN_POINT('',(1.4097E0,-6.985E0,-7.9883E0));
#513=LINE('',#512,#511);
#514=DIRECTION('',(1.E0,0.E0,0.E0));
#515=VECTOR('',#514,1.143E0);
#516=CARTESIAN_POINT('',(1.4097E0,-3.1242E0,-7.9883E0));
#517=LINE('',#516,#515);
#518=DIRECTION('',(1.E0,0.E0,0.E0));
#519=VECTOR('',#518,1.143E0);
#520=CARTESIAN_POINT('',(1.4097E0,-1.3462E0,-6.2103E0));
#521=LINE('',#520,#519);
#522=DIRECTION('',(1.E0,0.E0,0.E0));
#523=VECTOR('',#522,1.143E0);
#524=CARTESIAN_POINT('',(1.4097E0,-1.3462E0,1.016E1));
#525=LINE('',#524,#523);
#526=DIRECTION('',(1.E0,0.E0,0.E0));
#527=VECTOR('',#526,1.143E0);
#528=CARTESIAN_POINT('',(1.4097E0,-2.032E-1,1.016E1));
#529=LINE('',#528,#527);
#530=DIRECTION('',(0.E0,0.E0,-1.E0));
#531=VECTOR('',#530,3.6703E0);
#532=CARTESIAN_POINT('',(-2.5527E0,-1.3462E0,-2.54E0));
#533=LINE('',#532,#531);
#534=CARTESIAN_POINT('',(-2.5527E0,-3.1242E0,-6.2103E0));
#535=DIRECTION('',(-1.E0,0.E0,0.E0));
#536=DIRECTION('',(0.E0,1.E0,0.E0));
#537=AXIS2_PLACEMENT_3D('',#534,#535,#536);
#539=DIRECTION('',(0.E0,-1.E0,0.E0));
#540=VECTOR('',#539,3.8608E0);
#541=CARTESIAN_POINT('',(-2.5527E0,-3.1242E0,-7.9883E0));
#542=LINE('',#541,#540);
#543=DIRECTION('',(0.E0,0.E0,-1.E0));
#544=VECTOR('',#543,1.143E0);
#545=CARTESIAN_POINT('',(-2.5527E0,-6.985E0,-7.9883E0));
#546=LINE('',#545,#544);
#547=DIRECTION('',(0.E0,1.E0,0.E0));
#548=VECTOR('',#547,3.8608E0);
#549=CARTESIAN_POINT('',(-2.5527E0,-6.985E0,-9.1313E0));
#550=LINE('',#549,#548);
#551=CARTESIAN_POINT('',(-2.5527E0,-3.1242E0,-6.2103E0));
#552=DIRECTION('',(1.E0,0.E0,0.E0));
#553=DIRECTION('',(0.E0,0.E0,-1.E0));
#554=AXIS2_PLACEMENT_3D('',#551,#552,#553);
#556=DIRECTION('',(0.E0,0.E0,1.E0));
#557=VECTOR('',#556,3.6703E0);
#558=CARTESIAN_POINT('',(-2.5527E0,-2.032E-1,-6.2103E0));
#559=LINE('',#558,#557);
#560=DIRECTION('',(0.E0,0.E0,1.E0));
#561=VECTOR('',#560,1.016E1);
#562=CARTESIAN_POINT('',(-2.5527E0,-2.032E-1,0.E0));
#563=LINE('',#562,#561);
#564=DIRECTION('',(0.E0,-1.E0,0.E0));
#565=VECTOR('',#564,1.143E0);
#566=CARTESIAN_POINT('',(-2.5527E0,-2.032E-1,1.016E1));
#567=LINE('',#566,#565);
#568=DIRECTION('',(0.E0,0.E0,-1.E0));
#569=VECTOR('',#568,1.016E1);
#570=CARTESIAN_POINT('',(-2.5527E0,-1.3462E0,1.016E1));
#571=LINE('',#570,#569);
#572=DIRECTION('',(0.E0,0.E0,1.E0));
#573=VECTOR('',#572,3.6703E0);
#574=CARTESIAN_POINT('',(-1.4097E0,-2.032E-1,-6.2103E0));
#575=LINE('',#574,#573);
#576=CARTESIAN_POINT('',(-1.4097E0,-3.1242E0,-6.2103E0));
#577=DIRECTION('',(1.E0,0.E0,0.E0));
#578=DIRECTION('',(0.E0,0.E0,-1.E0));
#579=AXIS2_PLACEMENT_3D('',#576,#577,#578);
#581=DIRECTION('',(0.E0,1.E0,0.E0));
#582=VECTOR('',#581,3.8608E0);
#583=CARTESIAN_POINT('',(-1.4097E0,-6.985E0,-9.1313E0));
#584=LINE('',#583,#582);
#585=DIRECTION('',(0.E0,0.E0,-1.E0));
#586=VECTOR('',#585,1.143E0);
#587=CARTESIAN_POINT('',(-1.4097E0,-6.985E0,-7.9883E0));
#588=LINE('',#587,#586);
#589=DIRECTION('',(0.E0,-1.E0,0.E0));
#590=VECTOR('',#589,3.8608E0);
#591=CARTESIAN_POINT('',(-1.4097E0,-3.1242E0,-7.9883E0));
#592=LINE('',#591,#590);
#593=CARTESIAN_POINT('',(-1.4097E0,-3.1242E0,-6.2103E0));
#594=DIRECTION('',(-1.E0,0.E0,0.E0));
#595=DIRECTION('',(0.E0,1.E0,0.E0));
#596=AXIS2_PLACEMENT_3D('',#593,#594,#595);
#598=DIRECTION('',(0.E0,0.E0,-1.E0));
#599=VECTOR('',#598,3.6703E0);
#600=CARTESIAN_POINT('',(-1.4097E0,-1.3462E0,-2.54E0));
#601=LINE('',#600,#599);
#602=DIRECTION('',(0.E0,0.E0,-1.E0));
#603=VECTOR('',#602,1.016E1);
#604=CARTESIAN_POINT('',(-1.4097E0,-1.3462E0,1.016E1));
#605=LINE('',#604,#603);
#606=DIRECTION('',(0.E0,-1.E0,0.E0));
#607=VECTOR('',#606,1.143E0);
#608=CARTESIAN_POINT('',(-1.4097E0,-2.032E-1,1.016E1));
#609=LINE('',#608,#607);
#610=DIRECTION('',(0.E0,0.E0,1.E0));
#611=VECTOR('',#610,1.016E1);
#612=CARTESIAN_POINT('',(-1.4097E0,-2.032E-1,0.E0));
#613=LINE('',#612,#611);
#614=DIRECTION('',(1.E0,0.E0,0.E0));
#615=VECTOR('',#614,1.143E0);
#616=CARTESIAN_POINT('',(-2.5527E0,-2.032E-1,-6.2103E0));
#617=LINE('',#616,#615);
#618=DIRECTION('',(1.E0,0.E0,0.E0));
#619=VECTOR('',#618,1.143E0);
#620=CARTESIAN_POINT('',(-2.5527E0,-3.1242E0,-9.1313E0));
#621=LINE('',#620,#619);
#622=DIRECTION('',(1.E0,0.E0,0.E0));
#623=VECTOR('',#622,1.143E0);
#624=CARTESIAN_POINT('',(-2.5527E0,-6.985E0,-9.1313E0));
#625=LINE('',#624,#623);
#626=DIRECTION('',(1.E0,0.E0,0.E0));
#627=VECTOR('',#626,1.143E0);
#628=CARTESIAN_POINT('',(-2.5527E0,-6.985E0,-7.9883E0));
#629=LINE('',#628,#627);
#630=DIRECTION('',(1.E0,0.E0,0.E0));
#631=VECTOR('',#630,1.143E0);
#632=CARTESIAN_POINT('',(-2.5527E0,-3.1242E0,-7.9883E0));
#633=LINE('',#632,#631);
#634=DIRECTION('',(1.E0,0.E0,0.E0));
#635=VECTOR('',#634,1.143E0);
#636=CARTESIAN_POINT('',(-2.5527E0,-1.3462E0,-6.2103E0));
#637=LINE('',#636,#635);
#638=DIRECTION('',(1.E0,0.E0,0.E0));
#639=VECTOR('',#638,1.143E0);
#640=CARTESIAN_POINT('',(-2.5527E0,-1.3462E0,1.016E1));
#641=LINE('',#640,#639);
#642=DIRECTION('',(1.E0,0.E0,0.E0));
#643=VECTOR('',#642,1.143E0);
#644=CARTESIAN_POINT('',(-2.5527E0,-2.032E-1,1.016E1));
#645=LINE('',#644,#643);
#646=DIRECTION('',(-1.E0,0.E0,0.E0));
#647=VECTOR('',#646,3.9624E0);
#648=CARTESIAN_POINT('',(1.9812E0,3.302E0,7.62E0));
#649=LINE('',#648,#647);
#650=CARTESIAN_POINT('',(-1.9812E0,3.302E0,7.112E0));
#651=DIRECTION('',(-1.E0,0.E0,0.E0));
#652=DIRECTION('',(0.E0,0.E0,1.E0));
#653=AXIS2_PLACEMENT_3D('',#650,#651,#652);
#655=CARTESIAN_POINT('',(1.9812E0,3.302E0,7.112E0));
#656=DIRECTION('',(-1.E0,0.E0,0.E0));
#657=DIRECTION('',(0.E0,0.E0,1.E0));
#658=AXIS2_PLACEMENT_3D('',#655,#656,#657);
#660=DIRECTION('',(0.E0,1.E0,0.E0));
#661=VECTOR('',#660,1.651E0);
#662=CARTESIAN_POINT('',(1.9812E0,1.651E0,7.62E0));
#663=LINE('',#662,#661);
#664=DIRECTION('',(-1.E0,0.E0,0.E0));
#665=VECTOR('',#664,3.9624E0);
#666=CARTESIAN_POINT('',(1.9812E0,1.651E0,7.62E0));
#667=LINE('',#666,#665);
#668=DIRECTION('',(0.E0,1.E0,0.E0));
#669=VECTOR('',#668,1.651E0);
#670=CARTESIAN_POINT('',(-1.9812E0,1.651E0,7.62E0));
#671=LINE('',#670,#669);
#672=DIRECTION('',(-1.E0,0.E0,0.E0));
#673=VECTOR('',#672,3.9624E0);
#674=CARTESIAN_POINT('',(1.9812E0,2.8575E0,2.0066E0));
#675=LINE('',#674,#673);
#676=DIRECTION('',(0.E0,-5.E-1,8.660254037844E-1));
#677=VECTOR('',#676,2.413E0);
#678=CARTESIAN_POINT('',(-1.9812E0,2.8575E0,2.0066E0));
#679=LINE('',#678,#677);
#680=DIRECTION('',(0.E0,-5.E-1,8.660254037844E-1));
#681=VECTOR('',#680,2.413E0);
#682=CARTESIAN_POINT('',(1.9812E0,2.8575E0,2.0066E0));
#683=LINE('',#682,#681);
#684=DIRECTION('',(0.E0,0.E0,1.E0));
#685=VECTOR('',#684,3.523680700668E0);
#686=CARTESIAN_POINT('',(1.9812E0,1.651E0,4.096319299332E0));
#687=LINE('',#686,#685);
#688=DIRECTION('',(-1.E0,0.E0,0.E0));
#689=VECTOR('',#688,3.9624E0);
#690=CARTESIAN_POINT('',(1.9812E0,1.651E0,4.096319299332E0));
#691=LINE('',#690,#689);
#692=DIRECTION('',(0.E0,0.E0,1.E0));
#693=VECTOR('',#692,3.523680700668E0);
#694=CARTESIAN_POINT('',(-1.9812E0,1.651E0,4.096319299332E0));
#695=LINE('',#694,#693);
#696=CARTESIAN_POINT('',(3.9624E0,-3.033617420935E0,-3.175E0));
#697=CARTESIAN_POINT('',(3.9624E0,-3.81E0,-3.175E0));
#698=VERTEX_POINT('',#696);
#699=VERTEX_POINT('',#697);
#700=CARTESIAN_POINT('',(3.9624E0,-3.81E0,0.E0));
#701=VERTEX_POINT('',#700);
#702=CARTESIAN_POINT('',(-3.9624E0,-3.033617420935E0,-3.175E0));
#703=CARTESIAN_POINT('',(-3.9624E0,-3.81E0,-3.175E0));
#704=VERTEX_POINT('',#702);
#705=VERTEX_POINT('',#703);
#706=CARTESIAN_POINT('',(-3.9624E0,-3.81E0,0.E0));
#707=VERTEX_POINT('',#706);
#708=CARTESIAN_POINT('',(3.9624E0,3.81E0,-3.175E0));
#709=CARTESIAN_POINT('',(3.9624E0,2.017617420935E0,-3.175E0));
#710=VERTEX_POINT('',#708);
#711=VERTEX_POINT('',#709);
#712=CARTESIAN_POINT('',(3.9624E0,1.651E0,-2.54E0));
#713=VERTEX_POINT('',#712);
#714=CARTESIAN_POINT('',(3.9624E0,-2.667E0,-2.54E0));
#715=VERTEX_POINT('',#714);
#716=CARTESIAN_POINT('',(-3.9624E0,3.81E0,-3.175E0));
#717=CARTESIAN_POINT('',(-3.9624E0,2.017617420935E0,-3.175E0));
#718=VERTEX_POINT('',#716);
#719=VERTEX_POINT('',#717);
#720=CARTESIAN_POINT('',(-3.9624E0,1.651E0,-2.54E0));
#721=VERTEX_POINT('',#720);
#722=CARTESIAN_POINT('',(-3.9624E0,-2.667E0,-2.54E0));
#723=VERTEX_POINT('',#722);
#724=CARTESIAN_POINT('',(3.9624E0,3.81E0,0.E0));
#725=VERTEX_POINT('',#724);
#726=CARTESIAN_POINT('',(-3.9624E0,3.81E0,0.E0));
#727=VERTEX_POINT('',#726);
#728=CARTESIAN_POINT('',(1.9812E0,3.302E0,7.62E0));
#729=CARTESIAN_POINT('',(-1.9812E0,3.302E0,7.62E0));
#730=VERTEX_POINT('',#728);
#731=VERTEX_POINT('',#729);
#732=CARTESIAN_POINT('',(1.9812E0,3.81E0,7.112E0));
#733=CARTESIAN_POINT('',(-1.9812E0,3.81E0,7.112E0));
#734=VERTEX_POINT('',#732);
#735=VERTEX_POINT('',#733);
#736=CARTESIAN_POINT('',(3.9624E0,2.8575E0,0.E0));
#737=VERTEX_POINT('',#736);
#738=CARTESIAN_POINT('',(-3.9624E0,2.8575E0,0.E0));
#739=VERTEX_POINT('',#738);
#740=CARTESIAN_POINT('',(1.9812E0,3.81E0,0.E0));
#741=VERTEX_POINT('',#740);
#742=CARTESIAN_POINT('',(-1.9812E0,3.81E0,0.E0));
#743=VERTEX_POINT('',#742);
#744=CARTESIAN_POINT('',(3.9624E0,1.3335E0,0.E0));
#745=CARTESIAN_POINT('',(3.9624E0,1.3335E0,-5.08E-1));
#746=VERTEX_POINT('',#744);
#747=VERTEX_POINT('',#745);
#748=CARTESIAN_POINT('',(3.9624E0,2.8575E0,-5.08E-1));
#749=VERTEX_POINT('',#748);
#750=CARTESIAN_POINT('',(-3.9624E0,1.3335E0,0.E0));
#751=CARTESIAN_POINT('',(-3.9624E0,1.3335E0,-5.08E-1));
#752=VERTEX_POINT('',#750);
#753=VERTEX_POINT('',#751);
#754=CARTESIAN_POINT('',(-3.9624E0,2.8575E0,-5.08E-1));
#755=VERTEX_POINT('',#754);
#756=CARTESIAN_POINT('',(1.9812E0,2.8575E0,0.E0));
#757=VERTEX_POINT('',#756);
#758=CARTESIAN_POINT('',(-1.9812E0,2.8575E0,0.E0));
#759=VERTEX_POINT('',#758);
#760=CARTESIAN_POINT('',(1.9812E0,2.8575E0,2.0066E0));
#761=CARTESIAN_POINT('',(-1.9812E0,2.8575E0,2.0066E0));
#762=VERTEX_POINT('',#760);
#763=VERTEX_POINT('',#761);
#764=CARTESIAN_POINT('',(1.9812E0,1.651E0,7.62E0));
#765=VERTEX_POINT('',#764);
#766=CARTESIAN_POINT('',(-1.9812E0,1.651E0,7.62E0));
#767=VERTEX_POINT('',#766);
#768=CARTESIAN_POINT('',(1.9812E0,1.651E0,4.096319299332E0));
#769=VERTEX_POINT('',#768);
#770=CARTESIAN_POINT('',(-1.9812E0,1.651E0,4.096319299332E0));
#771=VERTEX_POINT('',#770);
#772=CARTESIAN_POINT('',(1.4097E0,-2.032E-1,1.016E1));
#773=CARTESIAN_POINT('',(1.4097E0,-1.3462E0,1.016E1));
#774=VERTEX_POINT('',#772);
#775=VERTEX_POINT('',#773);
#776=CARTESIAN_POINT('',(1.4097E0,-1.3462E0,-6.2103E0));
#777=CARTESIAN_POINT('',(1.4097E0,-3.1242E0,-7.9883E0));
#778=VERTEX_POINT('',#776);
#779=VERTEX_POINT('',#777);
#780=CARTESIAN_POINT('',(1.4097E0,-6.985E0,-7.9883E0));
#781=VERTEX_POINT('',#780);
#782=CARTESIAN_POINT('',(1.4097E0,-6.985E0,-9.1313E0));
#783=VERTEX_POINT('',#782);
#784=CARTESIAN_POINT('',(1.4097E0,-3.1242E0,-9.1313E0));
#785=VERTEX_POINT('',#784);
#786=CARTESIAN_POINT('',(1.4097E0,-2.032E-1,-6.2103E0));
#787=VERTEX_POINT('',#786);
#788=CARTESIAN_POINT('',(2.5527E0,-2.032E-1,1.016E1));
#789=CARTESIAN_POINT('',(2.5527E0,-1.3462E0,1.016E1));
#790=VERTEX_POINT('',#788);
#791=VERTEX_POINT('',#789);
#792=CARTESIAN_POINT('',(2.5527E0,-1.3462E0,-6.2103E0));
#793=CARTESIAN_POINT('',(2.5527E0,-3.1242E0,-7.9883E0));
#794=VERTEX_POINT('',#792);
#795=VERTEX_POINT('',#793);
#796=CARTESIAN_POINT('',(2.5527E0,-6.985E0,-7.9883E0));
#797=VERTEX_POINT('',#796);
#798=CARTESIAN_POINT('',(2.5527E0,-6.985E0,-9.1313E0));
#799=VERTEX_POINT('',#798);
#800=CARTESIAN_POINT('',(2.5527E0,-3.1242E0,-9.1313E0));
#801=VERTEX_POINT('',#800);
#802=CARTESIAN_POINT('',(2.5527E0,-2.032E-1,-6.2103E0));
#803=VERTEX_POINT('',#802);
#804=CARTESIAN_POINT('',(1.4097E0,-1.3462E0,-2.54E0));
#805=CARTESIAN_POINT('',(1.4097E0,-2.032E-1,-2.54E0));
#806=VERTEX_POINT('',#804);
#807=VERTEX_POINT('',#805);
#808=CARTESIAN_POINT('',(2.5527E0,-1.3462E0,-2.54E0));
#809=CARTESIAN_POINT('',(2.5527E0,-2.032E-1,-2.54E0));
#810=VERTEX_POINT('',#808);
#811=VERTEX_POINT('',#809);
#812=CARTESIAN_POINT('',(1.4097E0,-1.3462E0,0.E0));
#813=CARTESIAN_POINT('',(1.4097E0,-2.032E-1,0.E0));
#814=VERTEX_POINT('',#812);
#815=VERTEX_POINT('',#813);
#816=CARTESIAN_POINT('',(2.5527E0,-1.3462E0,0.E0));
#817=CARTESIAN_POINT('',(2.5527E0,-2.032E-1,0.E0));
#818=VERTEX_POINT('',#816);
#819=VERTEX_POINT('',#817);
#820=CARTESIAN_POINT('',(-2.5527E0,-2.032E-1,1.016E1));
#821=CARTESIAN_POINT('',(-2.5527E0,-1.3462E0,1.016E1));
#822=VERTEX_POINT('',#820);
#823=VERTEX_POINT('',#821);
#824=CARTESIAN_POINT('',(-2.5527E0,-1.3462E0,-6.2103E0));
#825=CARTESIAN_POINT('',(-2.5527E0,-3.1242E0,-7.9883E0));
#826=VERTEX_POINT('',#824);
#827=VERTEX_POINT('',#825);
#828=CARTESIAN_POINT('',(-2.5527E0,-6.985E0,-7.9883E0));
#829=VERTEX_POINT('',#828);
#830=CARTESIAN_POINT('',(-2.5527E0,-6.985E0,-9.1313E0));
#831=VERTEX_POINT('',#830);
#832=CARTESIAN_POINT('',(-2.5527E0,-3.1242E0,-9.1313E0));
#833=VERTEX_POINT('',#832);
#834=CARTESIAN_POINT('',(-2.5527E0,-2.032E-1,-6.2103E0));
#835=VERTEX_POINT('',#834);
#836=CARTESIAN_POINT('',(-1.4097E0,-2.032E-1,1.016E1));
#837=CARTESIAN_POINT('',(-1.4097E0,-1.3462E0,1.016E1));
#838=VERTEX_POINT('',#836);
#839=VERTEX_POINT('',#837);
#840=CARTESIAN_POINT('',(-1.4097E0,-1.3462E0,-6.2103E0));
#841=CARTESIAN_POINT('',(-1.4097E0,-3.1242E0,-7.9883E0));
#842=VERTEX_POINT('',#840);
#843=VERTEX_POINT('',#841);
#844=CARTESIAN_POINT('',(-1.4097E0,-6.985E0,-7.9883E0));
#845=VERTEX_POINT('',#844);
#846=CARTESIAN_POINT('',(-1.4097E0,-6.985E0,-9.1313E0));
#847=VERTEX_POINT('',#846);
#848=CARTESIAN_POINT('',(-1.4097E0,-3.1242E0,-9.1313E0));
#849=VERTEX_POINT('',#848);
#850=CARTESIAN_POINT('',(-1.4097E0,-2.032E-1,-6.2103E0));
#851=VERTEX_POINT('',#850);
#852=CARTESIAN_POINT('',(-2.5527E0,-1.3462E0,-2.54E0));
#853=CARTESIAN_POINT('',(-2.5527E0,-2.032E-1,-2.54E0));
#854=VERTEX_POINT('',#852);
#855=VERTEX_POINT('',#853);
#856=CARTESIAN_POINT('',(-1.4097E0,-1.3462E0,-2.54E0));
#857=CARTESIAN_POINT('',(-1.4097E0,-2.032E-1,-2.54E0));
#858=VERTEX_POINT('',#856);
#859=VERTEX_POINT('',#857);
#860=CARTESIAN_POINT('',(-2.5527E0,-1.3462E0,0.E0));
#861=CARTESIAN_POINT('',(-2.5527E0,-2.032E-1,0.E0));
#862=VERTEX_POINT('',#860);
#863=VERTEX_POINT('',#861);
#864=CARTESIAN_POINT('',(-1.4097E0,-1.3462E0,0.E0));
#865=CARTESIAN_POINT('',(-1.4097E0,-2.032E-1,0.E0));
#866=VERTEX_POINT('',#864);
#867=VERTEX_POINT('',#865);
#868=CARTESIAN_POINT('',(3.9624E0,2.54E-1,-2.54E0));
#869=CARTESIAN_POINT('',(3.9624E0,2.54E-1,0.E0));
#870=VERTEX_POINT('',#868);
#871=VERTEX_POINT('',#869);
#872=CARTESIAN_POINT('',(3.9624E0,-1.778E0,-2.54E0));
#873=CARTESIAN_POINT('',(3.9624E0,-1.778E0,0.E0));
#874=VERTEX_POINT('',#872);
#875=VERTEX_POINT('',#873);
#876=CARTESIAN_POINT('',(-3.9624E0,-1.778E0,-2.54E0));
#877=CARTESIAN_POINT('',(-3.9624E0,-1.778E0,0.E0));
#878=VERTEX_POINT('',#876);
#879=VERTEX_POINT('',#877);
#880=CARTESIAN_POINT('',(-3.9624E0,2.54E-1,-2.54E0));
#881=CARTESIAN_POINT('',(-3.9624E0,2.54E-1,0.E0));
#882=VERTEX_POINT('',#880);
#883=VERTEX_POINT('',#881);
#884=CARTESIAN_POINT('',(3.4544E0,2.54E-1,-2.54E0));
#885=VERTEX_POINT('',#884);
#886=CARTESIAN_POINT('',(3.4544E0,-1.778E0,-2.54E0));
#887=VERTEX_POINT('',#886);
#888=CARTESIAN_POINT('',(-3.4544E0,-1.778E0,-2.54E0));
#889=VERTEX_POINT('',#888);
#890=CARTESIAN_POINT('',(-3.4544E0,2.54E-1,-2.54E0));
#891=VERTEX_POINT('',#890);
#892=CARTESIAN_POINT('',(3.4544E0,2.54E-1,0.E0));
#893=VERTEX_POINT('',#892);
#894=CARTESIAN_POINT('',(3.4544E0,-1.778E0,0.E0));
#895=VERTEX_POINT('',#894);
#896=CARTESIAN_POINT('',(-3.4544E0,-1.778E0,0.E0));
#897=VERTEX_POINT('',#896);
#898=CARTESIAN_POINT('',(-3.4544E0,2.54E-1,0.E0));
#899=VERTEX_POINT('',#898);
#900=CARTESIAN_POINT('',(3.9624E0,0.E0,0.E0));
#901=DIRECTION('',(-1.E0,0.E0,0.E0));
#902=DIRECTION('',(0.E0,-1.E0,0.E0));
#903=AXIS2_PLACEMENT_3D('',#900,#901,#902);
#904=PLANE('',#903);
#906=ORIENTED_EDGE('',*,*,#905,.T.);
#908=ORIENTED_EDGE('',*,*,#907,.T.);
#910=ORIENTED_EDGE('',*,*,#909,.T.);
#912=ORIENTED_EDGE('',*,*,#911,.T.);
#914=ORIENTED_EDGE('',*,*,#913,.T.);
#916=ORIENTED_EDGE('',*,*,#915,.F.);
#918=ORIENTED_EDGE('',*,*,#917,.T.);
#920=ORIENTED_EDGE('',*,*,#919,.T.);
#922=ORIENTED_EDGE('',*,*,#921,.T.);
#924=ORIENTED_EDGE('',*,*,#923,.T.);
#925=EDGE_LOOP('',(#906,#908,#910,#912,#914,#916,#918,#920,#922,#924));
#926=FACE_OUTER_BOUND('',#925,.F.);
#927=ADVANCED_FACE('',(#926),#904,.F.);
#928=CARTESIAN_POINT('',(3.9624E0,0.E0,0.E0));
#929=DIRECTION('',(-1.E0,0.E0,0.E0));
#930=DIRECTION('',(0.E0,-1.E0,0.E0));
#931=AXIS2_PLACEMENT_3D('',#928,#929,#930);
#932=PLANE('',#931);
#934=ORIENTED_EDGE('',*,*,#933,.F.);
#936=ORIENTED_EDGE('',*,*,#935,.T.);
#938=ORIENTED_EDGE('',*,*,#937,.T.);
#940=ORIENTED_EDGE('',*,*,#939,.T.);
#942=ORIENTED_EDGE('',*,*,#941,.T.);
#944=ORIENTED_EDGE('',*,*,#943,.T.);
#945=EDGE_LOOP('',(#934,#936,#938,#940,#942,#944));
#946=FACE_OUTER_BOUND('',#945,.F.);
#947=ADVANCED_FACE('',(#946),#932,.F.);
#948=CARTESIAN_POINT('',(3.9624E0,2.54E-1,0.E0));
#949=DIRECTION('',(0.E0,1.E0,0.E0));
#950=DIRECTION('',(-1.E0,0.E0,0.E0));
#951=AXIS2_PLACEMENT_3D('',#948,#949,#950);
#952=PLANE('',#951);
#953=ORIENTED_EDGE('',*,*,#905,.F.);
#955=ORIENTED_EDGE('',*,*,#954,.T.);
#957=ORIENTED_EDGE('',*,*,#956,.F.);
#959=ORIENTED_EDGE('',*,*,#958,.F.);
#960=EDGE_LOOP('',(#953,#955,#957,#959));
#961=FACE_OUTER_BOUND('',#960,.F.);
#962=ADVANCED_FACE('',(#961),#952,.F.);
#963=CARTESIAN_POINT('',(3.9624E0,1.651E0,-2.54E0));
#964=DIRECTION('',(0.E0,0.E0,-1.E0));
#965=DIRECTION('',(0.E0,-1.E0,0.E0));
#966=AXIS2_PLACEMENT_3D('',#963,#964,#965);
#967=PLANE('',#966);
#968=ORIENTED_EDGE('',*,*,#954,.F.);
#969=ORIENTED_EDGE('',*,*,#923,.F.);
#971=ORIENTED_EDGE('',*,*,#970,.T.);
#973=ORIENTED_EDGE('',*,*,#972,.T.);
#975=ORIENTED_EDGE('',*,*,#974,.T.);
#977=ORIENTED_EDGE('',*,*,#976,.F.);
#979=ORIENTED_EDGE('',*,*,#978,.F.);
#981=ORIENTED_EDGE('',*,*,#980,.T.);
#983=ORIENTED_EDGE('',*,*,#982,.F.);
#984=ORIENTED_EDGE('',*,*,#935,.F.);
#986=ORIENTED_EDGE('',*,*,#985,.T.);
#988=ORIENTED_EDGE('',*,*,#987,.F.);
#989=EDGE_LOOP('',(#968,#969,#971,#973,#975,#977,#979,#981,#983,#984,#986,
#988));
#990=FACE_OUTER_BOUND('',#989,.F.);
#992=ORIENTED_EDGE('',*,*,#991,.T.);
#994=ORIENTED_EDGE('',*,*,#993,.T.);
#996=ORIENTED_EDGE('',*,*,#995,.F.);
#998=ORIENTED_EDGE('',*,*,#997,.F.);
#999=EDGE_LOOP('',(#992,#994,#996,#998));
#1000=FACE_BOUND('',#999,.F.);
#1002=ORIENTED_EDGE('',*,*,#1001,.T.);
#1004=ORIENTED_EDGE('',*,*,#1003,.T.);
#1006=ORIENTED_EDGE('',*,*,#1005,.F.);
#1008=ORIENTED_EDGE('',*,*,#1007,.F.);
#1009=EDGE_LOOP('',(#1002,#1004,#1006,#1008));
#1010=FACE_BOUND('',#1009,.F.);
#1011=ADVANCED_FACE('',(#990,#1000,#1010),#967,.T.);
#1012=CARTESIAN_POINT('',(3.9624E0,2.017617420935E0,-3.175E0));
#1013=DIRECTION('',(0.E0,-8.660254037844E-1,-5.E-1));
#1014=DIRECTION('',(0.E0,-5.E-1,8.660254037844E-1));
#1015=AXIS2_PLACEMENT_3D('',#1012,#1013,#1014);
#1016=PLANE('',#1015);
#1017=ORIENTED_EDGE('',*,*,#921,.F.);
#1019=ORIENTED_EDGE('',*,*,#1018,.T.);
#1021=ORIENTED_EDGE('',*,*,#1020,.T.);
#1022=ORIENTED_EDGE('',*,*,#970,.F.);
#1023=EDGE_LOOP('',(#1017,#1019,#1021,#1022));
#1024=FACE_OUTER_BOUND('',#1023,.F.);
#1025=ADVANCED_FACE('',(#1024),#1016,.T.);
#1026=CARTESIAN_POINT('',(3.9624E0,3.81E0,-3.175E0));
#1027=DIRECTION('',(0.E0,0.E0,-1.E0));
#1028=DIRECTION('',(0.E0,-1.E0,0.E0));
#1029=AXIS2_PLACEMENT_3D('',#1026,#1027,#1028);
#1030=PLANE('',#1029);
#1031=ORIENTED_EDGE('',*,*,#919,.F.);
#1033=ORIENTED_EDGE('',*,*,#1032,.T.);
#1035=ORIENTED_EDGE('',*,*,#1034,.T.);
#1036=ORIENTED_EDGE('',*,*,#1018,.F.);
#1037=EDGE_LOOP('',(#1031,#1033,#1035,#1036));
#1038=FACE_OUTER_BOUND('',#1037,.F.);
#1039=ADVANCED_FACE('',(#1038),#1030,.T.);
#1040=CARTESIAN_POINT('',(3.9624E0,3.81E0,7.112E0));
#1041=DIRECTION('',(0.E0,1.E0,0.E0));
#1042=DIRECTION('',(0.E0,0.E0,-1.E0));
#1043=AXIS2_PLACEMENT_3D('',#1040,#1041,#1042);
#1044=PLANE('',#1043);
#1045=ORIENTED_EDGE('',*,*,#917,.F.);
#1047=ORIENTED_EDGE('',*,*,#1046,.T.);
#1049=ORIENTED_EDGE('',*,*,#1048,.F.);
#1051=ORIENTED_EDGE('',*,*,#1050,.T.);
#1053=ORIENTED_EDGE('',*,*,#1052,.T.);
#1055=ORIENTED_EDGE('',*,*,#1054,.T.);
#1057=ORIENTED_EDGE('',*,*,#1056,.T.);
#1058=ORIENTED_EDGE('',*,*,#1032,.F.);
#1059=EDGE_LOOP('',(#1045,#1047,#1049,#1051,#1053,#1055,#1057,#1058));
#1060=FACE_OUTER_BOUND('',#1059,.F.);
#1061=ADVANCED_FACE('',(#1060),#1044,.T.);
#1062=CARTESIAN_POINT('',(3.9624E0,0.E0,0.E0));
#1063=DIRECTION('',(0.E0,0.E0,1.E0));
#1064=DIRECTION('',(1.E0,0.E0,0.E0));
#1065=AXIS2_PLACEMENT_3D('',#1062,#1063,#1064);
#1066=PLANE('',#1065);
#1067=ORIENTED_EDGE('',*,*,#915,.T.);
#1069=ORIENTED_EDGE('',*,*,#1068,.T.);
#1071=ORIENTED_EDGE('',*,*,#1070,.F.);
#1072=ORIENTED_EDGE('',*,*,#1046,.F.);
#1073=EDGE_LOOP('',(#1067,#1069,#1071,#1072));
#1074=FACE_OUTER_BOUND('',#1073,.F.);
#1075=ADVANCED_FACE('',(#1074),#1066,.T.);
#1076=CARTESIAN_POINT('',(3.9624E0,0.E0,0.E0));
#1077=DIRECTION('',(0.E0,0.E0,1.E0));
#1078=DIRECTION('',(1.E0,0.E0,0.E0));
#1079=AXIS2_PLACEMENT_3D('',#1076,#1077,#1078);
#1080=PLANE('',#1079);
#1082=ORIENTED_EDGE('',*,*,#1081,.F.);
#1083=ORIENTED_EDGE('',*,*,#1054,.F.);
#1085=ORIENTED_EDGE('',*,*,#1084,.F.);
#1087=ORIENTED_EDGE('',*,*,#1086,.T.);
#1088=EDGE_LOOP('',(#1082,#1083,#1085,#1087));
#1089=FACE_OUTER_BOUND('',#1088,.F.);
#1090=ADVANCED_FACE('',(#1089),#1080,.T.);
#1091=CARTESIAN_POINT('',(3.9624E0,2.8575E0,-5.08E-1));
#1092=DIRECTION('',(0.E0,-1.E0,0.E0));
#1093=DIRECTION('',(0.E0,0.E0,1.E0));
#1094=AXIS2_PLACEMENT_3D('',#1091,#1092,#1093);
#1095=PLANE('',#1094);
#1096=ORIENTED_EDGE('',*,*,#1068,.F.);
#1097=ORIENTED_EDGE('',*,*,#913,.F.);
#1099=ORIENTED_EDGE('',*,*,#1098,.T.);
#1101=ORIENTED_EDGE('',*,*,#1100,.T.);
#1102=ORIENTED_EDGE('',*,*,#1086,.F.);
#1104=ORIENTED_EDGE('',*,*,#1103,.F.);
#1106=ORIENTED_EDGE('',*,*,#1105,.F.);
#1108=ORIENTED_EDGE('',*,*,#1107,.T.);
#1109=EDGE_LOOP('',(#1096,#1097,#1099,#1101,#1102,#1104,#1106,#1108));
#1110=FACE_OUTER_BOUND('',#1109,.F.);
#1111=ADVANCED_FACE('',(#1110),#1095,.T.);
#1112=CARTESIAN_POINT('',(3.9624E0,2.0955E0,-5.08E-1));
#1113=DIRECTION('',(-1.E0,0.E0,0.E0));
#1114=DIRECTION('',(0.E0,-1.E0,0.E0));
#1115=AXIS2_PLACEMENT_3D('',#1112,#1113,#1114);
#1116=CYLINDRICAL_SURFACE('',#1115,7.62E-1);
#1117=ORIENTED_EDGE('',*,*,#911,.F.);
#1119=ORIENTED_EDGE('',*,*,#1118,.T.);
#1121=ORIENTED_EDGE('',*,*,#1120,.T.);
#1122=ORIENTED_EDGE('',*,*,#1098,.F.);
#1123=EDGE_LOOP('',(#1117,#1119,#1121,#1122));
#1124=FACE_OUTER_BOUND('',#1123,.F.);
#1125=ADVANCED_FACE('',(#1124),#1116,.F.);
#1126=CARTESIAN_POINT('',(3.9624E0,1.3335E0,0.E0));
#1127=DIRECTION('',(0.E0,1.E0,0.E0));
#1128=DIRECTION('',(0.E0,0.E0,-1.E0));
#1129=AXIS2_PLACEMENT_3D('',#1126,#1127,#1128);
#1130=PLANE('',#1129);
#1131=ORIENTED_EDGE('',*,*,#909,.F.);
#1133=ORIENTED_EDGE('',*,*,#1132,.T.);
#1135=ORIENTED_EDGE('',*,*,#1134,.T.);
#1136=ORIENTED_EDGE('',*,*,#1118,.F.);
#1137=EDGE_LOOP('',(#1131,#1133,#1135,#1136));
#1138=FACE_OUTER_BOUND('',#1137,.F.);
#1139=ADVANCED_FACE('',(#1138),#1130,.T.);
#1140=CARTESIAN_POINT('',(3.9624E0,-3.81E0,0.E0));
#1141=DIRECTION('',(0.E0,0.E0,1.E0));
#1142=DIRECTION('',(0.E0,1.E0,0.E0));
#1143=AXIS2_PLACEMENT_3D('',#1140,#1141,#1142);
#1144=PLANE('',#1143);
#1145=ORIENTED_EDGE('',*,*,#958,.T.);
#1147=ORIENTED_EDGE('',*,*,#1146,.T.);
#1149=ORIENTED_EDGE('',*,*,#1148,.F.);
#1150=ORIENTED_EDGE('',*,*,#943,.F.);
#1152=ORIENTED_EDGE('',*,*,#1151,.T.);
#1154=ORIENTED_EDGE('',*,*,#1153,.T.);
#1156=ORIENTED_EDGE('',*,*,#1155,.T.);
#1158=ORIENTED_EDGE('',*,*,#1157,.T.);
#1160=ORIENTED_EDGE('',*,*,#1159,.F.);
#1162=ORIENTED_EDGE('',*,*,#1161,.T.);
#1163=ORIENTED_EDGE('',*,*,#1132,.F.);
#1164=ORIENTED_EDGE('',*,*,#907,.F.);
#1165=EDGE_LOOP('',(#1145,#1147,#1149,#1150,#1152,#1154,#1156,#1158,#1160,#1162,
#1163,#1164));
#1166=FACE_OUTER_BOUND('',#1165,.F.);
#1168=ORIENTED_EDGE('',*,*,#1167,.F.);
#1170=ORIENTED_EDGE('',*,*,#1169,.T.);
#1172=ORIENTED_EDGE('',*,*,#1171,.T.);
#1174=ORIENTED_EDGE('',*,*,#1173,.F.);
#1175=EDGE_LOOP('',(#1168,#1170,#1172,#1174));
#1176=FACE_BOUND('',#1175,.F.);
#1178=ORIENTED_EDGE('',*,*,#1177,.F.);
#1180=ORIENTED_EDGE('',*,*,#1179,.T.);
#1182=ORIENTED_EDGE('',*,*,#1181,.T.);
#1184=ORIENTED_EDGE('',*,*,#1183,.F.);
#1185=EDGE_LOOP('',(#1178,#1180,#1182,#1184));
#1186=FACE_BOUND('',#1185,.F.);
#1187=ADVANCED_FACE('',(#1166,#1176,#1186),#1144,.T.);
#1188=CARTESIAN_POINT('',(3.4544E0,2.54E-1,0.E0));
#1189=DIRECTION('',(-1.E0,0.E0,0.E0));
#1190=DIRECTION('',(0.E0,-1.E0,0.E0));
#1191=AXIS2_PLACEMENT_3D('',#1188,#1189,#1190);
#1192=PLANE('',#1191);
#1193=ORIENTED_EDGE('',*,*,#987,.T.);
#1195=ORIENTED_EDGE('',*,*,#1194,.F.);
#1196=ORIENTED_EDGE('',*,*,#1146,.F.);
#1197=ORIENTED_EDGE('',*,*,#956,.T.);
#1198=EDGE_LOOP('',(#1193,#1195,#1196,#1197));
#1199=FACE_OUTER_BOUND('',#1198,.F.);
#1200=ADVANCED_FACE('',(#1199),#1192,.F.);
#1201=CARTESIAN_POINT('',(3.4544E0,-1.778E0,0.E0));
#1202=DIRECTION('',(0.E0,-1.E0,0.E0));
#1203=DIRECTION('',(1.E0,0.E0,0.E0));
#1204=AXIS2_PLACEMENT_3D('',#1201,#1202,#1203);
#1205=PLANE('',#1204);
#1206=ORIENTED_EDGE('',*,*,#933,.T.);
#1207=ORIENTED_EDGE('',*,*,#1148,.T.);
#1208=ORIENTED_EDGE('',*,*,#1194,.T.);
#1209=ORIENTED_EDGE('',*,*,#985,.F.);
#1210=EDGE_LOOP('',(#1206,#1207,#1208,#1209));
#1211=FACE_OUTER_BOUND('',#1210,.F.);
#1212=ADVANCED_FACE('',(#1211),#1205,.F.);
#1213=CARTESIAN_POINT('',(3.9624E0,-3.81E0,-3.175E0));
#1214=DIRECTION('',(0.E0,-1.E0,0.E0));
#1215=DIRECTION('',(0.E0,0.E0,1.E0));
#1216=AXIS2_PLACEMENT_3D('',#1213,#1214,#1215);
#1217=PLANE('',#1216);
#1218=ORIENTED_EDGE('',*,*,#941,.F.);
#1220=ORIENTED_EDGE('',*,*,#1219,.T.);
#1222=ORIENTED_EDGE('',*,*,#1221,.T.);
#1223=ORIENTED_EDGE('',*,*,#1151,.F.);
#1224=EDGE_LOOP('',(#1218,#1220,#1222,#1223));
#1225=FACE_OUTER_BOUND('',#1224,.F.);
#1226=ADVANCED_FACE('',(#1225),#1217,.T.);
#1227=CARTESIAN_POINT('',(3.9624E0,-3.033617420935E0,-3.175E0));
#1228=DIRECTION('',(0.E0,0.E0,-1.E0));
#1229=DIRECTION('',(0.E0,-1.E0,0.E0));
#1230=AXIS2_PLACEMENT_3D('',#1227,#1228,#1229);
#1231=PLANE('',#1230);
#1232=ORIENTED_EDGE('',*,*,#939,.F.);
#1234=ORIENTED_EDGE('',*,*,#1233,.T.);
#1236=ORIENTED_EDGE('',*,*,#1235,.T.);
#1237=ORIENTED_EDGE('',*,*,#1219,.F.);
#1238=EDGE_LOOP('',(#1232,#1234,#1236,#1237));
#1239=FACE_OUTER_BOUND('',#1238,.F.);
#1240=ADVANCED_FACE('',(#1239),#1231,.T.);
#1241=CARTESIAN_POINT('',(3.9624E0,-2.667E0,-2.54E0));
#1242=DIRECTION('',(0.E0,8.660254037844E-1,-5.E-1));
#1243=DIRECTION('',(0.E0,-5.E-1,-8.660254037844E-1));
#1244=AXIS2_PLACEMENT_3D('',#1241,#1242,#1243);
#1245=PLANE('',#1244);
#1246=ORIENTED_EDGE('',*,*,#937,.F.);
#1247=ORIENTED_EDGE('',*,*,#982,.T.);
#1249=ORIENTED_EDGE('',*,*,#1248,.T.);
#1250=ORIENTED_EDGE('',*,*,#1233,.F.);
#1251=EDGE_LOOP('',(#1246,#1247,#1249,#1250));
#1252=FACE_OUTER_BOUND('',#1251,.F.);
#1253=ADVANCED_FACE('',(#1252),#1245,.T.);
#1254=CARTESIAN_POINT('',(-3.9624E0,0.E0,0.E0));
#1255=DIRECTION('',(-1.E0,0.E0,0.E0));
#1256=DIRECTION('',(0.E0,-1.E0,0.E0));
#1257=AXIS2_PLACEMENT_3D('',#1254,#1255,#1256);
#1258=PLANE('',#1257);
#1260=ORIENTED_EDGE('',*,*,#1259,.T.);
#1261=ORIENTED_EDGE('',*,*,#1153,.F.);
#1262=ORIENTED_EDGE('',*,*,#1221,.F.);
#1263=ORIENTED_EDGE('',*,*,#1235,.F.);
#1264=ORIENTED_EDGE('',*,*,#1248,.F.);
#1265=ORIENTED_EDGE('',*,*,#980,.F.);
#1266=EDGE_LOOP('',(#1260,#1261,#1262,#1263,#1264,#1265));
#1267=FACE_OUTER_BOUND('',#1266,.F.);
#1268=ADVANCED_FACE('',(#1267),#1258,.T.);
#1269=CARTESIAN_POINT('',(-3.9624E0,0.E0,0.E0));
#1270=DIRECTION('',(-1.E0,0.E0,0.E0));
#1271=DIRECTION('',(0.E0,-1.E0,0.E0));
#1272=AXIS2_PLACEMENT_3D('',#1269,#1270,#1271);
#1273=PLANE('',#1272);
#1275=ORIENTED_EDGE('',*,*,#1274,.F.);
#1276=ORIENTED_EDGE('',*,*,#972,.F.);
#1277=ORIENTED_EDGE('',*,*,#1020,.F.);
#1278=ORIENTED_EDGE('',*,*,#1034,.F.);
#1279=ORIENTED_EDGE('',*,*,#1056,.F.);
#1280=ORIENTED_EDGE('',*,*,#1081,.T.);
#1281=ORIENTED_EDGE('',*,*,#1100,.F.);
#1282=ORIENTED_EDGE('',*,*,#1120,.F.);
#1283=ORIENTED_EDGE('',*,*,#1134,.F.);
#1284=ORIENTED_EDGE('',*,*,#1161,.F.);
#1285=EDGE_LOOP('',(#1275,#1276,#1277,#1278,#1279,#1280,#1281,#1282,#1283,
#1284));
#1286=FACE_OUTER_BOUND('',#1285,.F.);
#1287=ADVANCED_FACE('',(#1286),#1273,.T.);
#1288=CARTESIAN_POINT('',(-3.9624E0,-1.778E0,0.E0));
#1289=DIRECTION('',(0.E0,-1.E0,0.E0));
#1290=DIRECTION('',(1.E0,0.E0,0.E0));
#1291=AXIS2_PLACEMENT_3D('',#1288,#1289,#1290);
#1292=PLANE('',#1291);
#1293=ORIENTED_EDGE('',*,*,#1259,.F.);
#1294=ORIENTED_EDGE('',*,*,#978,.T.);
#1296=ORIENTED_EDGE('',*,*,#1295,.F.);
#1297=ORIENTED_EDGE('',*,*,#1155,.F.);
#1298=EDGE_LOOP('',(#1293,#1294,#1296,#1297));
#1299=FACE_OUTER_BOUND('',#1298,.F.);
#1300=ADVANCED_FACE('',(#1299),#1292,.F.);
#1301=CARTESIAN_POINT('',(-3.4544E0,-1.778E0,0.E0));
#1302=DIRECTION('',(1.E0,0.E0,0.E0));
#1303=DIRECTION('',(0.E0,1.E0,0.E0));
#1304=AXIS2_PLACEMENT_3D('',#1301,#1302,#1303);
#1305=PLANE('',#1304);
#1306=ORIENTED_EDGE('',*,*,#976,.T.);
#1308=ORIENTED_EDGE('',*,*,#1307,.F.);
#1309=ORIENTED_EDGE('',*,*,#1157,.F.);
#1310=ORIENTED_EDGE('',*,*,#1295,.T.);
#1311=EDGE_LOOP('',(#1306,#1308,#1309,#1310));
#1312=FACE_OUTER_BOUND('',#1311,.F.);
#1313=ADVANCED_FACE('',(#1312),#1305,.F.);
#1314=CARTESIAN_POINT('',(-3.4544E0,2.54E-1,0.E0));
#1315=DIRECTION('',(0.E0,1.E0,0.E0));
#1316=DIRECTION('',(-1.E0,0.E0,0.E0));
#1317=AXIS2_PLACEMENT_3D('',#1314,#1315,#1316);
#1318=PLANE('',#1317);
#1319=ORIENTED_EDGE('',*,*,#1274,.T.);
#1320=ORIENTED_EDGE('',*,*,#1159,.T.);
#1321=ORIENTED_EDGE('',*,*,#1307,.T.);
#1322=ORIENTED_EDGE('',*,*,#974,.F.);
#1323=EDGE_LOOP('',(#1319,#1320,#1321,#1322));
#1324=FACE_OUTER_BOUND('',#1323,.F.);
#1325=ADVANCED_FACE('',(#1324),#1318,.F.);
#1326=CARTESIAN_POINT('',(1.4097E0,0.E0,0.E0));
#1327=DIRECTION('',(1.E0,0.E0,0.E0));
#1328=DIRECTION('',(0.E0,1.E0,0.E0));
#1329=AXIS2_PLACEMENT_3D('',#1326,#1327,#1328);
#1330=PLANE('',#1329);
#1331=ORIENTED_EDGE('',*,*,#991,.F.);
#1333=ORIENTED_EDGE('',*,*,#1332,.T.);
#1335=ORIENTED_EDGE('',*,*,#1334,.T.);
#1337=ORIENTED_EDGE('',*,*,#1336,.T.);
#1339=ORIENTED_EDGE('',*,*,#1338,.T.);
#1341=ORIENTED_EDGE('',*,*,#1340,.T.);
#1343=ORIENTED_EDGE('',*,*,#1342,.T.);
#1345=ORIENTED_EDGE('',*,*,#1344,.T.);
#1346=EDGE_LOOP('',(#1331,#1333,#1335,#1337,#1339,#1341,#1343,#1345));
#1347=FACE_OUTER_BOUND('',#1346,.F.);
#1348=ADVANCED_FACE('',(#1347),#1330,.F.);
#1349=CARTESIAN_POINT('',(1.4097E0,0.E0,0.E0));
#1350=DIRECTION('',(1.E0,0.E0,0.E0));
#1351=DIRECTION('',(0.E0,1.E0,0.E0));
#1352=AXIS2_PLACEMENT_3D('',#1349,#1350,#1351);
#1353=PLANE('',#1352);
#1354=ORIENTED_EDGE('',*,*,#1167,.T.);
#1356=ORIENTED_EDGE('',*,*,#1355,.T.);
#1358=ORIENTED_EDGE('',*,*,#1357,.T.);
#1360=ORIENTED_EDGE('',*,*,#1359,.T.);
#1361=EDGE_LOOP('',(#1354,#1356,#1358,#1360));
#1362=FACE_OUTER_BOUND('',#1361,.F.);
#1363=ADVANCED_FACE('',(#1362),#1353,.F.);
#1364=CARTESIAN_POINT('',(1.4097E0,-1.3462E0,-2.54E0));
#1365=DIRECTION('',(0.E0,-1.E0,0.E0));
#1366=DIRECTION('',(0.E0,0.E0,-1.E0));
#1367=AXIS2_PLACEMENT_3D('',#1364,#1365,#1366);
#1368=PLANE('',#1367);
#1369=ORIENTED_EDGE('',*,*,#997,.T.);
#1371=ORIENTED_EDGE('',*,*,#1370,.T.);
#1373=ORIENTED_EDGE('',*,*,#1372,.F.);
#1374=ORIENTED_EDGE('',*,*,#1332,.F.);
#1375=EDGE_LOOP('',(#1369,#1371,#1373,#1374));
#1376=FACE_OUTER_BOUND('',#1375,.F.);
#1377=ADVANCED_FACE('',(#1376),#1368,.T.);
#1378=CARTESIAN_POINT('',(2.5527E0,0.E0,0.E0));
#1379=DIRECTION('',(1.E0,0.E0,0.E0));
#1380=DIRECTION('',(0.E0,1.E0,0.E0));
#1381=AXIS2_PLACEMENT_3D('',#1378,#1379,#1380);
#1382=PLANE('',#1381);
#1383=ORIENTED_EDGE('',*,*,#995,.T.);
#1385=ORIENTED_EDGE('',*,*,#1384,.F.);
#1387=ORIENTED_EDGE('',*,*,#1386,.F.);
#1389=ORIENTED_EDGE('',*,*,#1388,.F.);
#1391=ORIENTED_EDGE('',*,*,#1390,.F.);
#1393=ORIENTED_EDGE('',*,*,#1392,.F.);
#1395=ORIENTED_EDGE('',*,*,#1394,.F.);
#1396=ORIENTED_EDGE('',*,*,#1370,.F.);
#1397=EDGE_LOOP('',(#1383,#1385,#1387,#1389,#1391,#1393,#1395,#1396));
#1398=FACE_OUTER_BOUND('',#1397,.F.);
#1399=ADVANCED_FACE('',(#1398),#1382,.T.);
#1400=CARTESIAN_POINT('',(2.5527E0,0.E0,0.E0));
#1401=DIRECTION('',(1.E0,0.E0,0.E0));
#1402=DIRECTION('',(0.E0,1.E0,0.E0));
#1403=AXIS2_PLACEMENT_3D('',#1400,#1401,#1402);
#1404=PLANE('',#1403);
#1405=ORIENTED_EDGE('',*,*,#1171,.F.);
#1407=ORIENTED_EDGE('',*,*,#1406,.F.);
#1409=ORIENTED_EDGE('',*,*,#1408,.F.);
#1411=ORIENTED_EDGE('',*,*,#1410,.F.);
#1412=EDGE_LOOP('',(#1405,#1407,#1409,#1411));
#1413=FACE_OUTER_BOUND('',#1412,.F.);
#1414=ADVANCED_FACE('',(#1413),#1404,.T.);
#1415=CARTESIAN_POINT('',(1.4097E0,-2.032E-1,-6.2103E0));
#1416=DIRECTION('',(0.E0,1.E0,0.E0));
#1417=DIRECTION('',(0.E0,0.E0,1.E0));
#1418=AXIS2_PLACEMENT_3D('',#1415,#1416,#1417);
#1419=PLANE('',#1418);
#1420=ORIENTED_EDGE('',*,*,#993,.F.);
#1421=ORIENTED_EDGE('',*,*,#1344,.F.);
#1423=ORIENTED_EDGE('',*,*,#1422,.T.);
#1424=ORIENTED_EDGE('',*,*,#1384,.T.);
#1425=EDGE_LOOP('',(#1420,#1421,#1423,#1424));
#1426=FACE_OUTER_BOUND('',#1425,.F.);
#1427=ADVANCED_FACE('',(#1426),#1419,.T.);
#1428=CARTESIAN_POINT('',(1.4097E0,-3.1242E0,-6.2103E0));
#1429=DIRECTION('',(1.E0,0.E0,0.E0));
#1430=DIRECTION('',(0.E0,1.E0,0.E0));
#1431=AXIS2_PLACEMENT_3D('',#1428,#1429,#1430);
#1432=CYLINDRICAL_SURFACE('',#1431,2.921E0);
#1433=ORIENTED_EDGE('',*,*,#1342,.F.);
#1435=ORIENTED_EDGE('',*,*,#1434,.T.);
#1436=ORIENTED_EDGE('',*,*,#1386,.T.);
#1437=ORIENTED_EDGE('',*,*,#1422,.F.);
#1438=EDGE_LOOP('',(#1433,#1435,#1436,#1437));
#1439=FACE_OUTER_BOUND('',#1438,.F.);
#1440=ADVANCED_FACE('',(#1439),#1432,.T.);
#1441=CARTESIAN_POINT('',(1.4097E0,-6.985E0,-9.1313E0));
#1442=DIRECTION('',(0.E0,0.E0,-1.E0));
#1443=DIRECTION('',(0.E0,1.E0,0.E0));
#1444=AXIS2_PLACEMENT_3D('',#1441,#1442,#1443);
#1445=PLANE('',#1444);
#1446=ORIENTED_EDGE('',*,*,#1340,.F.);
#1448=ORIENTED_EDGE('',*,*,#1447,.T.);
#1449=ORIENTED_EDGE('',*,*,#1388,.T.);
#1450=ORIENTED_EDGE('',*,*,#1434,.F.);
#1451=EDGE_LOOP('',(#1446,#1448,#1449,#1450));
#1452=FACE_OUTER_BOUND('',#1451,.F.);
#1453=ADVANCED_FACE('',(#1452),#1445,.T.);
#1454=CARTESIAN_POINT('',(1.4097E0,-6.985E0,-7.9883E0));
#1455=DIRECTION('',(0.E0,-1.E0,0.E0));
#1456=DIRECTION('',(0.E0,0.E0,-1.E0));
#1457=AXIS2_PLACEMENT_3D('',#1454,#1455,#1456);
#1458=PLANE('',#1457);
#1459=ORIENTED_EDGE('',*,*,#1338,.F.);
#1461=ORIENTED_EDGE('',*,*,#1460,.T.);
#1462=ORIENTED_EDGE('',*,*,#1390,.T.);
#1463=ORIENTED_EDGE('',*,*,#1447,.F.);
#1464=EDGE_LOOP('',(#1459,#1461,#1462,#1463));
#1465=FACE_OUTER_BOUND('',#1464,.F.);
#1466=ADVANCED_FACE('',(#1465),#1458,.T.);
#1467=CARTESIAN_POINT('',(1.4097E0,-3.1242E0,-7.9883E0));
#1468=DIRECTION('',(0.E0,0.E0,1.E0));
#1469=DIRECTION('',(0.E0,-1.E0,0.E0));
#1470=AXIS2_PLACEMENT_3D('',#1467,#1468,#1469);
#1471=PLANE('',#1470);
#1472=ORIENTED_EDGE('',*,*,#1336,.F.);
#1474=ORIENTED_EDGE('',*,*,#1473,.T.);
#1475=ORIENTED_EDGE('',*,*,#1392,.T.);
#1476=ORIENTED_EDGE('',*,*,#1460,.F.);
#1477=EDGE_LOOP('',(#1472,#1474,#1475,#1476));
#1478=FACE_OUTER_BOUND('',#1477,.F.);
#1479=ADVANCED_FACE('',(#1478),#1471,.T.);
#1480=CARTESIAN_POINT('',(1.4097E0,-3.1242E0,-6.2103E0));
#1481=DIRECTION('',(1.E0,0.E0,0.E0));
#1482=DIRECTION('',(0.E0,1.E0,0.E0));
#1483=AXIS2_PLACEMENT_3D('',#1480,#1481,#1482);
#1484=CYLINDRICAL_SURFACE('',#1483,1.778E0);
#1485=ORIENTED_EDGE('',*,*,#1334,.F.);
#1486=ORIENTED_EDGE('',*,*,#1372,.T.);
#1487=ORIENTED_EDGE('',*,*,#1394,.T.);
#1488=ORIENTED_EDGE('',*,*,#1473,.F.);
#1489=EDGE_LOOP('',(#1485,#1486,#1487,#1488));
#1490=FACE_OUTER_BOUND('',#1489,.F.);
#1491=ADVANCED_FACE('',(#1490),#1484,.F.);
#1492=CARTESIAN_POINT('',(1.4097E0,-1.3462E0,1.016E1));
#1493=DIRECTION('',(0.E0,-1.E0,0.E0));
#1494=DIRECTION('',(0.E0,0.E0,-1.E0));
#1495=AXIS2_PLACEMENT_3D('',#1492,#1493,#1494);
#1496=PLANE('',#1495);
#1497=ORIENTED_EDGE('',*,*,#1169,.F.);
#1498=ORIENTED_EDGE('',*,*,#1359,.F.);
#1500=ORIENTED_EDGE('',*,*,#1499,.T.);
#1501=ORIENTED_EDGE('',*,*,#1406,.T.);
#1502=EDGE_LOOP('',(#1497,#1498,#1500,#1501));
#1503=FACE_OUTER_BOUND('',#1502,.F.);
#1504=ADVANCED_FACE('',(#1503),#1496,.T.);
#1505=CARTESIAN_POINT('',(1.4097E0,-2.032E-1,1.016E1));
#1506=DIRECTION('',(0.E0,0.E0,1.E0));
#1507=DIRECTION('',(0.E0,-1.E0,0.E0));
#1508=AXIS2_PLACEMENT_3D('',#1505,#1506,#1507);
#1509=PLANE('',#1508);
#1510=ORIENTED_EDGE('',*,*,#1357,.F.);
#1512=ORIENTED_EDGE('',*,*,#1511,.T.);
#1513=ORIENTED_EDGE('',*,*,#1408,.T.);
#1514=ORIENTED_EDGE('',*,*,#1499,.F.);
#1515=EDGE_LOOP('',(#1510,#1512,#1513,#1514));
#1516=FACE_OUTER_BOUND('',#1515,.F.);
#1517=ADVANCED_FACE('',(#1516),#1509,.T.);
#1518=CARTESIAN_POINT('',(1.4097E0,-2.032E-1,0.E0));
#1519=DIRECTION('',(0.E0,1.E0,0.E0));
#1520=DIRECTION('',(0.E0,0.E0,1.E0));
#1521=AXIS2_PLACEMENT_3D('',#1518,#1519,#1520);
#1522=PLANE('',#1521);
#1523=ORIENTED_EDGE('',*,*,#1173,.T.);
#1524=ORIENTED_EDGE('',*,*,#1410,.T.);
#1525=ORIENTED_EDGE('',*,*,#1511,.F.);
#1526=ORIENTED_EDGE('',*,*,#1355,.F.);
#1527=EDGE_LOOP('',(#1523,#1524,#1525,#1526));
#1528=FACE_OUTER_BOUND('',#1527,.F.);
#1529=ADVANCED_FACE('',(#1528),#1522,.T.);
#1530=CARTESIAN_POINT('',(-2.5527E0,0.E0,0.E0));
#1531=DIRECTION('',(1.E0,0.E0,0.E0));
#1532=DIRECTION('',(0.E0,1.E0,0.E0));
#1533=AXIS2_PLACEMENT_3D('',#1530,#1531,#1532);
#1534=PLANE('',#1533);
#1535=ORIENTED_EDGE('',*,*,#1001,.F.);
#1537=ORIENTED_EDGE('',*,*,#1536,.T.);
#1539=ORIENTED_EDGE('',*,*,#1538,.T.);
#1541=ORIENTED_EDGE('',*,*,#1540,.T.);
#1543=ORIENTED_EDGE('',*,*,#1542,.T.);
#1545=ORIENTED_EDGE('',*,*,#1544,.T.);
#1547=ORIENTED_EDGE('',*,*,#1546,.T.);
#1549=ORIENTED_EDGE('',*,*,#1548,.T.);
#1550=EDGE_LOOP('',(#1535,#1537,#1539,#1541,#1543,#1545,#1547,#1549));
#1551=FACE_OUTER_BOUND('',#1550,.F.);
#1552=ADVANCED_FACE('',(#1551),#1534,.F.);
#1553=CARTESIAN_POINT('',(-2.5527E0,0.E0,0.E0));
#1554=DIRECTION('',(1.E0,0.E0,0.E0));
#1555=DIRECTION('',(0.E0,1.E0,0.E0));
#1556=AXIS2_PLACEMENT_3D('',#1553,#1554,#1555);
#1557=PLANE('',#1556);
#1558=ORIENTED_EDGE('',*,*,#1177,.T.);
#1560=ORIENTED_EDGE('',*,*,#1559,.T.);
#1562=ORIENTED_EDGE('',*,*,#1561,.T.);
#1564=ORIENTED_EDGE('',*,*,#1563,.T.);
#1565=EDGE_LOOP('',(#1558,#1560,#1562,#1564));
#1566=FACE_OUTER_BOUND('',#1565,.F.);
#1567=ADVANCED_FACE('',(#1566),#1557,.F.);
#1568=CARTESIAN_POINT('',(-2.5527E0,-1.3462E0,-2.54E0));
#1569=DIRECTION('',(0.E0,-1.E0,0.E0));
#1570=DIRECTION('',(0.E0,0.E0,-1.E0));
#1571=AXIS2_PLACEMENT_3D('',#1568,#1569,#1570);
#1572=PLANE('',#1571);
#1573=ORIENTED_EDGE('',*,*,#1007,.T.);
#1575=ORIENTED_EDGE('',*,*,#1574,.T.);
#1577=ORIENTED_EDGE('',*,*,#1576,.F.);
#1578=ORIENTED_EDGE('',*,*,#1536,.F.);
#1579=EDGE_LOOP('',(#1573,#1575,#1577,#1578));
#1580=FACE_OUTER_BOUND('',#1579,.F.);
#1581=ADVANCED_FACE('',(#1580),#1572,.T.);
#1582=CARTESIAN_POINT('',(-1.4097E0,0.E0,0.E0));
#1583=DIRECTION('',(1.E0,0.E0,0.E0));
#1584=DIRECTION('',(0.E0,1.E0,0.E0));
#1585=AXIS2_PLACEMENT_3D('',#1582,#1583,#1584);
#1586=PLANE('',#1585);
#1587=ORIENTED_EDGE('',*,*,#1005,.T.);
#1589=ORIENTED_EDGE('',*,*,#1588,.F.);
#1591=ORIENTED_EDGE('',*,*,#1590,.F.);
#1593=ORIENTED_EDGE('',*,*,#1592,.F.);
#1595=ORIENTED_EDGE('',*,*,#1594,.F.);
#1597=ORIENTED_EDGE('',*,*,#1596,.F.);
#1599=ORIENTED_EDGE('',*,*,#1598,.F.);
#1600=ORIENTED_EDGE('',*,*,#1574,.F.);
#1601=EDGE_LOOP('',(#1587,#1589,#1591,#1593,#1595,#1597,#1599,#1600));
#1602=FACE_OUTER_BOUND('',#1601,.F.);
#1603=ADVANCED_FACE('',(#1602),#1586,.T.);
#1604=CARTESIAN_POINT('',(-1.4097E0,0.E0,0.E0));
#1605=DIRECTION('',(1.E0,0.E0,0.E0));
#1606=DIRECTION('',(0.E0,1.E0,0.E0));
#1607=AXIS2_PLACEMENT_3D('',#1604,#1605,#1606);
#1608=PLANE('',#1607);
#1609=ORIENTED_EDGE('',*,*,#1181,.F.);
#1611=ORIENTED_EDGE('',*,*,#1610,.F.);
#1613=ORIENTED_EDGE('',*,*,#1612,.F.);
#1615=ORIENTED_EDGE('',*,*,#1614,.F.);
#1616=EDGE_LOOP('',(#1609,#1611,#1613,#1615));
#1617=FACE_OUTER_BOUND('',#1616,.F.);
#1618=ADVANCED_FACE('',(#1617),#1608,.T.);
#1619=CARTESIAN_POINT('',(-2.5527E0,-2.032E-1,-6.2103E0));
#1620=DIRECTION('',(0.E0,1.E0,0.E0));
#1621=DIRECTION('',(0.E0,0.E0,1.E0));
#1622=AXIS2_PLACEMENT_3D('',#1619,#1620,#1621);
#1623=PLANE('',#1622);
#1624=ORIENTED_EDGE('',*,*,#1003,.F.);
#1625=ORIENTED_EDGE('',*,*,#1548,.F.);
#1627=ORIENTED_EDGE('',*,*,#1626,.T.);
#1628=ORIENTED_EDGE('',*,*,#1588,.T.);
#1629=EDGE_LOOP('',(#1624,#1625,#1627,#1628));
#1630=FACE_OUTER_BOUND('',#1629,.F.);
#1631=ADVANCED_FACE('',(#1630),#1623,.T.);
#1632=CARTESIAN_POINT('',(-2.5527E0,-3.1242E0,-6.2103E0));
#1633=DIRECTION('',(1.E0,0.E0,0.E0));
#1634=DIRECTION('',(0.E0,1.E0,0.E0));
#1635=AXIS2_PLACEMENT_3D('',#1632,#1633,#1634);
#1636=CYLINDRICAL_SURFACE('',#1635,2.921E0);
#1637=ORIENTED_EDGE('',*,*,#1546,.F.);
#1639=ORIENTED_EDGE('',*,*,#1638,.T.);
#1640=ORIENTED_EDGE('',*,*,#1590,.T.);
#1641=ORIENTED_EDGE('',*,*,#1626,.F.);
#1642=EDGE_LOOP('',(#1637,#1639,#1640,#1641));
#1643=FACE_OUTER_BOUND('',#1642,.F.);
#1644=ADVANCED_FACE('',(#1643),#1636,.T.);
#1645=CARTESIAN_POINT('',(-2.5527E0,-6.985E0,-9.1313E0));
#1646=DIRECTION('',(0.E0,0.E0,-1.E0));
#1647=DIRECTION('',(0.E0,1.E0,0.E0));
#1648=AXIS2_PLACEMENT_3D('',#1645,#1646,#1647);
#1649=PLANE('',#1648);
#1650=ORIENTED_EDGE('',*,*,#1544,.F.);
#1652=ORIENTED_EDGE('',*,*,#1651,.T.);
#1653=ORIENTED_EDGE('',*,*,#1592,.T.);
#1654=ORIENTED_EDGE('',*,*,#1638,.F.);
#1655=EDGE_LOOP('',(#1650,#1652,#1653,#1654));
#1656=FACE_OUTER_BOUND('',#1655,.F.);
#1657=ADVANCED_FACE('',(#1656),#1649,.T.);
#1658=CARTESIAN_POINT('',(-2.5527E0,-6.985E0,-7.9883E0));
#1659=DIRECTION('',(0.E0,-1.E0,0.E0));
#1660=DIRECTION('',(0.E0,0.E0,-1.E0));
#1661=AXIS2_PLACEMENT_3D('',#1658,#1659,#1660);
#1662=PLANE('',#1661);
#1663=ORIENTED_EDGE('',*,*,#1542,.F.);
#1665=ORIENTED_EDGE('',*,*,#1664,.T.);
#1666=ORIENTED_EDGE('',*,*,#1594,.T.);
#1667=ORIENTED_EDGE('',*,*,#1651,.F.);
#1668=EDGE_LOOP('',(#1663,#1665,#1666,#1667));
#1669=FACE_OUTER_BOUND('',#1668,.F.);
#1670=ADVANCED_FACE('',(#1669),#1662,.T.);
#1671=CARTESIAN_POINT('',(-2.5527E0,-3.1242E0,-7.9883E0));
#1672=DIRECTION('',(0.E0,0.E0,1.E0));
#1673=DIRECTION('',(0.E0,-1.E0,0.E0));
#1674=AXIS2_PLACEMENT_3D('',#1671,#1672,#1673);
#1675=PLANE('',#1674);
#1676=ORIENTED_EDGE('',*,*,#1540,.F.);
#1678=ORIENTED_EDGE('',*,*,#1677,.T.);
#1679=ORIENTED_EDGE('',*,*,#1596,.T.);
#1680=ORIENTED_EDGE('',*,*,#1664,.F.);
#1681=EDGE_LOOP('',(#1676,#1678,#1679,#1680));
#1682=FACE_OUTER_BOUND('',#1681,.F.);
#1683=ADVANCED_FACE('',(#1682),#1675,.T.);
#1684=CARTESIAN_POINT('',(-2.5527E0,-3.1242E0,-6.2103E0));
#1685=DIRECTION('',(1.E0,0.E0,0.E0));
#1686=DIRECTION('',(0.E0,1.E0,0.E0));
#1687=AXIS2_PLACEMENT_3D('',#1684,#1685,#1686);
#1688=CYLINDRICAL_SURFACE('',#1687,1.778E0);
#1689=ORIENTED_EDGE('',*,*,#1538,.F.);
#1690=ORIENTED_EDGE('',*,*,#1576,.T.);
#1691=ORIENTED_EDGE('',*,*,#1598,.T.);
#1692=ORIENTED_EDGE('',*,*,#1677,.F.);
#1693=EDGE_LOOP('',(#1689,#1690,#1691,#1692));
#1694=FACE_OUTER_BOUND('',#1693,.F.);
#1695=ADVANCED_FACE('',(#1694),#1688,.F.);
#1696=CARTESIAN_POINT('',(-2.5527E0,-1.3462E0,1.016E1));
#1697=DIRECTION('',(0.E0,-1.E0,0.E0));
#1698=DIRECTION('',(0.E0,0.E0,-1.E0));
#1699=AXIS2_PLACEMENT_3D('',#1696,#1697,#1698);
#1700=PLANE('',#1699);
#1701=ORIENTED_EDGE('',*,*,#1179,.F.);
#1702=ORIENTED_EDGE('',*,*,#1563,.F.);
#1704=ORIENTED_EDGE('',*,*,#1703,.T.);
#1705=ORIENTED_EDGE('',*,*,#1610,.T.);
#1706=EDGE_LOOP('',(#1701,#1702,#1704,#1705));
#1707=FACE_OUTER_BOUND('',#1706,.F.);
#1708=ADVANCED_FACE('',(#1707),#1700,.T.);
#1709=CARTESIAN_POINT('',(-2.5527E0,-2.032E-1,1.016E1));
#1710=DIRECTION('',(0.E0,0.E0,1.E0));
#1711=DIRECTION('',(0.E0,-1.E0,0.E0));
#1712=AXIS2_PLACEMENT_3D('',#1709,#1710,#1711);
#1713=PLANE('',#1712);
#1714=ORIENTED_EDGE('',*,*,#1561,.F.);
#1716=ORIENTED_EDGE('',*,*,#1715,.T.);
#1717=ORIENTED_EDGE('',*,*,#1612,.T.);
#1718=ORIENTED_EDGE('',*,*,#1703,.F.);
#1719=EDGE_LOOP('',(#1714,#1716,#1717,#1718));
#1720=FACE_OUTER_BOUND('',#1719,.F.);
#1721=ADVANCED_FACE('',(#1720),#1713,.T.);
#1722=CARTESIAN_POINT('',(-2.5527E0,-2.032E-1,0.E0));
#1723=DIRECTION('',(0.E0,1.E0,0.E0));
#1724=DIRECTION('',(0.E0,0.E0,1.E0));
#1725=AXIS2_PLACEMENT_3D('',#1722,#1723,#1724);
#1726=PLANE('',#1725);
#1727=ORIENTED_EDGE('',*,*,#1183,.T.);
#1728=ORIENTED_EDGE('',*,*,#1614,.T.);
#1729=ORIENTED_EDGE('',*,*,#1715,.F.);
#1730=ORIENTED_EDGE('',*,*,#1559,.F.);
#1731=EDGE_LOOP('',(#1727,#1728,#1729,#1730));
#1732=FACE_OUTER_BOUND('',#1731,.F.);
#1733=ADVANCED_FACE('',(#1732),#1726,.T.);
#1734=CARTESIAN_POINT('',(-1.9812E0,1.651E0,0.E0));
#1735=DIRECTION('',(1.E0,0.E0,0.E0));
#1736=DIRECTION('',(0.E0,1.E0,0.E0));
#1737=AXIS2_PLACEMENT_3D('',#1734,#1735,#1736);
#1738=PLANE('',#1737);
#1739=ORIENTED_EDGE('',*,*,#1052,.F.);
#1741=ORIENTED_EDGE('',*,*,#1740,.F.);
#1743=ORIENTED_EDGE('',*,*,#1742,.F.);
#1745=ORIENTED_EDGE('',*,*,#1744,.F.);
#1747=ORIENTED_EDGE('',*,*,#1746,.F.);
#1748=ORIENTED_EDGE('',*,*,#1103,.T.);
#1749=ORIENTED_EDGE('',*,*,#1084,.T.);
#1750=EDGE_LOOP('',(#1739,#1741,#1743,#1745,#1747,#1748,#1749));
#1751=FACE_OUTER_BOUND('',#1750,.F.);
#1752=ADVANCED_FACE('',(#1751),#1738,.F.);
#1753=CARTESIAN_POINT('',(3.9624E0,3.302E0,7.112E0));
#1754=DIRECTION('',(-1.E0,0.E0,0.E0));
#1755=DIRECTION('',(0.E0,-1.E0,0.E0));
#1756=AXIS2_PLACEMENT_3D('',#1753,#1754,#1755);
#1757=CYLINDRICAL_SURFACE('',#1756,5.08E-1);
#1759=ORIENTED_EDGE('',*,*,#1758,.T.);
#1760=ORIENTED_EDGE('',*,*,#1740,.T.);
#1761=ORIENTED_EDGE('',*,*,#1050,.F.);
#1763=ORIENTED_EDGE('',*,*,#1762,.F.);
#1764=EDGE_LOOP('',(#1759,#1760,#1761,#1763));
#1765=FACE_OUTER_BOUND('',#1764,.F.);
#1766=ADVANCED_FACE('',(#1765),#1757,.T.);
#1767=CARTESIAN_POINT('',(3.9624E0,1.651E0,7.62E0));
#1768=DIRECTION('',(0.E0,0.E0,1.E0));
#1769=DIRECTION('',(0.E0,1.E0,0.E0));
#1770=AXIS2_PLACEMENT_3D('',#1767,#1768,#1769);
#1771=PLANE('',#1770);
#1772=ORIENTED_EDGE('',*,*,#1758,.F.);
#1774=ORIENTED_EDGE('',*,*,#1773,.F.);
#1776=ORIENTED_EDGE('',*,*,#1775,.T.);
#1777=ORIENTED_EDGE('',*,*,#1742,.T.);
#1778=EDGE_LOOP('',(#1772,#1774,#1776,#1777));
#1779=FACE_OUTER_BOUND('',#1778,.F.);
#1780=ADVANCED_FACE('',(#1779),#1771,.T.);
#1781=CARTESIAN_POINT('',(1.9812E0,3.81E0,0.E0));
#1782=DIRECTION('',(-1.E0,0.E0,0.E0));
#1783=DIRECTION('',(0.E0,-1.E0,0.E0));
#1784=AXIS2_PLACEMENT_3D('',#1781,#1782,#1783);
#1785=PLANE('',#1784);
#1786=ORIENTED_EDGE('',*,*,#1048,.T.);
#1787=ORIENTED_EDGE('',*,*,#1070,.T.);
#1788=ORIENTED_EDGE('',*,*,#1107,.F.);
#1790=ORIENTED_EDGE('',*,*,#1789,.T.);
#1792=ORIENTED_EDGE('',*,*,#1791,.T.);
#1793=ORIENTED_EDGE('',*,*,#1773,.T.);
#1794=ORIENTED_EDGE('',*,*,#1762,.T.);
#1795=EDGE_LOOP('',(#1786,#1787,#1788,#1790,#1792,#1793,#1794));
#1796=FACE_OUTER_BOUND('',#1795,.F.);
#1797=ADVANCED_FACE('',(#1796),#1785,.F.);
#1798=CARTESIAN_POINT('',(3.9624E0,2.8575E0,2.0066E0));
#1799=DIRECTION('',(0.E0,-8.660254037844E-1,-5.E-1));
#1800=DIRECTION('',(0.E0,-5.E-1,8.660254037844E-1));
#1801=AXIS2_PLACEMENT_3D('',#1798,#1799,#1800);
#1802=PLANE('',#1801);
#1803=ORIENTED_EDGE('',*,*,#1105,.T.);
#1804=ORIENTED_EDGE('',*,*,#1746,.T.);
#1806=ORIENTED_EDGE('',*,*,#1805,.F.);
#1807=ORIENTED_EDGE('',*,*,#1789,.F.);
#1808=EDGE_LOOP('',(#1803,#1804,#1806,#1807));
#1809=FACE_OUTER_BOUND('',#1808,.F.);
#1810=ADVANCED_FACE('',(#1809),#1802,.T.);
#1811=CARTESIAN_POINT('',(3.9624E0,1.651E0,4.096319299332E0));
#1812=DIRECTION('',(0.E0,-1.E0,0.E0));
#1813=DIRECTION('',(0.E0,0.E0,1.E0));
#1814=AXIS2_PLACEMENT_3D('',#1811,#1812,#1813);
#1815=PLANE('',#1814);
#1816=ORIENTED_EDGE('',*,*,#1791,.F.);
#1817=ORIENTED_EDGE('',*,*,#1805,.T.);
#1818=ORIENTED_EDGE('',*,*,#1744,.T.);
#1819=ORIENTED_EDGE('',*,*,#1775,.F.);
#1820=EDGE_LOOP('',(#1816,#1817,#1818,#1819));
#1821=FACE_OUTER_BOUND('',#1820,.F.);
#1822=ADVANCED_FACE('',(#1821),#1815,.T.);
#1823=CLOSED_SHELL('',(#927,#947,#962,#1011,#1025,#1039,#1061,#1075,#1090,#1111,
#1125,#1139,#1187,#1200,#1212,#1226,#1240,#1253,#1268,#1287,#1300,#1313,#1325,
#1348,#1363,#1377,#1399,#1414,#1427,#1440,#1453,#1466,#1479,#1491,#1504,#1517,
#1529,#1552,#1567,#1581,#1603,#1618,#1631,#1644,#1657,#1670,#1683,#1695,#1708,
#1721,#1733,#1752,#1766,#1780,#1797,#1810,#1822));
#1824=MANIFOLD_SOLID_BREP('',#1823);
#1826=DIMENSIONAL_EXPONENTS(0.E0,0.E0,0.E0,0.E0,0.E0,0.E0,0.E0);
#1828=PLANE_ANGLE_MEASURE_WITH_UNIT(PLANE_ANGLE_MEASURE(1.745329251994E-2),
#1827);
#1829=(CONVERSION_BASED_UNIT('DEGREE',#1828)NAMED_UNIT(#1826)PLANE_ANGLE_UNIT(
));
#1831=UNCERTAINTY_MEASURE_WITH_UNIT(LENGTH_MEASURE(2.348285795029E-3),#1825,
'distance_accuracy_value',
'Maximum model space distance between geometric entities at asserted connectivities');
#1832=(GEOMETRIC_REPRESENTATION_CONTEXT(3)GLOBAL_UNCERTAINTY_ASSIGNED_CONTEXT((
#1831))GLOBAL_UNIT_ASSIGNED_CONTEXT((#1825,#1829,#1830))REPRESENTATION_CONTEXT(
'ID1','3'));
#1834=APPLICATION_CONTEXT('automotive_design');
#1835=APPLICATION_PROTOCOL_DEFINITION('international standard',
'automotive_design',2001,#1834);
#1836=PRODUCT_DEFINITION_CONTEXT('part definition',#1834,'design');
#1837=PRODUCT_CONTEXT('',#1834,'mechanical');
#1838=PRODUCT('C-640389-2','C-640389-2','NOT SPECIFIED',(#1837));
#1839=PRODUCT_DEFINITION_FORMATION('1','LAST_VERSION',#1838);
#1847=DERIVED_UNIT_ELEMENT(#1846,2.E0);
#1848=DERIVED_UNIT((#1847));
#1849=MEASURE_REPRESENTATION_ITEM('surface area measure',AREA_MEASURE(
5.184777597173E2),#1848);
#1854=DERIVED_UNIT_ELEMENT(#1853,3.E0);
#1855=DERIVED_UNIT((#1854));
#1856=MEASURE_REPRESENTATION_ITEM('volume measure',VOLUME_MEASURE(
2.557958614761E2),#1855);
#1860=CARTESIAN_POINT('centre point',(-3.636798779408E-14,1.519477450956E-1,
-2.620705455477E-1));
#1865=DERIVED_UNIT_ELEMENT(#1864,2.E0);
#1866=DERIVED_UNIT((#1865));
#1867=MEASURE_REPRESENTATION_ITEM('surface area measure',AREA_MEASURE(
5.184777597173E2),#1866);
#1872=DERIVED_UNIT_ELEMENT(#1871,3.E0);
#1873=DERIVED_UNIT((#1872));
#1874=MEASURE_REPRESENTATION_ITEM('volume measure',VOLUME_MEASURE(
2.557958614761E2),#1873);
#1878=CARTESIAN_POINT('centre point',(-3.636798779408E-14,1.519477450956E-1,
-2.620705455477E-1));
#1883=PRODUCT_RELATED_PRODUCT_CATEGORY('part','',(#1838));
#1885=GENERAL_PROPERTY('user defined attribute','','');
#1886=GENERAL_PROPERTY_ASSOCIATION('user defined attribute','',#1885,#1884);
#1887=DESCRIPTIVE_REPRESENTATION_ITEM('PART_NO','640389');
#1891=GENERAL_PROPERTY('user defined attribute','','');
#1892=GENERAL_PROPERTY_ASSOCIATION('user defined attribute','',#1891,#1890);
#1893=DESCRIPTIVE_REPRESENTATION_ITEM('DWG_TITLE',
'MTA-156 HEADER ASSEMBLY, FRICTION LOCK, RIGHT');
#1897=GENERAL_PROPERTY('user defined attribute','','');
#1898=GENERAL_PROPERTY_ASSOCIATION('user defined attribute','',#1897,#1896);
#1899=DESCRIPTIVE_REPRESENTATION_ITEM('DWG_TITLE_2',
'ANGLE,FRONT BEND .045 SQUARE POST,TIN PLATED');
#1903=GENERAL_PROPERTY('user defined attribute','','');
#1904=GENERAL_PROPERTY_ASSOCIATION('user defined attribute','',#1903,#1902);
#1905=DESCRIPTIVE_REPRESENTATION_ITEM('DESC',
'MTA-156 HEADER ASSEMBLY, FRICTION LOCK, RIGHT ANGLE,FRONT BEND .045 SQUARE POST,');
#1909=GENERAL_PROPERTY('user defined attribute','','');
#1910=GENERAL_PROPERTY_ASSOCIATION('user defined attribute','',#1909,#1908);
#1911=DESCRIPTIVE_REPRESENTATION_ITEM('TIR','A');
#1915=GENERAL_PROPERTY('user defined attribute','','');
#1916=GENERAL_PROPERTY_ASSOCIATION('user defined attribute','',#1915,#1914);
#1917=DESCRIPTIVE_REPRESENTATION_ITEM('DOC_STATUS','Active');
#1921=GENERAL_PROPERTY('user defined attribute','','');
#1922=GENERAL_PROPERTY_ASSOCIATION('user defined attribute','',#1921,#1920);
#1923=DESCRIPTIVE_REPRESENTATION_ITEM('MOD_NUM','MOD41993');
#1927=GENERAL_PROPERTY('user defined attribute','','');
#1928=GENERAL_PROPERTY_ASSOCIATION('user defined attribute','',#1927,#1926);
#1929=DESCRIPTIVE_REPRESENTATION_ITEM('PDMREV','0+');
#1933=GENERAL_PROPERTY('user defined attribute','','');
#1934=GENERAL_PROPERTY_ASSOCIATION('user defined attribute','',#1933,#1932);
#1935=DESCRIPTIVE_REPRESENTATION_ITEM('PDMDB','');
#1939=GENERAL_PROPERTY('user defined attribute','','');
#1940=GENERAL_PROPERTY_ASSOCIATION('user defined attribute','',#1939,#1938);
#1941=DESCRIPTIVE_REPRESENTATION_ITEM('PDMRL','');
#1945=GENERAL_PROPERTY('user defined attribute','','');
#1946=GENERAL_PROPERTY_ASSOCIATION('user defined attribute','',#1945,#1944);
#1947=DESCRIPTIVE_REPRESENTATION_ITEM('PROI_REVISION','');
#1951=GENERAL_PROPERTY('user defined attribute','','');
#1952=GENERAL_PROPERTY_ASSOCIATION('user defined attribute','',#1951,#1950);
#1953=DESCRIPTIVE_REPRESENTATION_ITEM('PROI_VERSION','0');
#1957=GENERAL_PROPERTY('user defined attribute','','');
#1958=GENERAL_PROPERTY_ASSOCIATION('user defined attribute','',#1957,#1956);
#1959=DESCRIPTIVE_REPRESENTATION_ITEM('PROI_BRANCH','');
#1963=GENERAL_PROPERTY('user defined attribute','','');
#1964=GENERAL_PROPERTY_ASSOCIATION('user defined attribute','',#1963,#1962);
#1965=DESCRIPTIVE_REPRESENTATION_ITEM('PROI_RELEASE','');
#1969=GENERAL_PROPERTY('user defined attribute','','');
#1970=GENERAL_PROPERTY_ASSOCIATION('user defined attribute','',#1969,#1968);
#1971=DESCRIPTIVE_REPRESENTATION_ITEM('PTC_MODIFIED','NO');
#1975=GENERAL_PROPERTY('user defined attribute','','');
#1976=GENERAL_PROPERTY_ASSOCIATION('user defined attribute','',#1975,#1974);
#1977=DESCRIPTIVE_REPRESENTATION_ITEM('PROI_CREATED_BY','');
#1981=GENERAL_PROPERTY('user defined attribute','','');
#1982=GENERAL_PROPERTY_ASSOCIATION('user defined attribute','',#1981,#1980);
#1983=DESCRIPTIVE_REPRESENTATION_ITEM('PROI_CREATED_ON','11/6/2007 2:43:12 PM');
#1987=GENERAL_PROPERTY('user defined attribute','','');
#1988=GENERAL_PROPERTY_ASSOCIATION('user defined attribute','',#1987,#1986);
#1989=DESCRIPTIVE_REPRESENTATION_ITEM('PROI_LOCATION','');
#1993=GENERAL_PROPERTY('user defined attribute','','');
#1994=GENERAL_PROPERTY_ASSOCIATION('user defined attribute','',#1993,#1992);
#1995=DESCRIPTIVE_REPRESENTATION_ITEM('PTC_COMMON_NAME','c-640389-2.prt');
#1999=GENERAL_PROPERTY('user defined attribute','','');
#2000=GENERAL_PROPERTY_ASSOCIATION('user defined attribute','',#1999,#1998);
#2001=DESCRIPTIVE_REPRESENTATION_ITEM('PTC_ORGANIZATION_ID','TE');
#2005=GENERAL_PROPERTY('user defined attribute','','');
#2006=GENERAL_PROPERTY_ASSOCIATION('user defined attribute','',#2005,#2004);
#2007=DESCRIPTIVE_REPRESENTATION_ITEM('PTC_WM_REVISION','GN1');
#2011=GENERAL_PROPERTY('user defined attribute','','');
#2012=GENERAL_PROPERTY_ASSOCIATION('user defined attribute','',#2011,#2010);
#2013=DESCRIPTIVE_REPRESENTATION_ITEM('PTC_WM_ITERATION','0');
#2017=GENERAL_PROPERTY('user defined attribute','','');
#2018=GENERAL_PROPERTY_ASSOCIATION('user defined attribute','',#2017,#2016);
#2019=DESCRIPTIVE_REPRESENTATION_ITEM('PTC_WM_VERSION','GN1.0');
#2023=GENERAL_PROPERTY('user defined attribute','','');
#2024=GENERAL_PROPERTY_ASSOCIATION('user defined attribute','',#2023,#2022);
#2025=DESCRIPTIVE_REPRESENTATION_ITEM('PTC_WM_LIFECYCLE_STATE','Concept');
#2029=GENERAL_PROPERTY('user defined attribute','','');
#2030=GENERAL_PROPERTY_ASSOCIATION('user defined attribute','',#2029,#2028);
#2031=DESCRIPTIVE_REPRESENTATION_ITEM('PTC_WM_LIFECYCLE',
'TE Standard Lifecycle');
#2035=GENERAL_PROPERTY('user defined attribute','','');
#2036=GENERAL_PROPERTY_ASSOCIATION('user defined attribute','',#2035,#2034);
#2037=DESCRIPTIVE_REPRESENTATION_ITEM('PTC_WM_LOCATION','');
#2041=GENERAL_PROPERTY('user defined attribute','','');
#2042=GENERAL_PROPERTY_ASSOCIATION('user defined attribute','',#2041,#2040);
#2043=DESCRIPTIVE_REPRESENTATION_ITEM('PTC_WM_CREATED_BY','Subramanya, N L');
#2047=GENERAL_PROPERTY('user defined attribute','','');
#2048=GENERAL_PROPERTY_ASSOCIATION('user defined attribute','',#2047,#2046);
#2049=DESCRIPTIVE_REPRESENTATION_ITEM('PTC_WM_CREATED_ON',
'18-Oct-12 09:17:58 AM');
#2053=GENERAL_PROPERTY('user defined attribute','','');
#2054=GENERAL_PROPERTY_ASSOCIATION('user defined attribute','',#2053,#2052);
#2055=DESCRIPTIVE_REPRESENTATION_ITEM('PTC_WM_MODIFIED_BY','Subramanya, N L');
#2059=GENERAL_PROPERTY('user defined attribute','','');
#2060=GENERAL_PROPERTY_ASSOCIATION('user defined attribute','',#2059,#2058);
#2061=DESCRIPTIVE_REPRESENTATION_ITEM('PTC_WM_MODIFIED_ON',
'18-Oct-12 09:33:18 AM');
#2065=GENERAL_PROPERTY('user defined attribute','','');
#2066=GENERAL_PROPERTY_ASSOCIATION('user defined attribute','',#2065,#2064);
#2067=DESCRIPTIVE_REPRESENTATION_ITEM('PTC_WM_TEAM','');
#2071=GENERAL_PROPERTY('user defined attribute','','');
#2072=GENERAL_PROPERTY_ASSOCIATION('user defined attribute','',#2071,#2070);
#2073=DESCRIPTIVE_REPRESENTATION_ITEM('PART_REV','AG');
#2077=GENERAL_PROPERTY('user defined attribute','','');
#2078=GENERAL_PROPERTY_ASSOCIATION('user defined attribute','',#2077,#2076);
#2079=DESCRIPTIVE_REPRESENTATION_ITEM('COMMENTS','-');
#88=CIRCLE('',#87,7.62E-1);
#397=CIRCLE('',#396,7.62E-1);
#422=CIRCLE('',#421,1.778E0);
#439=CIRCLE('',#438,2.921E0);
#464=CIRCLE('',#463,2.921E0);
#481=CIRCLE('',#480,1.778E0);
#538=CIRCLE('',#537,1.778E0);
#555=CIRCLE('',#554,2.921E0);
#580=CIRCLE('',#579,2.921E0);
#597=CIRCLE('',#596,1.778E0);
#654=CIRCLE('',#653,5.08E-1);
#659=CIRCLE('',#658,5.08E-1);
#905=EDGE_CURVE('',#870,#871,#75,.T.);
#907=EDGE_CURVE('',#871,#746,#79,.T.);
#909=EDGE_CURVE('',#746,#747,#83,.T.);
#911=EDGE_CURVE('',#747,#749,#88,.T.);
#913=EDGE_CURVE('',#749,#737,#92,.T.);
#915=EDGE_CURVE('',#725,#737,#96,.T.);
#917=EDGE_CURVE('',#725,#710,#100,.T.);
#919=EDGE_CURVE('',#710,#711,#104,.T.);
#921=EDGE_CURVE('',#711,#713,#108,.T.);
#923=EDGE_CURVE('',#713,#870,#112,.T.);
#933=EDGE_CURVE('',#874,#875,#116,.T.);
#935=EDGE_CURVE('',#874,#715,#120,.T.);
#937=EDGE_CURVE('',#715,#698,#124,.T.);
#939=EDGE_CURVE('',#698,#699,#128,.T.);
#941=EDGE_CURVE('',#699,#701,#132,.T.);
#943=EDGE_CURVE('',#701,#875,#136,.T.);
#954=EDGE_CURVE('',#870,#885,#140,.T.);
#956=EDGE_CURVE('',#893,#885,#324,.T.);
#958=EDGE_CURVE('',#871,#893,#264,.T.);
#970=EDGE_CURVE('',#713,#721,#144,.T.);
#972=EDGE_CURVE('',#721,#882,#372,.T.);
#974=EDGE_CURVE('',#882,#891,#148,.T.);
#976=EDGE_CURVE('',#889,#891,#152,.T.);
#978=EDGE_CURVE('',#878,#889,#156,.T.);
#980=EDGE_CURVE('',#878,#723,#364,.T.);
#982=EDGE_CURVE('',#715,#723,#340,.T.);
#985=EDGE_CURVE('',#874,#887,#160,.T.);
#987=EDGE_CURVE('',#885,#887,#164,.T.);
#991=EDGE_CURVE('',#806,#807,#168,.T.);
#993=EDGE_CURVE('',#807,#811,#172,.T.);
#995=EDGE_CURVE('',#810,#811,#176,.T.);
#997=EDGE_CURVE('',#806,#810,#180,.T.);
#1001=EDGE_CURVE('',#854,#855,#184,.T.);
#1003=EDGE_CURVE('',#855,#859,#188,.T.);
#1005=EDGE_CURVE('',#858,#859,#192,.T.);
#1007=EDGE_CURVE('',#854,#858,#196,.T.);
#1018=EDGE_CURVE('',#711,#719,#200,.T.);
#1020=EDGE_CURVE('',#719,#721,#376,.T.);
#1032=EDGE_CURVE('',#710,#718,#204,.T.);
#1034=EDGE_CURVE('',#718,#719,#380,.T.);
#1046=EDGE_CURVE('',#725,#741,#208,.T.);
#1048=EDGE_CURVE('',#734,#741,#212,.T.);
#1050=EDGE_CURVE('',#734,#735,#216,.T.);
#1052=EDGE_CURVE('',#735,#743,#220,.T.);
#1054=EDGE_CURVE('',#743,#727,#224,.T.);
#1056=EDGE_CURVE('',#727,#718,#384,.T.);
#1068=EDGE_CURVE('',#737,#757,#236,.T.);
#1070=EDGE_CURVE('',#741,#757,#228,.T.);
#1081=EDGE_CURVE('',#727,#739,#388,.T.);
#1084=EDGE_CURVE('',#759,#743,#232,.T.);
#1086=EDGE_CURVE('',#759,#739,#244,.T.);
#1098=EDGE_CURVE('',#749,#755,#240,.T.);
#1100=EDGE_CURVE('',#755,#739,#392,.T.);
#1103=EDGE_CURVE('',#763,#759,#248,.T.);
#1105=EDGE_CURVE('',#762,#763,#675,.T.);
#1107=EDGE_CURVE('',#762,#757,#252,.T.);
#1118=EDGE_CURVE('',#747,#753,#256,.T.);
#1120=EDGE_CURVE('',#753,#755,#397,.T.);
#1132=EDGE_CURVE('',#746,#752,#260,.T.);
#1134=EDGE_CURVE('',#752,#753,#401,.T.);
#1146=EDGE_CURVE('',#893,#895,#268,.T.);
#1148=EDGE_CURVE('',#875,#895,#272,.T.);
#1151=EDGE_CURVE('',#701,#707,#276,.T.);
#1153=EDGE_CURVE('',#707,#879,#348,.T.);
#1155=EDGE_CURVE('',#879,#897,#280,.T.);
#1157=EDGE_CURVE('',#897,#899,#284,.T.);
#1159=EDGE_CURVE('',#883,#899,#288,.T.);
#1161=EDGE_CURVE('',#883,#752,#405,.T.);
#1167=EDGE_CURVE('',#814,#815,#292,.T.);
#1169=EDGE_CURVE('',#814,#818,#296,.T.);
#1171=EDGE_CURVE('',#818,#819,#300,.T.);
#1173=EDGE_CURVE('',#815,#819,#304,.T.);
#1177=EDGE_CURVE('',#862,#863,#308,.T.);
#1179=EDGE_CURVE('',#862,#866,#312,.T.);
#1181=EDGE_CURVE('',#866,#867,#316,.T.);
#1183=EDGE_CURVE('',#863,#867,#320,.T.);
#1194=EDGE_CURVE('',#895,#887,#328,.T.);
#1219=EDGE_CURVE('',#699,#705,#332,.T.);
#1221=EDGE_CURVE('',#705,#707,#352,.T.);
#1233=EDGE_CURVE('',#698,#704,#336,.T.);
#1235=EDGE_CURVE('',#704,#705,#356,.T.);
#1248=EDGE_CURVE('',#723,#704,#360,.T.);
#1259=EDGE_CURVE('',#878,#879,#344,.T.);
#1274=EDGE_CURVE('',#882,#883,#368,.T.);
#1295=EDGE_CURVE('',#897,#889,#409,.T.);
#1307=EDGE_CURVE('',#899,#891,#413,.T.);
#1332=EDGE_CURVE('',#806,#778,#417,.T.);
#1334=EDGE_CURVE('',#778,#779,#422,.T.);
#1336=EDGE_CURVE('',#779,#781,#426,.T.);
#1338=EDGE_CURVE('',#781,#783,#430,.T.);
#1340=EDGE_CURVE('',#783,#785,#434,.T.);
#1342=EDGE_CURVE('',#785,#787,#439,.T.);
#1344=EDGE_CURVE('',#787,#807,#443,.T.);
#1355=EDGE_CURVE('',#815,#774,#447,.T.);
#1357=EDGE_CURVE('',#774,#775,#451,.T.);
#1359=EDGE_CURVE('',#775,#814,#455,.T.);
#1370=EDGE_CURVE('',#810,#794,#485,.T.);
#1372=EDGE_CURVE('',#778,#794,#521,.T.);
#1384=EDGE_CURVE('',#803,#811,#459,.T.);
#1386=EDGE_CURVE('',#801,#803,#464,.T.);
#1388=EDGE_CURVE('',#799,#801,#468,.T.);
#1390=EDGE_CURVE('',#797,#799,#472,.T.);
#1392=EDGE_CURVE('',#795,#797,#476,.T.);
#1394=EDGE_CURVE('',#794,#795,#481,.T.);
#1406=EDGE_CURVE('',#791,#818,#489,.T.);
#1408=EDGE_CURVE('',#790,#791,#493,.T.);
#1410=EDGE_CURVE('',#819,#790,#497,.T.);
#1422=EDGE_CURVE('',#787,#803,#501,.T.);
#1434=EDGE_CURVE('',#785,#801,#505,.T.);
#1447=EDGE_CURVE('',#783,#799,#509,.T.);
#1460=EDGE_CURVE('',#781,#797,#513,.T.);
#1473=EDGE_CURVE('',#779,#795,#517,.T.);
#1499=EDGE_CURVE('',#775,#791,#525,.T.);
#1511=EDGE_CURVE('',#774,#790,#529,.T.);
#1536=EDGE_CURVE('',#854,#826,#533,.T.);
#1538=EDGE_CURVE('',#826,#827,#538,.T.);
#1540=EDGE_CURVE('',#827,#829,#542,.T.);
#1542=EDGE_CURVE('',#829,#831,#546,.T.);
#1544=EDGE_CURVE('',#831,#833,#550,.T.);
#1546=EDGE_CURVE('',#833,#835,#555,.T.);
#1548=EDGE_CURVE('',#835,#855,#559,.T.);
#1559=EDGE_CURVE('',#863,#822,#563,.T.);
#1561=EDGE_CURVE('',#822,#823,#567,.T.);
#1563=EDGE_CURVE('',#823,#862,#571,.T.);
#1574=EDGE_CURVE('',#858,#842,#601,.T.);
#1576=EDGE_CURVE('',#826,#842,#637,.T.);
#1588=EDGE_CURVE('',#851,#859,#575,.T.);
#1590=EDGE_CURVE('',#849,#851,#580,.T.);
#1592=EDGE_CURVE('',#847,#849,#584,.T.);
#1594=EDGE_CURVE('',#845,#847,#588,.T.);
#1596=EDGE_CURVE('',#843,#845,#592,.T.);
#1598=EDGE_CURVE('',#842,#843,#597,.T.);
#1610=EDGE_CURVE('',#839,#866,#605,.T.);
#1612=EDGE_CURVE('',#838,#839,#609,.T.);
#1614=EDGE_CURVE('',#867,#838,#613,.T.);
#1626=EDGE_CURVE('',#835,#851,#617,.T.);
#1638=EDGE_CURVE('',#833,#849,#621,.T.);
#1651=EDGE_CURVE('',#831,#847,#625,.T.);
#1664=EDGE_CURVE('',#829,#845,#629,.T.);
#1677=EDGE_CURVE('',#827,#843,#633,.T.);
#1703=EDGE_CURVE('',#823,#839,#641,.T.);
#1715=EDGE_CURVE('',#822,#838,#645,.T.);
#1740=EDGE_CURVE('',#731,#735,#654,.T.);
#1742=EDGE_CURVE('',#767,#731,#671,.T.);
#1744=EDGE_CURVE('',#771,#767,#695,.T.);
#1746=EDGE_CURVE('',#763,#771,#679,.T.);
#1758=EDGE_CURVE('',#730,#731,#649,.T.);
#1762=EDGE_CURVE('',#730,#734,#659,.T.);
#1773=EDGE_CURVE('',#765,#730,#663,.T.);
#1775=EDGE_CURVE('',#765,#767,#667,.T.);
#1789=EDGE_CURVE('',#762,#769,#683,.T.);
#1791=EDGE_CURVE('',#769,#765,#687,.T.);
#1805=EDGE_CURVE('',#769,#771,#691,.T.);
#1825=(LENGTH_UNIT()NAMED_UNIT(*)SI_UNIT(.MILLI.,.METRE.));
#1827=(NAMED_UNIT(*)PLANE_ANGLE_UNIT()SI_UNIT($,.RADIAN.));
#1830=(NAMED_UNIT(*)SI_UNIT($,.STERADIAN.)SOLID_ANGLE_UNIT());
#1833=ADVANCED_BREP_SHAPE_REPRESENTATION('',(#1824),#1832);
#1840=PRODUCT_DEFINITION('part definition','',#1839,#1836);
#1841=PRODUCT_DEFINITION_SHAPE('','SHAPE FOR C-640389-2.',#1840);
#1842=SHAPE_ASPECT('','solid data associated with C-640389-2',#1841,.F.);
#1843=PROPERTY_DEFINITION('',
'shape for solid data with which properties are associated',#1842);
#1844=SHAPE_REPRESENTATION('',(#1824),#1832);
#1845=SHAPE_DEFINITION_REPRESENTATION(#1843,#1844);
#1846=(LENGTH_UNIT()NAMED_UNIT(*)SI_UNIT(.MILLI.,.METRE.));
#1850=PROPERTY_DEFINITION('geometric validation property','area of C-640389-2',
#1842);
#1851=REPRESENTATION('surface area',(#1849),#1832);
#1852=PROPERTY_DEFINITION_REPRESENTATION(#1850,#1851);
#1853=(LENGTH_UNIT()NAMED_UNIT(*)SI_UNIT(.MILLI.,.METRE.));
#1857=PROPERTY_DEFINITION('geometric validation property',
'volume of C-640389-2',#1842);
#1858=REPRESENTATION('volume',(#1856),#1832);
#1859=PROPERTY_DEFINITION_REPRESENTATION(#1857,#1858);
#1861=PROPERTY_DEFINITION('geometric validation property',
'centroid of C-640389-2',#1842);
#1862=REPRESENTATION('centroid',(#1860),#1832);
#1863=PROPERTY_DEFINITION_REPRESENTATION(#1861,#1862);
#1864=(LENGTH_UNIT()NAMED_UNIT(*)SI_UNIT(.MILLI.,.METRE.));
#1868=PROPERTY_DEFINITION('geometric validation property','area of C-640389-2',
#1841);
#1869=REPRESENTATION('surface area',(#1867),#1832);
#1870=PROPERTY_DEFINITION_REPRESENTATION(#1868,#1869);
#1871=(LENGTH_UNIT()NAMED_UNIT(*)SI_UNIT(.MILLI.,.METRE.));
#1875=PROPERTY_DEFINITION('geometric validation property',
'volume of C-640389-2',#1841);
#1876=REPRESENTATION('volume',(#1874),#1832);
#1877=PROPERTY_DEFINITION_REPRESENTATION(#1875,#1876);
#1879=PROPERTY_DEFINITION('geometric validation property',
'centroid of C-640389-2',#1841);
#1880=REPRESENTATION('centroid',(#1878),#1832);
#1881=PROPERTY_DEFINITION_REPRESENTATION(#1879,#1880);
#1882=SHAPE_DEFINITION_REPRESENTATION(#1841,#1833);
#1884=PROPERTY_DEFINITION('user defined attribute','',#1840);
#1888=REPRESENTATION('',(#1887),#1832);
#1889=PROPERTY_DEFINITION_REPRESENTATION(#1884,#1888);
#1890=PROPERTY_DEFINITION('user defined attribute','',#1840);
#1894=REPRESENTATION('',(#1893),#1832);
#1895=PROPERTY_DEFINITION_REPRESENTATION(#1890,#1894);
#1896=PROPERTY_DEFINITION('user defined attribute','',#1840);
#1900=REPRESENTATION('',(#1899),#1832);
#1901=PROPERTY_DEFINITION_REPRESENTATION(#1896,#1900);
#1902=PROPERTY_DEFINITION('user defined attribute','',#1840);
#1906=REPRESENTATION('',(#1905),#1832);
#1907=PROPERTY_DEFINITION_REPRESENTATION(#1902,#1906);
#1908=PROPERTY_DEFINITION('user defined attribute','',#1840);
#1912=REPRESENTATION('',(#1911),#1832);
#1913=PROPERTY_DEFINITION_REPRESENTATION(#1908,#1912);
#1914=PROPERTY_DEFINITION('user defined attribute','',#1840);
#1918=REPRESENTATION('',(#1917),#1832);
#1919=PROPERTY_DEFINITION_REPRESENTATION(#1914,#1918);
#1920=PROPERTY_DEFINITION('user defined attribute','',#1840);
#1924=REPRESENTATION('',(#1923),#1832);
#1925=PROPERTY_DEFINITION_REPRESENTATION(#1920,#1924);
#1926=PROPERTY_DEFINITION('user defined attribute','',#1840);
#1930=REPRESENTATION('',(#1929),#1832);
#1931=PROPERTY_DEFINITION_REPRESENTATION(#1926,#1930);
#1932=PROPERTY_DEFINITION('user defined attribute','',#1840);
#1936=REPRESENTATION('',(#1935),#1832);
#1937=PROPERTY_DEFINITION_REPRESENTATION(#1932,#1936);
#1938=PROPERTY_DEFINITION('user defined attribute','',#1840);
#1942=REPRESENTATION('',(#1941),#1832);
#1943=PROPERTY_DEFINITION_REPRESENTATION(#1938,#1942);
#1944=PROPERTY_DEFINITION('user defined attribute','',#1840);
#1948=REPRESENTATION('',(#1947),#1832);
#1949=PROPERTY_DEFINITION_REPRESENTATION(#1944,#1948);
#1950=PROPERTY_DEFINITION('user defined attribute','',#1840);
#1954=REPRESENTATION('',(#1953),#1832);
#1955=PROPERTY_DEFINITION_REPRESENTATION(#1950,#1954);
#1956=PROPERTY_DEFINITION('user defined attribute','',#1840);
#1960=REPRESENTATION('',(#1959),#1832);
#1961=PROPERTY_DEFINITION_REPRESENTATION(#1956,#1960);
#1962=PROPERTY_DEFINITION('user defined attribute','',#1840);
#1966=REPRESENTATION('',(#1965),#1832);
#1967=PROPERTY_DEFINITION_REPRESENTATION(#1962,#1966);
#1968=PROPERTY_DEFINITION('user defined attribute','',#1840);
#1972=REPRESENTATION('',(#1971),#1832);
#1973=PROPERTY_DEFINITION_REPRESENTATION(#1968,#1972);
#1974=PROPERTY_DEFINITION('user defined attribute','',#1840);
#1978=REPRESENTATION('',(#1977),#1832);
#1979=PROPERTY_DEFINITION_REPRESENTATION(#1974,#1978);
#1980=PROPERTY_DEFINITION('user defined attribute','',#1840);
#1984=REPRESENTATION('',(#1983),#1832);
#1985=PROPERTY_DEFINITION_REPRESENTATION(#1980,#1984);
#1986=PROPERTY_DEFINITION('user defined attribute','',#1840);
#1990=REPRESENTATION('',(#1989),#1832);
#1991=PROPERTY_DEFINITION_REPRESENTATION(#1986,#1990);
#1992=PROPERTY_DEFINITION('user defined attribute','',#1840);
#1996=REPRESENTATION('',(#1995),#1832);
#1997=PROPERTY_DEFINITION_REPRESENTATION(#1992,#1996);
#1998=PROPERTY_DEFINITION('user defined attribute','',#1840);
#2002=REPRESENTATION('',(#2001),#1832);
#2003=PROPERTY_DEFINITION_REPRESENTATION(#1998,#2002);
#2004=PROPERTY_DEFINITION('user defined attribute','',#1840);
#2008=REPRESENTATION('',(#2007),#1832);
#2009=PROPERTY_DEFINITION_REPRESENTATION(#2004,#2008);
#2010=PROPERTY_DEFINITION('user defined attribute','',#1840);
#2014=REPRESENTATION('',(#2013),#1832);
#2015=PROPERTY_DEFINITION_REPRESENTATION(#2010,#2014);
#2016=PROPERTY_DEFINITION('user defined attribute','',#1840);
#2020=REPRESENTATION('',(#2019),#1832);
#2021=PROPERTY_DEFINITION_REPRESENTATION(#2016,#2020);
#2022=PROPERTY_DEFINITION('user defined attribute','',#1840);
#2026=REPRESENTATION('',(#2025),#1832);
#2027=PROPERTY_DEFINITION_REPRESENTATION(#2022,#2026);
#2028=PROPERTY_DEFINITION('user defined attribute','',#1840);
#2032=REPRESENTATION('',(#2031),#1832);
#2033=PROPERTY_DEFINITION_REPRESENTATION(#2028,#2032);
#2034=PROPERTY_DEFINITION('user defined attribute','',#1840);
#2038=REPRESENTATION('',(#2037),#1832);
#2039=PROPERTY_DEFINITION_REPRESENTATION(#2034,#2038);
#2040=PROPERTY_DEFINITION('user defined attribute','',#1840);
#2044=REPRESENTATION('',(#2043),#1832);
#2045=PROPERTY_DEFINITION_REPRESENTATION(#2040,#2044);
#2046=PROPERTY_DEFINITION('user defined attribute','',#1840);
#2050=REPRESENTATION('',(#2049),#1832);
#2051=PROPERTY_DEFINITION_REPRESENTATION(#2046,#2050);
#2052=PROPERTY_DEFINITION('user defined attribute','',#1840);
#2056=REPRESENTATION('',(#2055),#1832);
#2057=PROPERTY_DEFINITION_REPRESENTATION(#2052,#2056);
#2058=PROPERTY_DEFINITION('user defined attribute','',#1840);
#2062=REPRESENTATION('',(#2061),#1832);
#2063=PROPERTY_DEFINITION_REPRESENTATION(#2058,#2062);
#2064=PROPERTY_DEFINITION('user defined attribute','',#1840);
#2068=REPRESENTATION('',(#2067),#1832);
#2069=PROPERTY_DEFINITION_REPRESENTATION(#2064,#2068);
#2070=PROPERTY_DEFINITION('user defined attribute','',#1840);
#2074=REPRESENTATION('',(#2073),#1832);
#2075=PROPERTY_DEFINITION_REPRESENTATION(#2070,#2074);
#2076=PROPERTY_DEFINITION('user defined attribute','',#1840);
#2080=REPRESENTATION('',(#2079),#1832);
#2081=PROPERTY_DEFINITION_REPRESENTATION(#2076,#2080);
ENDSEC;
END-ISO-10303-21;
