ISO-10303-21;
HEADER;
FILE_DESCRIPTION(('FreeCAD Model'),'2;1');
FILE_NAME('Open CASCADE Shape Model','2025-02-13T11:31:45',(''),(''),
  'Open CASCADE STEP processor 7.8','FreeCAD','Unknown');
FILE_SCHEMA(('AUTOMOTIVE_DESIGN { 1 0 10303 214 1 1 1 1 }'));
ENDSEC;
DATA;
#1 = APPLICATION_PROTOCOL_DEFINITION('international standard',
  'automotive_design',2000,#2);
#2 = APPLICATION_CONTEXT(
  'core data for automotive mechanical design processes');
#3 = SHAPE_DEFINITION_REPRESENTATION(#4,#10);
#4 = PRODUCT_DEFINITION_SHAPE('','',#5);
#5 = PRODUCT_DEFINITION('design','',#6,#9);
#6 = PRODUCT_DEFINITION_FORMATION('','',#7);
#7 = PRODUCT('C_640457','C_640457','',(#8));
#8 = PRODUCT_CONTEXT('',#2,'mechanical');
#9 = PRODUCT_DEFINITION_CONTEXT('part definition',#2,'design');
#10 = SHAPE_REPRESENTATION('',(#11,#15,#19),#23);
#11 = AXIS2_PLACEMENT_3D('',#12,#13,#14);
#12 = CARTESIAN_POINT('',(0.,0.,0.));
#13 = DIRECTION('',(0.,0.,1.));
#14 = DIRECTION('',(1.,0.,-0.));
#15 = AXIS2_PLACEMENT_3D('',#16,#17,#18);
#16 = CARTESIAN_POINT('',(0.,0.,0.));
#17 = DIRECTION('',(0.,0.,1.));
#18 = DIRECTION('',(1.,0.,0.));
#19 = AXIS2_PLACEMENT_3D('',#20,#21,#22);
#20 = CARTESIAN_POINT('',(1.27,0.,0.));
#21 = DIRECTION('',(0.,0.,1.));
#22 = DIRECTION('',(1.,0.,0.));
#23 = ( GEOMETRIC_REPRESENTATION_CONTEXT(3) 
GLOBAL_UNCERTAINTY_ASSIGNED_CONTEXT((#27)) GLOBAL_UNIT_ASSIGNED_CONTEXT(
(#24,#25,#26)) REPRESENTATION_CONTEXT('Context #1',
  '3D Context with UNIT and UNCERTAINTY') );
#24 = ( LENGTH_UNIT() NAMED_UNIT(*) SI_UNIT(.MILLI.,.METRE.) );
#25 = ( NAMED_UNIT(*) PLANE_ANGLE_UNIT() SI_UNIT($,.RADIAN.) );
#26 = ( NAMED_UNIT(*) SI_UNIT($,.STERADIAN.) SOLID_ANGLE_UNIT() );
#27 = UNCERTAINTY_MEASURE_WITH_UNIT(LENGTH_MEASURE(2.E-06),#24,
  'distance_accuracy_value','confusion accuracy');
#28 = PRODUCT_RELATED_PRODUCT_CATEGORY('part',$,(#7));
#29 = SHAPE_DEFINITION_REPRESENTATION(#30,#36);
#30 = PRODUCT_DEFINITION_SHAPE('','',#31);
#31 = PRODUCT_DEFINITION('design','',#32,#35);
#32 = PRODUCT_DEFINITION_FORMATION('','',#33);
#33 = PRODUCT('Array','Array','',(#34));
#34 = PRODUCT_CONTEXT('',#2,'mechanical');
#35 = PRODUCT_DEFINITION_CONTEXT('part definition',#2,'design');
#36 = SHAPE_REPRESENTATION('',(#11,#37,#41),#45);
#37 = AXIS2_PLACEMENT_3D('',#38,#39,#40);
#38 = CARTESIAN_POINT('',(0.,0.,0.));
#39 = DIRECTION('',(0.,0.,1.));
#40 = DIRECTION('',(1.,0.,0.));
#41 = AXIS2_PLACEMENT_3D('',#42,#43,#44);
#42 = CARTESIAN_POINT('',(2.54,0.,0.));
#43 = DIRECTION('',(0.,0.,1.));
#44 = DIRECTION('',(1.,0.,0.));
#45 = ( GEOMETRIC_REPRESENTATION_CONTEXT(3) 
GLOBAL_UNCERTAINTY_ASSIGNED_CONTEXT((#49)) GLOBAL_UNIT_ASSIGNED_CONTEXT(
(#46,#47,#48)) REPRESENTATION_CONTEXT('Context #1',
  '3D Context with UNIT and UNCERTAINTY') );
#46 = ( LENGTH_UNIT() NAMED_UNIT(*) SI_UNIT(.MILLI.,.METRE.) );
#47 = ( NAMED_UNIT(*) PLANE_ANGLE_UNIT() SI_UNIT($,.RADIAN.) );
#48 = ( NAMED_UNIT(*) SI_UNIT($,.STERADIAN.) SOLID_ANGLE_UNIT() );
#49 = UNCERTAINTY_MEASURE_WITH_UNIT(LENGTH_MEASURE(1.E-07),#46,
  'distance_accuracy_value','confusion accuracy');
#50 = CONTEXT_DEPENDENT_SHAPE_REPRESENTATION(#51,#53);
#51 = ( REPRESENTATION_RELATIONSHIP('','',#36,#10) 
REPRESENTATION_RELATIONSHIP_WITH_TRANSFORMATION(#52) 
SHAPE_REPRESENTATION_RELATIONSHIP() );
#52 = ITEM_DEFINED_TRANSFORMATION('','',#11,#15);
#53 = PRODUCT_DEFINITION_SHAPE('Placement','Placement of an item',#54);
#54 = NEXT_ASSEMBLY_USAGE_OCCURRENCE('931','Array','',#5,#31,$);
#55 = PRODUCT_RELATED_PRODUCT_CATEGORY('part',$,(#33));
#56 = SHAPE_DEFINITION_REPRESENTATION(#57,#63);
#57 = PRODUCT_DEFINITION_SHAPE('','',#58);
#58 = PRODUCT_DEFINITION('design','',#59,#62);
#59 = PRODUCT_DEFINITION_FORMATION('','',#60);
#60 = PRODUCT('Body001','Body001','',(#61));
#61 = PRODUCT_CONTEXT('',#2,'mechanical');
#62 = PRODUCT_DEFINITION_CONTEXT('part definition',#2,'design');
#63 = ADVANCED_BREP_SHAPE_REPRESENTATION('',(#11,#64),#602);
#64 = MANIFOLD_SOLID_BREP('',#65);
#65 = CLOSED_SHELL('',(#66,#106,#137,#161,#185,#202,#233,#257,#281,#298,
    #331,#356,#381,#398,#429,#453,#477,#494,#525,#549,#573,#590));
#66 = ADVANCED_FACE('',(#67),#101,.T.);
#67 = FACE_BOUND('',#68,.T.);
#68 = EDGE_LOOP('',(#69,#79,#87,#95));
#69 = ORIENTED_EDGE('',*,*,#70,.T.);
#70 = EDGE_CURVE('',#71,#73,#75,.T.);
#71 = VERTEX_POINT('',#72);
#72 = CARTESIAN_POINT('',(0.127,-3.937,-0.127000000003));
#73 = VERTEX_POINT('',#74);
#74 = CARTESIAN_POINT('',(0.127,-3.937,0.126999999997));
#75 = LINE('',#76,#77);
#76 = CARTESIAN_POINT('',(0.127,-3.937,-0.317500000003));
#77 = VECTOR('',#78,1.);
#78 = DIRECTION('',(0.,2.2E-16,1.));
#79 = ORIENTED_EDGE('',*,*,#80,.T.);
#80 = EDGE_CURVE('',#73,#81,#83,.T.);
#81 = VERTEX_POINT('',#82);
#82 = CARTESIAN_POINT('',(-0.127,-3.937,0.126999999997));
#83 = LINE('',#84,#85);
#84 = CARTESIAN_POINT('',(0.3175,-3.937,0.126999999997));
#85 = VECTOR('',#86,1.);
#86 = DIRECTION('',(-1.,-0.,0.));
#87 = ORIENTED_EDGE('',*,*,#88,.T.);
#88 = EDGE_CURVE('',#81,#89,#91,.T.);
#89 = VERTEX_POINT('',#90);
#90 = CARTESIAN_POINT('',(-0.127,-3.937,-0.127000000003));
#91 = LINE('',#92,#93);
#92 = CARTESIAN_POINT('',(-0.127,-3.937,0.317499999997));
#93 = VECTOR('',#94,1.);
#94 = DIRECTION('',(0.,-2.2E-16,-1.));
#95 = ORIENTED_EDGE('',*,*,#96,.T.);
#96 = EDGE_CURVE('',#89,#71,#97,.T.);
#97 = LINE('',#98,#99);
#98 = CARTESIAN_POINT('',(-0.3175,-3.937,-0.127000000003));
#99 = VECTOR('',#100,1.);
#100 = DIRECTION('',(1.,0.,0.));
#101 = PLANE('',#102);
#102 = AXIS2_PLACEMENT_3D('',#103,#104,#105);
#103 = CARTESIAN_POINT('',(1.E-17,-3.937,-2.8714E-12));
#104 = DIRECTION('',(3.5E-16,-1.,1.3E-16));
#105 = DIRECTION('',(1.,3.5E-16,0.));
#106 = ADVANCED_FACE('',(#107),#132,.F.);
#107 = FACE_BOUND('',#108,.F.);
#108 = EDGE_LOOP('',(#109,#117,#118,#126));
#109 = ORIENTED_EDGE('',*,*,#110,.F.);
#110 = EDGE_CURVE('',#71,#111,#113,.T.);
#111 = VERTEX_POINT('',#112);
#112 = CARTESIAN_POINT('',(0.3175,-3.7465,-0.317500000003));
#113 = LINE('',#114,#115);
#114 = CARTESIAN_POINT('',(0.148166666667,-3.915833333333,
    -0.148166666669));
#115 = VECTOR('',#116,1.);
#116 = DIRECTION('',(0.57735026919,0.57735026919,-0.577350269189));
#117 = ORIENTED_EDGE('',*,*,#70,.T.);
#118 = ORIENTED_EDGE('',*,*,#119,.T.);
#119 = EDGE_CURVE('',#73,#120,#122,.T.);
#120 = VERTEX_POINT('',#121);
#121 = CARTESIAN_POINT('',(0.3175,-3.7465,0.317499999997));
#122 = LINE('',#123,#124);
#123 = CARTESIAN_POINT('',(0.148166666667,-3.915833333333,0.148166666664
    ));
#124 = VECTOR('',#125,1.);
#125 = DIRECTION('',(0.577350269189,0.577350269189,0.57735026919));
#126 = ORIENTED_EDGE('',*,*,#127,.F.);
#127 = EDGE_CURVE('',#111,#120,#128,.T.);
#128 = LINE('',#129,#130);
#129 = CARTESIAN_POINT('',(0.3175,-3.7465,-0.317500000003));
#130 = VECTOR('',#131,1.);
#131 = DIRECTION('',(0.,2.2E-16,1.));
#132 = PLANE('',#133);
#133 = AXIS2_PLACEMENT_3D('',#134,#135,#136);
#134 = CARTESIAN_POINT('',(0.22225,-3.84175,-0.317500000003));
#135 = DIRECTION('',(-0.707106781187,0.707106781187,-1.E-16));
#136 = DIRECTION('',(3.928932188135E-17,1.807106781187E-16,1.));
#137 = ADVANCED_FACE('',(#138),#156,.F.);
#138 = FACE_BOUND('',#139,.F.);
#139 = EDGE_LOOP('',(#140,#148,#149,#150));
#140 = ORIENTED_EDGE('',*,*,#141,.F.);
#141 = EDGE_CURVE('',#89,#142,#144,.T.);
#142 = VERTEX_POINT('',#143);
#143 = CARTESIAN_POINT('',(-0.3175,-3.7465,-0.317500000003));
#144 = LINE('',#145,#146);
#145 = CARTESIAN_POINT('',(-0.148166666667,-3.915833333333,
    -0.14816666667));
#146 = VECTOR('',#147,1.);
#147 = DIRECTION('',(-0.57735026919,0.57735026919,-0.577350269189));
#148 = ORIENTED_EDGE('',*,*,#96,.T.);
#149 = ORIENTED_EDGE('',*,*,#110,.T.);
#150 = ORIENTED_EDGE('',*,*,#151,.F.);
#151 = EDGE_CURVE('',#142,#111,#152,.T.);
#152 = LINE('',#153,#154);
#153 = CARTESIAN_POINT('',(-0.3175,-3.7465,-0.317500000003));
#154 = VECTOR('',#155,1.);
#155 = DIRECTION('',(1.,0.,0.));
#156 = PLANE('',#157);
#157 = AXIS2_PLACEMENT_3D('',#158,#159,#160);
#158 = CARTESIAN_POINT('',(-0.3175,-3.84175,-0.222250000003));
#159 = DIRECTION('',(-2.5E-16,0.707106781186,0.707106781187));
#160 = DIRECTION('',(1.,1.767766952966E-16,1.767766952966E-16));
#161 = ADVANCED_FACE('',(#162),#180,.F.);
#162 = FACE_BOUND('',#163,.F.);
#163 = EDGE_LOOP('',(#164,#165,#166,#174));
#164 = ORIENTED_EDGE('',*,*,#119,.F.);
#165 = ORIENTED_EDGE('',*,*,#80,.T.);
#166 = ORIENTED_EDGE('',*,*,#167,.T.);
#167 = EDGE_CURVE('',#81,#168,#170,.T.);
#168 = VERTEX_POINT('',#169);
#169 = CARTESIAN_POINT('',(-0.3175,-3.7465,0.317499999997));
#170 = LINE('',#171,#172);
#171 = CARTESIAN_POINT('',(-0.148166666667,-3.915833333333,
    0.148166666664));
#172 = VECTOR('',#173,1.);
#173 = DIRECTION('',(-0.577350269189,0.577350269189,0.57735026919));
#174 = ORIENTED_EDGE('',*,*,#175,.F.);
#175 = EDGE_CURVE('',#120,#168,#176,.T.);
#176 = LINE('',#177,#178);
#177 = CARTESIAN_POINT('',(0.3175,-3.7465,0.317499999997));
#178 = VECTOR('',#179,1.);
#179 = DIRECTION('',(-1.,-0.,0.));
#180 = PLANE('',#181);
#181 = AXIS2_PLACEMENT_3D('',#182,#183,#184);
#182 = CARTESIAN_POINT('',(0.3175,-3.84175,0.222249999997));
#183 = DIRECTION('',(-2.5E-16,0.707106781187,-0.707106781186));
#184 = DIRECTION('',(-1.,-1.767766952966E-16,1.767766952966E-16));
#185 = ADVANCED_FACE('',(#186),#197,.F.);
#186 = FACE_BOUND('',#187,.F.);
#187 = EDGE_LOOP('',(#188,#189,#190,#191));
#188 = ORIENTED_EDGE('',*,*,#167,.F.);
#189 = ORIENTED_EDGE('',*,*,#88,.T.);
#190 = ORIENTED_EDGE('',*,*,#141,.T.);
#191 = ORIENTED_EDGE('',*,*,#192,.F.);
#192 = EDGE_CURVE('',#168,#142,#193,.T.);
#193 = LINE('',#194,#195);
#194 = CARTESIAN_POINT('',(-0.3175,-3.7465,0.317499999997));
#195 = VECTOR('',#196,1.);
#196 = DIRECTION('',(0.,-2.2E-16,-1.));
#197 = PLANE('',#198);
#198 = AXIS2_PLACEMENT_3D('',#199,#200,#201);
#199 = CARTESIAN_POINT('',(-0.22225,-3.84175,0.317499999997));
#200 = DIRECTION('',(0.707106781187,0.707106781187,-9.E-17));
#201 = DIRECTION('',(5.136038969321E-17,-1.786396103068E-16,-1.));
#202 = ADVANCED_FACE('',(#203),#228,.F.);
#203 = FACE_BOUND('',#204,.F.);
#204 = EDGE_LOOP('',(#205,#213,#214,#222));
#205 = ORIENTED_EDGE('',*,*,#206,.F.);
#206 = EDGE_CURVE('',#111,#207,#209,.T.);
#207 = VERTEX_POINT('',#208);
#208 = CARTESIAN_POINT('',(0.3175,1.778,-0.317499999999));
#209 = LINE('',#210,#211);
#210 = CARTESIAN_POINT('',(0.3175,-3.937,-0.317500000003));
#211 = VECTOR('',#212,1.);
#212 = DIRECTION('',(0.,1.,-2.2E-16));
#213 = ORIENTED_EDGE('',*,*,#127,.T.);
#214 = ORIENTED_EDGE('',*,*,#215,.T.);
#215 = EDGE_CURVE('',#120,#216,#218,.T.);
#216 = VERTEX_POINT('',#217);
#217 = CARTESIAN_POINT('',(0.3175,1.778,0.317500000001));
#218 = LINE('',#219,#220);
#219 = CARTESIAN_POINT('',(0.3175,-3.937,0.317499999997));
#220 = VECTOR('',#221,1.);
#221 = DIRECTION('',(0.,1.,-2.2E-16));
#222 = ORIENTED_EDGE('',*,*,#223,.F.);
#223 = EDGE_CURVE('',#207,#216,#224,.T.);
#224 = LINE('',#225,#226);
#225 = CARTESIAN_POINT('',(0.3175,1.778,-0.317500000003));
#226 = VECTOR('',#227,1.);
#227 = DIRECTION('',(0.,2.2E-16,1.));
#228 = PLANE('',#229);
#229 = AXIS2_PLACEMENT_3D('',#230,#231,#232);
#230 = CARTESIAN_POINT('',(0.3175,-3.937,-0.317500000003));
#231 = DIRECTION('',(-1.,0.,0.));
#232 = DIRECTION('',(0.,2.2E-16,1.));
#233 = ADVANCED_FACE('',(#234),#252,.F.);
#234 = FACE_BOUND('',#235,.F.);
#235 = EDGE_LOOP('',(#236,#244,#245,#246));
#236 = ORIENTED_EDGE('',*,*,#237,.F.);
#237 = EDGE_CURVE('',#142,#238,#240,.T.);
#238 = VERTEX_POINT('',#239);
#239 = CARTESIAN_POINT('',(-0.3175,1.778,-0.317499999999));
#240 = LINE('',#241,#242);
#241 = CARTESIAN_POINT('',(-0.3175,-3.937,-0.317500000003));
#242 = VECTOR('',#243,1.);
#243 = DIRECTION('',(0.,1.,-2.2E-16));
#244 = ORIENTED_EDGE('',*,*,#151,.T.);
#245 = ORIENTED_EDGE('',*,*,#206,.T.);
#246 = ORIENTED_EDGE('',*,*,#247,.F.);
#247 = EDGE_CURVE('',#238,#207,#248,.T.);
#248 = LINE('',#249,#250);
#249 = CARTESIAN_POINT('',(-0.3175,1.778,-0.317499999999));
#250 = VECTOR('',#251,1.);
#251 = DIRECTION('',(1.,0.,0.));
#252 = PLANE('',#253);
#253 = AXIS2_PLACEMENT_3D('',#254,#255,#256);
#254 = CARTESIAN_POINT('',(-0.3175,-3.937,-0.317500000003));
#255 = DIRECTION('',(0.,-7.2935E-13,1.));
#256 = DIRECTION('',(1.,0.,0.));
#257 = ADVANCED_FACE('',(#258),#276,.F.);
#258 = FACE_BOUND('',#259,.F.);
#259 = EDGE_LOOP('',(#260,#261,#262,#270));
#260 = ORIENTED_EDGE('',*,*,#215,.F.);
#261 = ORIENTED_EDGE('',*,*,#175,.T.);
#262 = ORIENTED_EDGE('',*,*,#263,.T.);
#263 = EDGE_CURVE('',#168,#264,#266,.T.);
#264 = VERTEX_POINT('',#265);
#265 = CARTESIAN_POINT('',(-0.3175,1.778,0.317500000001));
#266 = LINE('',#267,#268);
#267 = CARTESIAN_POINT('',(-0.3175,-3.937,0.317499999997));
#268 = VECTOR('',#269,1.);
#269 = DIRECTION('',(0.,1.,7.2935E-13));
#270 = ORIENTED_EDGE('',*,*,#271,.F.);
#271 = EDGE_CURVE('',#216,#264,#272,.T.);
#272 = LINE('',#273,#274);
#273 = CARTESIAN_POINT('',(0.3175,1.778,0.317500000001));
#274 = VECTOR('',#275,1.);
#275 = DIRECTION('',(-1.,0.,0.));
#276 = PLANE('',#277);
#277 = AXIS2_PLACEMENT_3D('',#278,#279,#280);
#278 = CARTESIAN_POINT('',(0.3175,-3.937,0.317499999997));
#279 = DIRECTION('',(0.,7.2935E-13,-1.));
#280 = DIRECTION('',(-1.,0.,0.));
#281 = ADVANCED_FACE('',(#282),#293,.F.);
#282 = FACE_BOUND('',#283,.F.);
#283 = EDGE_LOOP('',(#284,#285,#286,#287));
#284 = ORIENTED_EDGE('',*,*,#263,.F.);
#285 = ORIENTED_EDGE('',*,*,#192,.T.);
#286 = ORIENTED_EDGE('',*,*,#237,.T.);
#287 = ORIENTED_EDGE('',*,*,#288,.F.);
#288 = EDGE_CURVE('',#264,#238,#289,.T.);
#289 = LINE('',#290,#291);
#290 = CARTESIAN_POINT('',(-0.3175,1.778,0.317499999997));
#291 = VECTOR('',#292,1.);
#292 = DIRECTION('',(0.,-2.2E-16,-1.));
#293 = PLANE('',#294);
#294 = AXIS2_PLACEMENT_3D('',#295,#296,#297);
#295 = CARTESIAN_POINT('',(-0.3175,-3.937,0.317499999997));
#296 = DIRECTION('',(1.,0.,0.));
#297 = DIRECTION('',(0.,-2.2E-16,-1.));
#298 = ADVANCED_FACE('',(#299),#326,.T.);
#299 = FACE_BOUND('',#300,.T.);
#300 = EDGE_LOOP('',(#301,#310,#318,#325));
#301 = ORIENTED_EDGE('',*,*,#302,.T.);
#302 = EDGE_CURVE('',#207,#303,#305,.T.);
#303 = VERTEX_POINT('',#304);
#304 = CARTESIAN_POINT('',(0.3175,2.603499999997,-1.142999999996));
#305 = CIRCLE('',#306,0.825499999997);
#306 = AXIS2_PLACEMENT_3D('',#307,#308,#309);
#307 = CARTESIAN_POINT('',(0.3175,1.778,-1.142999999996));
#308 = DIRECTION('',(-1.,0.,0.));
#309 = DIRECTION('',(0.,1.,1.905E-14));
#310 = ORIENTED_EDGE('',*,*,#311,.T.);
#311 = EDGE_CURVE('',#303,#312,#314,.T.);
#312 = VERTEX_POINT('',#313);
#313 = CARTESIAN_POINT('',(0.3175,3.238499999997,-1.142999999996));
#314 = LINE('',#315,#316);
#315 = CARTESIAN_POINT('',(0.3175,2.603499999997,-1.142999999996));
#316 = VECTOR('',#317,1.);
#317 = DIRECTION('',(0.,1.,-9.786E-14));
#318 = ORIENTED_EDGE('',*,*,#319,.F.);
#319 = EDGE_CURVE('',#216,#312,#320,.T.);
#320 = CIRCLE('',#321,1.460499999997);
#321 = AXIS2_PLACEMENT_3D('',#322,#323,#324);
#322 = CARTESIAN_POINT('',(0.3175,1.778,-1.142999999996));
#323 = DIRECTION('',(-1.,0.,-0.));
#324 = DIRECTION('',(0.,1.,-1.057E-14));
#325 = ORIENTED_EDGE('',*,*,#223,.F.);
#326 = PLANE('',#327);
#327 = AXIS2_PLACEMENT_3D('',#328,#329,#330);
#328 = CARTESIAN_POINT('',(0.3175,2.586223050894,-0.334776949102));
#329 = DIRECTION('',(1.,0.,0.));
#330 = DIRECTION('',(0.,0.707106781187,-0.707106781187));
#331 = ADVANCED_FACE('',(#332),#351,.F.);
#332 = FACE_BOUND('',#333,.T.);
#333 = EDGE_LOOP('',(#334,#343,#349,#350));
#334 = ORIENTED_EDGE('',*,*,#335,.T.);
#335 = EDGE_CURVE('',#238,#336,#338,.T.);
#336 = VERTEX_POINT('',#337);
#337 = CARTESIAN_POINT('',(-0.3175,2.603499999997,-1.142999999996));
#338 = CIRCLE('',#339,0.825499999997);
#339 = AXIS2_PLACEMENT_3D('',#340,#341,#342);
#340 = CARTESIAN_POINT('',(-0.3175,1.778,-1.142999999996));
#341 = DIRECTION('',(-1.,0.,0.));
#342 = DIRECTION('',(0.,1.,1.878E-14));
#343 = ORIENTED_EDGE('',*,*,#344,.T.);
#344 = EDGE_CURVE('',#336,#303,#345,.T.);
#345 = LINE('',#346,#347);
#346 = CARTESIAN_POINT('',(-0.3175,2.603499999997,-1.142999999996));
#347 = VECTOR('',#348,1.);
#348 = DIRECTION('',(1.,0.,0.));
#349 = ORIENTED_EDGE('',*,*,#302,.F.);
#350 = ORIENTED_EDGE('',*,*,#247,.F.);
#351 = CYLINDRICAL_SURFACE('',#352,0.825499999997);
#352 = AXIS2_PLACEMENT_3D('',#353,#354,#355);
#353 = CARTESIAN_POINT('',(-0.3175,1.778,-1.142999999996));
#354 = DIRECTION('',(1.,0.,0.));
#355 = DIRECTION('',(0.,1.,1.905E-14));
#356 = ADVANCED_FACE('',(#357),#376,.T.);
#357 = FACE_BOUND('',#358,.T.);
#358 = EDGE_LOOP('',(#359,#360,#368,#375));
#359 = ORIENTED_EDGE('',*,*,#319,.T.);
#360 = ORIENTED_EDGE('',*,*,#361,.T.);
#361 = EDGE_CURVE('',#312,#362,#364,.T.);
#362 = VERTEX_POINT('',#363);
#363 = CARTESIAN_POINT('',(-0.3175,3.238499999997,-1.142999999996));
#364 = LINE('',#365,#366);
#365 = CARTESIAN_POINT('',(0.3175,3.238499999997,-1.142999999996));
#366 = VECTOR('',#367,1.);
#367 = DIRECTION('',(-1.,0.,0.));
#368 = ORIENTED_EDGE('',*,*,#369,.F.);
#369 = EDGE_CURVE('',#264,#362,#370,.T.);
#370 = CIRCLE('',#371,1.460499999997);
#371 = AXIS2_PLACEMENT_3D('',#372,#373,#374);
#372 = CARTESIAN_POINT('',(-0.3175,1.778,-1.142999999996));
#373 = DIRECTION('',(-1.,0.,-0.));
#374 = DIRECTION('',(0.,1.,-1.072E-14));
#375 = ORIENTED_EDGE('',*,*,#271,.F.);
#376 = CYLINDRICAL_SURFACE('',#377,1.460499999997);
#377 = AXIS2_PLACEMENT_3D('',#378,#379,#380);
#378 = CARTESIAN_POINT('',(0.3175,1.778,-1.142999999996));
#379 = DIRECTION('',(-1.,0.,0.));
#380 = DIRECTION('',(0.,1.,-1.072E-14));
#381 = ADVANCED_FACE('',(#382),#393,.T.);
#382 = FACE_BOUND('',#383,.T.);
#383 = EDGE_LOOP('',(#384,#385,#391,#392));
#384 = ORIENTED_EDGE('',*,*,#369,.T.);
#385 = ORIENTED_EDGE('',*,*,#386,.T.);
#386 = EDGE_CURVE('',#362,#336,#387,.T.);
#387 = LINE('',#388,#389);
#388 = CARTESIAN_POINT('',(-0.3175,3.238499999997,-1.142999999996));
#389 = VECTOR('',#390,1.);
#390 = DIRECTION('',(0.,-1.,9.786E-14));
#391 = ORIENTED_EDGE('',*,*,#335,.F.);
#392 = ORIENTED_EDGE('',*,*,#288,.F.);
#393 = PLANE('',#394);
#394 = AXIS2_PLACEMENT_3D('',#395,#396,#397);
#395 = CARTESIAN_POINT('',(-0.3175,2.586223050894,-0.334776949102));
#396 = DIRECTION('',(-1.,0.,0.));
#397 = DIRECTION('',(0.,0.707106781187,-0.707106781187));
#398 = ADVANCED_FACE('',(#399),#424,.F.);
#399 = FACE_BOUND('',#400,.F.);
#400 = EDGE_LOOP('',(#401,#409,#410,#418));
#401 = ORIENTED_EDGE('',*,*,#402,.F.);
#402 = EDGE_CURVE('',#303,#403,#405,.T.);
#403 = VERTEX_POINT('',#404);
#404 = CARTESIAN_POINT('',(0.3175,2.603499999996,-10.2997));
#405 = LINE('',#406,#407);
#406 = CARTESIAN_POINT('',(0.3175,2.603499999997,-1.142999999996));
#407 = VECTOR('',#408,1.);
#408 = DIRECTION('',(0.,-9.786E-14,-1.));
#409 = ORIENTED_EDGE('',*,*,#311,.T.);
#410 = ORIENTED_EDGE('',*,*,#411,.T.);
#411 = EDGE_CURVE('',#312,#412,#414,.T.);
#412 = VERTEX_POINT('',#413);
#413 = CARTESIAN_POINT('',(0.3175,3.238499999996,-10.2997));
#414 = LINE('',#415,#416);
#415 = CARTESIAN_POINT('',(0.3175,3.238499999997,-1.142999999996));
#416 = VECTOR('',#417,1.);
#417 = DIRECTION('',(0.,-9.786E-14,-1.));
#418 = ORIENTED_EDGE('',*,*,#419,.F.);
#419 = EDGE_CURVE('',#403,#412,#420,.T.);
#420 = LINE('',#421,#422);
#421 = CARTESIAN_POINT('',(0.3175,2.603499999997,-10.2997));
#422 = VECTOR('',#423,1.);
#423 = DIRECTION('',(0.,1.,-9.786E-14));
#424 = PLANE('',#425);
#425 = AXIS2_PLACEMENT_3D('',#426,#427,#428);
#426 = CARTESIAN_POINT('',(0.3175,2.603499999997,-1.142999999996));
#427 = DIRECTION('',(-1.,0.,0.));
#428 = DIRECTION('',(0.,1.,-9.786E-14));
#429 = ADVANCED_FACE('',(#430),#448,.F.);
#430 = FACE_BOUND('',#431,.F.);
#431 = EDGE_LOOP('',(#432,#440,#441,#442));
#432 = ORIENTED_EDGE('',*,*,#433,.F.);
#433 = EDGE_CURVE('',#336,#434,#436,.T.);
#434 = VERTEX_POINT('',#435);
#435 = CARTESIAN_POINT('',(-0.3175,2.603499999996,-10.2997));
#436 = LINE('',#437,#438);
#437 = CARTESIAN_POINT('',(-0.3175,2.603499999997,-1.142999999996));
#438 = VECTOR('',#439,1.);
#439 = DIRECTION('',(0.,-9.786E-14,-1.));
#440 = ORIENTED_EDGE('',*,*,#344,.T.);
#441 = ORIENTED_EDGE('',*,*,#402,.T.);
#442 = ORIENTED_EDGE('',*,*,#443,.F.);
#443 = EDGE_CURVE('',#434,#403,#444,.T.);
#444 = LINE('',#445,#446);
#445 = CARTESIAN_POINT('',(-0.3175,2.603499999997,-10.2997));
#446 = VECTOR('',#447,1.);
#447 = DIRECTION('',(1.,0.,0.));
#448 = PLANE('',#449);
#449 = AXIS2_PLACEMENT_3D('',#450,#451,#452);
#450 = CARTESIAN_POINT('',(-0.3175,2.603499999997,-1.142999999996));
#451 = DIRECTION('',(0.,1.,-2.2E-16));
#452 = DIRECTION('',(1.,0.,0.));
#453 = ADVANCED_FACE('',(#454),#472,.F.);
#454 = FACE_BOUND('',#455,.F.);
#455 = EDGE_LOOP('',(#456,#457,#458,#466));
#456 = ORIENTED_EDGE('',*,*,#411,.F.);
#457 = ORIENTED_EDGE('',*,*,#361,.T.);
#458 = ORIENTED_EDGE('',*,*,#459,.T.);
#459 = EDGE_CURVE('',#362,#460,#462,.T.);
#460 = VERTEX_POINT('',#461);
#461 = CARTESIAN_POINT('',(-0.3175,3.238499999997,-10.2997));
#462 = LINE('',#463,#464);
#463 = CARTESIAN_POINT('',(-0.3175,3.238499999997,-1.142999999996));
#464 = VECTOR('',#465,1.);
#465 = DIRECTION('',(0.,-2.2E-16,-1.));
#466 = ORIENTED_EDGE('',*,*,#467,.F.);
#467 = EDGE_CURVE('',#412,#460,#468,.T.);
#468 = LINE('',#469,#470);
#469 = CARTESIAN_POINT('',(0.3175,3.238499999997,-10.2997));
#470 = VECTOR('',#471,1.);
#471 = DIRECTION('',(-1.,-0.,0.));
#472 = PLANE('',#473);
#473 = AXIS2_PLACEMENT_3D('',#474,#475,#476);
#474 = CARTESIAN_POINT('',(0.3175,3.238499999997,-1.142999999996));
#475 = DIRECTION('',(0.,-1.,2.2E-16));
#476 = DIRECTION('',(-1.,0.,0.));
#477 = ADVANCED_FACE('',(#478),#489,.F.);
#478 = FACE_BOUND('',#479,.F.);
#479 = EDGE_LOOP('',(#480,#481,#482,#483));
#480 = ORIENTED_EDGE('',*,*,#459,.F.);
#481 = ORIENTED_EDGE('',*,*,#386,.T.);
#482 = ORIENTED_EDGE('',*,*,#433,.T.);
#483 = ORIENTED_EDGE('',*,*,#484,.F.);
#484 = EDGE_CURVE('',#460,#434,#485,.T.);
#485 = LINE('',#486,#487);
#486 = CARTESIAN_POINT('',(-0.3175,3.238499999997,-10.2997));
#487 = VECTOR('',#488,1.);
#488 = DIRECTION('',(0.,-1.,9.786E-14));
#489 = PLANE('',#490);
#490 = AXIS2_PLACEMENT_3D('',#491,#492,#493);
#491 = CARTESIAN_POINT('',(-0.3175,3.238499999997,-1.142999999996));
#492 = DIRECTION('',(1.,0.,0.));
#493 = DIRECTION('',(0.,-1.,9.786E-14));
#494 = ADVANCED_FACE('',(#495),#520,.T.);
#495 = FACE_BOUND('',#496,.F.);
#496 = EDGE_LOOP('',(#497,#505,#506,#514));
#497 = ORIENTED_EDGE('',*,*,#498,.F.);
#498 = EDGE_CURVE('',#403,#499,#501,.T.);
#499 = VERTEX_POINT('',#500);
#500 = CARTESIAN_POINT('',(0.127,2.793999999997,-10.4902));
#501 = LINE('',#502,#503);
#502 = CARTESIAN_POINT('',(0.148166666667,2.77283333333,-10.46903333333)
  );
#503 = VECTOR('',#504,1.);
#504 = DIRECTION('',(-0.57735026919,0.57735026919,-0.57735026919));
#505 = ORIENTED_EDGE('',*,*,#419,.T.);
#506 = ORIENTED_EDGE('',*,*,#507,.T.);
#507 = EDGE_CURVE('',#412,#508,#510,.T.);
#508 = VERTEX_POINT('',#509);
#509 = CARTESIAN_POINT('',(0.127,3.047999999997,-10.4902));
#510 = LINE('',#511,#512);
#511 = CARTESIAN_POINT('',(0.148166666667,3.069166666664,-10.46903333333
    ));
#512 = VECTOR('',#513,1.);
#513 = DIRECTION('',(-0.57735026919,-0.57735026919,-0.57735026919));
#514 = ORIENTED_EDGE('',*,*,#515,.F.);
#515 = EDGE_CURVE('',#499,#508,#516,.T.);
#516 = LINE('',#517,#518);
#517 = CARTESIAN_POINT('',(0.127,2.603499999997,-10.4902));
#518 = VECTOR('',#519,1.);
#519 = DIRECTION('',(0.,1.,-9.786E-14));
#520 = PLANE('',#521);
#521 = AXIS2_PLACEMENT_3D('',#522,#523,#524);
#522 = CARTESIAN_POINT('',(0.22225,2.603499999997,-10.39495));
#523 = DIRECTION('',(0.707106781187,-7.006E-14,-0.707106781187));
#524 = DIRECTION('',(-6.099010899295E-16,-1.,9.846990108993E-14));
#525 = ADVANCED_FACE('',(#526),#544,.T.);
#526 = FACE_BOUND('',#527,.T.);
#527 = EDGE_LOOP('',(#528,#536,#542,#543));
#528 = ORIENTED_EDGE('',*,*,#529,.F.);
#529 = EDGE_CURVE('',#530,#434,#532,.T.);
#530 = VERTEX_POINT('',#531);
#531 = CARTESIAN_POINT('',(-0.127,2.793999999997,-10.4902));
#532 = LINE('',#533,#534);
#533 = CARTESIAN_POINT('',(-0.148166666667,2.77283333333,-10.46903333333
    ));
#534 = VECTOR('',#535,1.);
#535 = DIRECTION('',(-0.57735026919,-0.57735026919,0.57735026919));
#536 = ORIENTED_EDGE('',*,*,#537,.T.);
#537 = EDGE_CURVE('',#530,#499,#538,.T.);
#538 = LINE('',#539,#540);
#539 = CARTESIAN_POINT('',(-0.3175,2.793999999997,-10.4902));
#540 = VECTOR('',#541,1.);
#541 = DIRECTION('',(1.,0.,0.));
#542 = ORIENTED_EDGE('',*,*,#498,.F.);
#543 = ORIENTED_EDGE('',*,*,#443,.F.);
#544 = PLANE('',#545);
#545 = AXIS2_PLACEMENT_3D('',#546,#547,#548);
#546 = CARTESIAN_POINT('',(-0.3175,2.698749999997,-10.39495));
#547 = DIRECTION('',(1.01E-15,-0.707106781187,-0.707106781187));
#548 = DIRECTION('',(1.,7.141778489984E-16,7.141778489984E-16));
#549 = ADVANCED_FACE('',(#550),#568,.T.);
#550 = FACE_BOUND('',#551,.T.);
#551 = EDGE_LOOP('',(#552,#553,#561,#567));
#552 = ORIENTED_EDGE('',*,*,#507,.T.);
#553 = ORIENTED_EDGE('',*,*,#554,.T.);
#554 = EDGE_CURVE('',#508,#555,#557,.T.);
#555 = VERTEX_POINT('',#556);
#556 = CARTESIAN_POINT('',(-0.127,3.047999999997,-10.4902));
#557 = LINE('',#558,#559);
#558 = CARTESIAN_POINT('',(0.3175,3.047999999997,-10.4902));
#559 = VECTOR('',#560,1.);
#560 = DIRECTION('',(-1.,-0.,0.));
#561 = ORIENTED_EDGE('',*,*,#562,.T.);
#562 = EDGE_CURVE('',#555,#460,#563,.T.);
#563 = LINE('',#564,#565);
#564 = CARTESIAN_POINT('',(-0.148166666667,3.069166666664,
    -10.46903333333));
#565 = VECTOR('',#566,1.);
#566 = DIRECTION('',(-0.57735026919,0.57735026919,0.57735026919));
#567 = ORIENTED_EDGE('',*,*,#467,.F.);
#568 = PLANE('',#569);
#569 = AXIS2_PLACEMENT_3D('',#570,#571,#572);
#570 = CARTESIAN_POINT('',(0.3175,3.143249999997,-10.39495));
#571 = DIRECTION('',(1.E-15,0.707106781187,-0.707106781187));
#572 = DIRECTION('',(-1.,7.071067811865E-16,-7.071067811865E-16));
#573 = ADVANCED_FACE('',(#574),#585,.T.);
#574 = FACE_BOUND('',#575,.T.);
#575 = EDGE_LOOP('',(#576,#577,#583,#584));
#576 = ORIENTED_EDGE('',*,*,#562,.F.);
#577 = ORIENTED_EDGE('',*,*,#578,.T.);
#578 = EDGE_CURVE('',#555,#530,#579,.T.);
#579 = LINE('',#580,#581);
#580 = CARTESIAN_POINT('',(-0.127,3.238499999997,-10.4902));
#581 = VECTOR('',#582,1.);
#582 = DIRECTION('',(0.,-1.,9.786E-14));
#583 = ORIENTED_EDGE('',*,*,#529,.T.);
#584 = ORIENTED_EDGE('',*,*,#484,.F.);
#585 = PLANE('',#586);
#586 = AXIS2_PLACEMENT_3D('',#587,#588,#589);
#587 = CARTESIAN_POINT('',(-0.22225,3.238499999997,-10.39495));
#588 = DIRECTION('',(-0.707106781187,-7.006E-14,-0.707106781187));
#589 = DIRECTION('',(6.099010899295E-16,-1.,9.846990108993E-14));
#590 = ADVANCED_FACE('',(#591),#597,.F.);
#591 = FACE_BOUND('',#592,.F.);
#592 = EDGE_LOOP('',(#593,#594,#595,#596));
#593 = ORIENTED_EDGE('',*,*,#515,.T.);
#594 = ORIENTED_EDGE('',*,*,#554,.T.);
#595 = ORIENTED_EDGE('',*,*,#578,.T.);
#596 = ORIENTED_EDGE('',*,*,#537,.T.);
#597 = PLANE('',#598);
#598 = AXIS2_PLACEMENT_3D('',#599,#600,#601);
#599 = CARTESIAN_POINT('',(1.E-17,2.920999999997,-10.4902));
#600 = DIRECTION('',(-1.4E-15,9.909E-14,1.));
#601 = DIRECTION('',(0.,-1.,9.909E-14));
#602 = ( GEOMETRIC_REPRESENTATION_CONTEXT(3) 
GLOBAL_UNCERTAINTY_ASSIGNED_CONTEXT((#606)) GLOBAL_UNIT_ASSIGNED_CONTEXT
((#603,#604,#605)) REPRESENTATION_CONTEXT('Context #1',
  '3D Context with UNIT and UNCERTAINTY') );
#603 = ( LENGTH_UNIT() NAMED_UNIT(*) SI_UNIT(.MILLI.,.METRE.) );
#604 = ( NAMED_UNIT(*) PLANE_ANGLE_UNIT() SI_UNIT($,.RADIAN.) );
#605 = ( NAMED_UNIT(*) SI_UNIT($,.STERADIAN.) SOLID_ANGLE_UNIT() );
#606 = UNCERTAINTY_MEASURE_WITH_UNIT(LENGTH_MEASURE(1.E-07),#603,
  'distance_accuracy_value','confusion accuracy');
#607 = CONTEXT_DEPENDENT_SHAPE_REPRESENTATION(#608,#610);
#608 = ( REPRESENTATION_RELATIONSHIP('','',#63,#36) 
REPRESENTATION_RELATIONSHIP_WITH_TRANSFORMATION(#609) 
SHAPE_REPRESENTATION_RELATIONSHIP() );
#609 = ITEM_DEFINED_TRANSFORMATION('','',#11,#37);
#610 = PRODUCT_DEFINITION_SHAPE('Placement','Placement of an item',#611
  );
#611 = NEXT_ASSEMBLY_USAGE_OCCURRENCE('929','0','',#31,#58,$);
#612 = PRODUCT_RELATED_PRODUCT_CATEGORY('part',$,(#60));
#613 = CONTEXT_DEPENDENT_SHAPE_REPRESENTATION(#614,#616);
#614 = ( REPRESENTATION_RELATIONSHIP('','',#63,#36) 
REPRESENTATION_RELATIONSHIP_WITH_TRANSFORMATION(#615) 
SHAPE_REPRESENTATION_RELATIONSHIP() );
#615 = ITEM_DEFINED_TRANSFORMATION('','',#11,#41);
#616 = PRODUCT_DEFINITION_SHAPE('Placement','Placement of an item',#617
  );
#617 = NEXT_ASSEMBLY_USAGE_OCCURRENCE('930','1','',#31,#58,$);
#618 = SHAPE_DEFINITION_REPRESENTATION(#619,#625);
#619 = PRODUCT_DEFINITION_SHAPE('','',#620);
#620 = PRODUCT_DEFINITION('design','',#621,#624);
#621 = PRODUCT_DEFINITION_FORMATION('','',#622);
#622 = PRODUCT('Body','Body','',(#623));
#623 = PRODUCT_CONTEXT('',#2,'mechanical');
#624 = PRODUCT_DEFINITION_CONTEXT('part definition',#2,'design');
#625 = ADVANCED_BREP_SHAPE_REPRESENTATION('',(#11,#626),#1799);
#626 = MANIFOLD_SOLID_BREP('',#627);
#627 = CLOSED_SHELL('',(#628,#668,#831,#864,#897,#930,#954,#978,#1002,
    #1026,#1050,#1116,#1140,#1164,#1223,#1254,#1278,#1302,#1319,#1350,
    #1374,#1398,#1415,#1432,#1469,#1486,#1503,#1552,#1576,#1602,#1619,
    #1669,#1694,#1736,#1753,#1770,#1787));
#628 = ADVANCED_FACE('',(#629),#663,.T.);
#629 = FACE_BOUND('',#630,.T.);
#630 = EDGE_LOOP('',(#631,#641,#649,#657));
#631 = ORIENTED_EDGE('',*,*,#632,.T.);
#632 = EDGE_CURVE('',#633,#635,#637,.T.);
#633 = VERTEX_POINT('',#634);
#634 = CARTESIAN_POINT('',(-2.54,9.303668946359E-16,-2.985));
#635 = VERTEX_POINT('',#636);
#636 = CARTESIAN_POINT('',(2.54,-3.581579477441E-15,-2.985));
#637 = LINE('',#638,#639);
#638 = CARTESIAN_POINT('',(-2.54,4.610756221268E-15,-2.985));
#639 = VECTOR('',#640,1.);
#640 = DIRECTION('',(1.,-1.554312234475E-15,-2.22044604925E-16));
#641 = ORIENTED_EDGE('',*,*,#642,.T.);
#642 = EDGE_CURVE('',#635,#643,#645,.T.);
#643 = VERTEX_POINT('',#644);
#644 = CARTESIAN_POINT('',(2.54,-2.622790873374E-15,-0.826));
#645 = LINE('',#646,#647);
#646 = CARTESIAN_POINT('',(2.54,-9.303668946359E-16,-2.985));
#647 = VECTOR('',#648,1.);
#648 = DIRECTION('',(-2.22044604925E-15,-4.440892098501E-16,1.));
#649 = ORIENTED_EDGE('',*,*,#650,.F.);
#650 = EDGE_CURVE('',#651,#643,#653,.T.);
#651 = VERTEX_POINT('',#652);
#652 = CARTESIAN_POINT('',(-2.54,1.889155498702E-15,-0.826));
#653 = LINE('',#654,#655);
#654 = CARTESIAN_POINT('',(-2.54,4.131361919235E-15,-0.826));
#655 = VECTOR('',#656,1.);
#656 = DIRECTION('',(1.,-1.554312234475E-15,-2.22044604925E-16));
#657 = ORIENTED_EDGE('',*,*,#658,.F.);
#658 = EDGE_CURVE('',#633,#651,#659,.T.);
#659 = LINE('',#660,#661);
#660 = CARTESIAN_POINT('',(-2.54,3.581579477441E-15,-2.985));
#661 = VECTOR('',#662,1.);
#662 = DIRECTION('',(-2.22044604925E-15,-4.440892098501E-16,1.));
#663 = PLANE('',#664);
#664 = AXIS2_PLACEMENT_3D('',#665,#666,#667);
#665 = CARTESIAN_POINT('',(-2.54,4.610756221268E-15,-2.985));
#666 = DIRECTION('',(4.440892098501E-16,-1.,1.7763568394E-15));
#667 = DIRECTION('',(-1.998401444325E-15,-2.22044604925E-16,1.));
#668 = ADVANCED_FACE('',(#669,#758,#792),#826,.F.);
#669 = FACE_BOUND('',#670,.F.);
#670 = EDGE_LOOP('',(#671,#679,#680,#688,#696,#704,#712,#720,#728,#736,
    #744,#752));
#671 = ORIENTED_EDGE('',*,*,#672,.F.);
#672 = EDGE_CURVE('',#633,#673,#675,.T.);
#673 = VERTEX_POINT('',#674);
#674 = CARTESIAN_POINT('',(-2.54,1.905,-2.985));
#675 = LINE('',#676,#677);
#676 = CARTESIAN_POINT('',(-2.54,3.581579477441E-15,-2.985));
#677 = VECTOR('',#678,1.);
#678 = DIRECTION('',(-8.881784197001E-16,1.,-2.22044604925E-15));
#679 = ORIENTED_EDGE('',*,*,#632,.T.);
#680 = ORIENTED_EDGE('',*,*,#681,.T.);
#681 = EDGE_CURVE('',#635,#682,#684,.T.);
#682 = VERTEX_POINT('',#683);
#683 = CARTESIAN_POINT('',(2.54,1.905,-2.985));
#684 = LINE('',#685,#686);
#685 = CARTESIAN_POINT('',(2.54,-9.303668946359E-16,-2.985));
#686 = VECTOR('',#687,1.);
#687 = DIRECTION('',(-8.881784197001E-16,1.,-2.22044604925E-15));
#688 = ORIENTED_EDGE('',*,*,#689,.F.);
#689 = EDGE_CURVE('',#690,#682,#692,.T.);
#690 = VERTEX_POINT('',#691);
#691 = CARTESIAN_POINT('',(2.286,1.905,-2.985));
#692 = LINE('',#693,#694);
#693 = CARTESIAN_POINT('',(2.286,1.905,-2.985));
#694 = VECTOR('',#695,1.);
#695 = DIRECTION('',(1.,-6.661338147751E-16,-1.110223024625E-16));
#696 = ORIENTED_EDGE('',*,*,#697,.F.);
#697 = EDGE_CURVE('',#698,#690,#700,.T.);
#698 = VERTEX_POINT('',#699);
#699 = CARTESIAN_POINT('',(2.286,3.937,-2.985));
#700 = LINE('',#701,#702);
#701 = CARTESIAN_POINT('',(2.286,3.937,-2.985));
#702 = VECTOR('',#703,1.);
#703 = DIRECTION('',(-2.218671295934E-31,-1.,5.551115123126E-16));
#704 = ORIENTED_EDGE('',*,*,#705,.F.);
#705 = EDGE_CURVE('',#706,#698,#708,.T.);
#706 = VERTEX_POINT('',#707);
#707 = CARTESIAN_POINT('',(2.54,3.937,-2.985));
#708 = LINE('',#709,#710);
#709 = CARTESIAN_POINT('',(2.794,3.937,-2.985));
#710 = VECTOR('',#711,1.);
#711 = DIRECTION('',(-1.,6.661338147751E-16,1.110223024625E-16));
#712 = ORIENTED_EDGE('',*,*,#713,.T.);
#713 = EDGE_CURVE('',#706,#714,#716,.T.);
#714 = VERTEX_POINT('',#715);
#715 = CARTESIAN_POINT('',(2.54,4.191,-2.985));
#716 = LINE('',#717,#718);
#717 = CARTESIAN_POINT('',(2.54,-9.303668946359E-16,-2.985));
#718 = VECTOR('',#719,1.);
#719 = DIRECTION('',(-8.881784197001E-16,1.,-2.22044604925E-15));
#720 = ORIENTED_EDGE('',*,*,#721,.F.);
#721 = EDGE_CURVE('',#722,#714,#724,.T.);
#722 = VERTEX_POINT('',#723);
#723 = CARTESIAN_POINT('',(-2.54,4.191,-2.985));
#724 = LINE('',#725,#726);
#725 = CARTESIAN_POINT('',(-2.54,4.191,-2.985));
#726 = VECTOR('',#727,1.);
#727 = DIRECTION('',(1.,-1.554312234475E-15,-2.22044604925E-16));
#728 = ORIENTED_EDGE('',*,*,#729,.F.);
#729 = EDGE_CURVE('',#730,#722,#732,.T.);
#730 = VERTEX_POINT('',#731);
#731 = CARTESIAN_POINT('',(-2.54,3.937,-2.985));
#732 = LINE('',#733,#734);
#733 = CARTESIAN_POINT('',(-2.54,3.581579477441E-15,-2.985));
#734 = VECTOR('',#735,1.);
#735 = DIRECTION('',(-8.881784197001E-16,1.,-2.22044604925E-15));
#736 = ORIENTED_EDGE('',*,*,#737,.F.);
#737 = EDGE_CURVE('',#738,#730,#740,.T.);
#738 = VERTEX_POINT('',#739);
#739 = CARTESIAN_POINT('',(-2.286,3.937,-2.985));
#740 = LINE('',#741,#742);
#741 = CARTESIAN_POINT('',(-2.286,3.937,-2.985));
#742 = VECTOR('',#743,1.);
#743 = DIRECTION('',(-1.,7.771561172376E-16,6.661338147751E-16));
#744 = ORIENTED_EDGE('',*,*,#745,.F.);
#745 = EDGE_CURVE('',#746,#738,#748,.T.);
#746 = VERTEX_POINT('',#747);
#747 = CARTESIAN_POINT('',(-2.286,1.905,-2.985));
#748 = LINE('',#749,#750);
#749 = CARTESIAN_POINT('',(-2.286,1.905,-2.985));
#750 = VECTOR('',#751,1.);
#751 = DIRECTION('',(-5.551115123126E-16,1.,-7.771561172376E-16));
#752 = ORIENTED_EDGE('',*,*,#753,.F.);
#753 = EDGE_CURVE('',#673,#746,#754,.T.);
#754 = LINE('',#755,#756);
#755 = CARTESIAN_POINT('',(-2.794,1.905,-2.985));
#756 = VECTOR('',#757,1.);
#757 = DIRECTION('',(1.,-7.771561172376E-16,-6.661338147751E-16));
#758 = FACE_BOUND('',#759,.F.);
#759 = EDGE_LOOP('',(#760,#770,#778,#786));
#760 = ORIENTED_EDGE('',*,*,#761,.F.);
#761 = EDGE_CURVE('',#762,#764,#766,.T.);
#762 = VERTEX_POINT('',#763);
#763 = CARTESIAN_POINT('',(-0.254,3.937,-2.985));
#764 = VERTEX_POINT('',#765);
#765 = CARTESIAN_POINT('',(-0.254,1.905,-2.985));
#766 = LINE('',#767,#768);
#767 = CARTESIAN_POINT('',(-0.254,3.937,-2.985));
#768 = VECTOR('',#769,1.);
#769 = DIRECTION('',(5.551115123126E-16,-1.,7.771561172376E-16));
#770 = ORIENTED_EDGE('',*,*,#771,.F.);
#771 = EDGE_CURVE('',#772,#762,#774,.T.);
#772 = VERTEX_POINT('',#773);
#773 = CARTESIAN_POINT('',(0.254,3.937,-2.985));
#774 = LINE('',#775,#776);
#775 = CARTESIAN_POINT('',(0.254,3.937,-2.985));
#776 = VECTOR('',#777,1.);
#777 = DIRECTION('',(-1.,7.771561172376E-16,6.661338147751E-16));
#778 = ORIENTED_EDGE('',*,*,#779,.F.);
#779 = EDGE_CURVE('',#780,#772,#782,.T.);
#780 = VERTEX_POINT('',#781);
#781 = CARTESIAN_POINT('',(0.254,1.905,-2.985));
#782 = LINE('',#783,#784);
#783 = CARTESIAN_POINT('',(0.254,1.905,-2.985));
#784 = VECTOR('',#785,1.);
#785 = DIRECTION('',(-5.551115123126E-16,1.,-7.771561172376E-16));
#786 = ORIENTED_EDGE('',*,*,#787,.F.);
#787 = EDGE_CURVE('',#764,#780,#788,.T.);
#788 = LINE('',#789,#790);
#789 = CARTESIAN_POINT('',(-0.254,1.905,-2.985));
#790 = VECTOR('',#791,1.);
#791 = DIRECTION('',(1.,-7.771561172376E-16,-6.661338147751E-16));
#792 = FACE_BOUND('',#793,.F.);
#793 = EDGE_LOOP('',(#794,#804,#812,#820));
#794 = ORIENTED_EDGE('',*,*,#795,.T.);
#795 = EDGE_CURVE('',#796,#798,#800,.T.);
#796 = VERTEX_POINT('',#797);
#797 = CARTESIAN_POINT('',(-0.9525,2.6035,-2.985));
#798 = VERTEX_POINT('',#799);
#799 = CARTESIAN_POINT('',(-1.5875,2.6035,-2.985));
#800 = LINE('',#801,#802);
#801 = CARTESIAN_POINT('',(-0.9525,2.6035,-2.985));
#802 = VECTOR('',#803,1.);
#803 = DIRECTION('',(-1.,7.771561172376E-16,-4.440892098501E-16));
#804 = ORIENTED_EDGE('',*,*,#805,.T.);
#805 = EDGE_CURVE('',#798,#806,#808,.T.);
#806 = VERTEX_POINT('',#807);
#807 = CARTESIAN_POINT('',(-1.5875,3.2385,-2.985));
#808 = LINE('',#809,#810);
#809 = CARTESIAN_POINT('',(-1.5875,2.6035,-2.985));
#810 = VECTOR('',#811,1.);
#811 = DIRECTION('',(-5.551115123126E-16,1.,-7.771561172376E-16));
#812 = ORIENTED_EDGE('',*,*,#813,.T.);
#813 = EDGE_CURVE('',#806,#814,#816,.T.);
#814 = VERTEX_POINT('',#815);
#815 = CARTESIAN_POINT('',(-0.9525,3.2385,-2.985));
#816 = LINE('',#817,#818);
#817 = CARTESIAN_POINT('',(-1.5875,3.2385,-2.985));
#818 = VECTOR('',#819,1.);
#819 = DIRECTION('',(1.,-7.771561172376E-16,4.440892098501E-16));
#820 = ORIENTED_EDGE('',*,*,#821,.T.);
#821 = EDGE_CURVE('',#814,#796,#822,.T.);
#822 = LINE('',#823,#824);
#823 = CARTESIAN_POINT('',(-0.9525,3.2385,-2.985));
#824 = VECTOR('',#825,1.);
#825 = DIRECTION('',(5.551115123126E-16,-1.,7.771561172376E-16));
#826 = PLANE('',#827);
#827 = AXIS2_PLACEMENT_3D('',#828,#829,#830);
#828 = CARTESIAN_POINT('',(-2.54,4.610756221268E-15,-2.985));
#829 = DIRECTION('',(-1.7763568394E-15,1.627025617018E-30,1.));
#830 = DIRECTION('',(-6.661338147751E-16,1.,-1.998401444325E-15));
#831 = ADVANCED_FACE('',(#832),#859,.T.);
#832 = FACE_BOUND('',#833,.F.);
#833 = EDGE_LOOP('',(#834,#844,#851,#852));
#834 = ORIENTED_EDGE('',*,*,#835,.T.);
#835 = EDGE_CURVE('',#836,#838,#840,.T.);
#836 = VERTEX_POINT('',#837);
#837 = CARTESIAN_POINT('',(-2.54,0.762,-0.826));
#838 = VERTEX_POINT('',#839);
#839 = CARTESIAN_POINT('',(2.54,0.762,-0.826));
#840 = LINE('',#841,#842);
#841 = CARTESIAN_POINT('',(-2.54,0.762,-0.826));
#842 = VECTOR('',#843,1.);
#843 = DIRECTION('',(1.,-1.554312234475E-15,-2.22044604925E-16));
#844 = ORIENTED_EDGE('',*,*,#845,.T.);
#845 = EDGE_CURVE('',#838,#643,#846,.T.);
#846 = CIRCLE('',#847,0.381);
#847 = AXIS2_PLACEMENT_3D('',#848,#849,#850);
#848 = CARTESIAN_POINT('',(2.54,0.381,-0.826));
#849 = DIRECTION('',(1.,8.881784197001E-16,2.22044604925E-15));
#850 = DIRECTION('',(-8.881784197001E-16,1.,-2.22044604925E-15));
#851 = ORIENTED_EDGE('',*,*,#650,.F.);
#852 = ORIENTED_EDGE('',*,*,#853,.F.);
#853 = EDGE_CURVE('',#836,#651,#854,.T.);
#854 = CIRCLE('',#855,0.381);
#855 = AXIS2_PLACEMENT_3D('',#856,#857,#858);
#856 = CARTESIAN_POINT('',(-2.54,0.381,-0.826));
#857 = DIRECTION('',(1.,8.881784197001E-16,2.22044604925E-15));
#858 = DIRECTION('',(-8.881784197001E-16,1.,-2.22044604925E-15));
#859 = CYLINDRICAL_SURFACE('',#860,0.381);
#860 = AXIS2_PLACEMENT_3D('',#861,#862,#863);
#861 = CARTESIAN_POINT('',(-2.54,0.381,-0.826));
#862 = DIRECTION('',(-1.,1.33226762955E-15,-1.084683744679E-30));
#863 = DIRECTION('',(-6.661338147751E-16,1.,-1.998401444325E-15));
#864 = ADVANCED_FACE('',(#865),#892,.F.);
#865 = FACE_BOUND('',#866,.F.);
#866 = EDGE_LOOP('',(#867,#868,#869,#877,#885,#891));
#867 = ORIENTED_EDGE('',*,*,#658,.F.);
#868 = ORIENTED_EDGE('',*,*,#672,.T.);
#869 = ORIENTED_EDGE('',*,*,#870,.T.);
#870 = EDGE_CURVE('',#673,#871,#873,.T.);
#871 = VERTEX_POINT('',#872);
#872 = CARTESIAN_POINT('',(-2.54,1.905,-1.207));
#873 = LINE('',#874,#875);
#874 = CARTESIAN_POINT('',(-2.54,1.905,-3.16869347977));
#875 = VECTOR('',#876,1.);
#876 = DIRECTION('',(-4.440892098501E-16,1.110223024625E-16,1.));
#877 = ORIENTED_EDGE('',*,*,#878,.F.);
#878 = EDGE_CURVE('',#879,#871,#881,.T.);
#879 = VERTEX_POINT('',#880);
#880 = CARTESIAN_POINT('',(-2.54,0.762,-1.207));
#881 = LINE('',#882,#883);
#882 = CARTESIAN_POINT('',(-2.54,0.762,-1.207));
#883 = VECTOR('',#884,1.);
#884 = DIRECTION('',(-8.881784197001E-16,1.,-2.22044604925E-15));
#885 = ORIENTED_EDGE('',*,*,#886,.F.);
#886 = EDGE_CURVE('',#836,#879,#887,.T.);
#887 = LINE('',#888,#889);
#888 = CARTESIAN_POINT('',(-2.54,0.762,-0.826));
#889 = VECTOR('',#890,1.);
#890 = DIRECTION('',(2.22044604925E-15,4.440892098501E-16,-1.));
#891 = ORIENTED_EDGE('',*,*,#853,.T.);
#892 = PLANE('',#893);
#893 = AXIS2_PLACEMENT_3D('',#894,#895,#896);
#894 = CARTESIAN_POINT('',(-2.54,3.943549779385,-3.35238695954));
#895 = DIRECTION('',(1.,-1.7763568394E-15,-4.440892098501E-16));
#896 = DIRECTION('',(-2.22044604925E-15,-4.440892098501E-16,1.));
#897 = ADVANCED_FACE('',(#898),#925,.T.);
#898 = FACE_BOUND('',#899,.T.);
#899 = EDGE_LOOP('',(#900,#901,#902,#910,#918,#924));
#900 = ORIENTED_EDGE('',*,*,#642,.F.);
#901 = ORIENTED_EDGE('',*,*,#681,.T.);
#902 = ORIENTED_EDGE('',*,*,#903,.T.);
#903 = EDGE_CURVE('',#682,#904,#906,.T.);
#904 = VERTEX_POINT('',#905);
#905 = CARTESIAN_POINT('',(2.54,1.905,-1.207));
#906 = LINE('',#907,#908);
#907 = CARTESIAN_POINT('',(2.54,1.905,-3.16869347977));
#908 = VECTOR('',#909,1.);
#909 = DIRECTION('',(-4.440892098501E-16,1.110223024625E-16,1.));
#910 = ORIENTED_EDGE('',*,*,#911,.F.);
#911 = EDGE_CURVE('',#912,#904,#914,.T.);
#912 = VERTEX_POINT('',#913);
#913 = CARTESIAN_POINT('',(2.54,0.762,-1.207));
#914 = LINE('',#915,#916);
#915 = CARTESIAN_POINT('',(2.54,0.762,-1.207));
#916 = VECTOR('',#917,1.);
#917 = DIRECTION('',(-8.881784197001E-16,1.,-2.22044604925E-15));
#918 = ORIENTED_EDGE('',*,*,#919,.F.);
#919 = EDGE_CURVE('',#838,#912,#920,.T.);
#920 = LINE('',#921,#922);
#921 = CARTESIAN_POINT('',(2.54,0.762,-0.826));
#922 = VECTOR('',#923,1.);
#923 = DIRECTION('',(2.22044604925E-15,4.440892098501E-16,-1.));
#924 = ORIENTED_EDGE('',*,*,#845,.T.);
#925 = PLANE('',#926);
#926 = AXIS2_PLACEMENT_3D('',#927,#928,#929);
#927 = CARTESIAN_POINT('',(2.54,3.943549779385,-3.35238695954));
#928 = DIRECTION('',(1.,-1.7763568394E-15,-4.440892098501E-16));
#929 = DIRECTION('',(-2.22044604925E-15,-4.440892098501E-16,1.));
#930 = ADVANCED_FACE('',(#931),#949,.T.);
#931 = FACE_BOUND('',#932,.T.);
#932 = EDGE_LOOP('',(#933,#934,#935,#943));
#933 = ORIENTED_EDGE('',*,*,#753,.F.);
#934 = ORIENTED_EDGE('',*,*,#870,.T.);
#935 = ORIENTED_EDGE('',*,*,#936,.F.);
#936 = EDGE_CURVE('',#937,#871,#939,.T.);
#937 = VERTEX_POINT('',#938);
#938 = CARTESIAN_POINT('',(-2.286,1.905,-1.207));
#939 = LINE('',#940,#941);
#940 = CARTESIAN_POINT('',(-2.667,1.905,-1.207));
#941 = VECTOR('',#942,1.);
#942 = DIRECTION('',(-1.,1.110223024625E-16,-1.110223024625E-15));
#943 = ORIENTED_EDGE('',*,*,#944,.F.);
#944 = EDGE_CURVE('',#746,#937,#945,.T.);
#945 = LINE('',#946,#947);
#946 = CARTESIAN_POINT('',(-2.286,1.905,-2.985));
#947 = VECTOR('',#948,1.);
#948 = DIRECTION('',(-4.440892098501E-16,-3.330669073875E-16,1.));
#949 = PLANE('',#950);
#950 = AXIS2_PLACEMENT_3D('',#951,#952,#953);
#951 = CARTESIAN_POINT('',(-2.794,1.905,-2.985));
#952 = DIRECTION('',(-1.110223024625E-16,1.,-3.330669073875E-16));
#953 = DIRECTION('',(1.,-5.551115123126E-16,-4.440892098501E-16));
#954 = ADVANCED_FACE('',(#955),#973,.T.);
#955 = FACE_BOUND('',#956,.T.);
#956 = EDGE_LOOP('',(#957,#958,#959,#967));
#957 = ORIENTED_EDGE('',*,*,#745,.F.);
#958 = ORIENTED_EDGE('',*,*,#944,.T.);
#959 = ORIENTED_EDGE('',*,*,#960,.F.);
#960 = EDGE_CURVE('',#961,#937,#963,.T.);
#961 = VERTEX_POINT('',#962);
#962 = CARTESIAN_POINT('',(-2.286,3.937,-1.207));
#963 = LINE('',#964,#965);
#964 = CARTESIAN_POINT('',(-2.286,1.3335,-1.207));
#965 = VECTOR('',#966,1.);
#966 = DIRECTION('',(-1.110223024625E-16,-1.,6.661338147751E-16));
#967 = ORIENTED_EDGE('',*,*,#968,.F.);
#968 = EDGE_CURVE('',#738,#961,#969,.T.);
#969 = LINE('',#970,#971);
#970 = CARTESIAN_POINT('',(-2.286,3.937,-2.985));
#971 = VECTOR('',#972,1.);
#972 = DIRECTION('',(-4.440892098501E-16,-3.330669073875E-16,1.));
#973 = PLANE('',#974);
#974 = AXIS2_PLACEMENT_3D('',#975,#976,#977);
#975 = CARTESIAN_POINT('',(-2.286,1.905,-2.985));
#976 = DIRECTION('',(-1.,3.330669073875E-16,2.22044604925E-16));
#977 = DIRECTION('',(-3.330669073875E-16,1.,-5.551115123126E-16));
#978 = ADVANCED_FACE('',(#979),#997,.T.);
#979 = FACE_BOUND('',#980,.T.);
#980 = EDGE_LOOP('',(#981,#982,#990,#996));
#981 = ORIENTED_EDGE('',*,*,#689,.F.);
#982 = ORIENTED_EDGE('',*,*,#983,.T.);
#983 = EDGE_CURVE('',#690,#984,#986,.T.);
#984 = VERTEX_POINT('',#985);
#985 = CARTESIAN_POINT('',(2.286,1.905,-1.207));
#986 = LINE('',#987,#988);
#987 = CARTESIAN_POINT('',(2.286,1.905,-2.985));
#988 = VECTOR('',#989,1.);
#989 = DIRECTION('',(-3.330669073875E-16,1.110223024625E-16,1.));
#990 = ORIENTED_EDGE('',*,*,#991,.F.);
#991 = EDGE_CURVE('',#904,#984,#992,.T.);
#992 = LINE('',#993,#994);
#993 = CARTESIAN_POINT('',(-0.127,1.905,-1.207));
#994 = VECTOR('',#995,1.);
#995 = DIRECTION('',(-1.,4.440892098501E-16,-1.110223024625E-15));
#996 = ORIENTED_EDGE('',*,*,#903,.F.);
#997 = PLANE('',#998);
#998 = AXIS2_PLACEMENT_3D('',#999,#1000,#1001);
#999 = CARTESIAN_POINT('',(2.286,1.905,-2.985));
#1000 = DIRECTION('',(4.440892098501E-16,1.,-1.110223024625E-16));
#1001 = DIRECTION('',(1.,-4.440892098501E-16,1.110223024625E-16));
#1002 = ADVANCED_FACE('',(#1003),#1021,.T.);
#1003 = FACE_BOUND('',#1004,.T.);
#1004 = EDGE_LOOP('',(#1005,#1006,#1007,#1015));
#1005 = ORIENTED_EDGE('',*,*,#737,.F.);
#1006 = ORIENTED_EDGE('',*,*,#968,.T.);
#1007 = ORIENTED_EDGE('',*,*,#1008,.F.);
#1008 = EDGE_CURVE('',#1009,#961,#1011,.T.);
#1009 = VERTEX_POINT('',#1010);
#1010 = CARTESIAN_POINT('',(-2.54,3.937,-1.207));
#1011 = LINE('',#1012,#1013);
#1012 = CARTESIAN_POINT('',(-2.413,3.937,-1.207));
#1013 = VECTOR('',#1014,1.);
#1014 = DIRECTION('',(1.,-1.110223024625E-16,1.110223024625E-15));
#1015 = ORIENTED_EDGE('',*,*,#1016,.T.);
#1016 = EDGE_CURVE('',#1009,#730,#1017,.T.);
#1017 = LINE('',#1018,#1019);
#1018 = CARTESIAN_POINT('',(-2.54,3.937,-3.16869347977));
#1019 = VECTOR('',#1020,1.);
#1020 = DIRECTION('',(4.440892098501E-16,-1.110223024625E-16,-1.));
#1021 = PLANE('',#1022);
#1022 = AXIS2_PLACEMENT_3D('',#1023,#1024,#1025);
#1023 = CARTESIAN_POINT('',(-2.286,3.937,-2.985));
#1024 = DIRECTION('',(1.110223024625E-16,-1.,3.330669073875E-16));
#1025 = DIRECTION('',(-1.,5.551115123126E-16,4.440892098501E-16));
#1026 = ADVANCED_FACE('',(#1027),#1045,.T.);
#1027 = FACE_BOUND('',#1028,.T.);
#1028 = EDGE_LOOP('',(#1029,#1030,#1038,#1044));
#1029 = ORIENTED_EDGE('',*,*,#697,.F.);
#1030 = ORIENTED_EDGE('',*,*,#1031,.T.);
#1031 = EDGE_CURVE('',#698,#1032,#1034,.T.);
#1032 = VERTEX_POINT('',#1033);
#1033 = CARTESIAN_POINT('',(2.286,3.937,-1.207));
#1034 = LINE('',#1035,#1036);
#1035 = CARTESIAN_POINT('',(2.286,3.937,-2.985));
#1036 = VECTOR('',#1037,1.);
#1037 = DIRECTION('',(-3.330669073875E-16,1.110223024625E-16,1.));
#1038 = ORIENTED_EDGE('',*,*,#1039,.F.);
#1039 = EDGE_CURVE('',#984,#1032,#1040,.T.);
#1040 = LINE('',#1041,#1042);
#1041 = CARTESIAN_POINT('',(2.286,2.3495,-1.207));
#1042 = VECTOR('',#1043,1.);
#1043 = DIRECTION('',(2.22044604925E-16,1.,-6.661338147751E-16));
#1044 = ORIENTED_EDGE('',*,*,#983,.F.);
#1045 = PLANE('',#1046);
#1046 = AXIS2_PLACEMENT_3D('',#1047,#1048,#1049);
#1047 = CARTESIAN_POINT('',(2.286,3.937,-2.985));
#1048 = DIRECTION('',(1.,-2.22044604925E-16,3.330669073875E-16));
#1049 = DIRECTION('',(-2.22044604925E-16,-1.,3.330669073875E-16));
#1050 = ADVANCED_FACE('',(#1051),#1111,.F.);
#1051 = FACE_BOUND('',#1052,.F.);
#1052 = EDGE_LOOP('',(#1053,#1054,#1055,#1063,#1072,#1080,#1088,#1097,
    #1105));
#1053 = ORIENTED_EDGE('',*,*,#1016,.T.);
#1054 = ORIENTED_EDGE('',*,*,#729,.T.);
#1055 = ORIENTED_EDGE('',*,*,#1056,.F.);
#1056 = EDGE_CURVE('',#1057,#722,#1059,.T.);
#1057 = VERTEX_POINT('',#1058);
#1058 = CARTESIAN_POINT('',(-2.54,4.191,-2.604));
#1059 = LINE('',#1060,#1061);
#1060 = CARTESIAN_POINT('',(-2.54,4.191,-2.604));
#1061 = VECTOR('',#1062,1.);
#1062 = DIRECTION('',(2.22044604925E-15,4.440892098501E-16,-1.));
#1063 = ORIENTED_EDGE('',*,*,#1064,.F.);
#1064 = EDGE_CURVE('',#1065,#1057,#1067,.T.);
#1065 = VERTEX_POINT('',#1066);
#1066 = CARTESIAN_POINT('',(-2.54,5.202653989578,-2.670307305648));
#1067 = CIRCLE('',#1068,0.508);
#1068 = AXIS2_PLACEMENT_3D('',#1069,#1070,#1071);
#1069 = CARTESIAN_POINT('',(-2.54,4.699,-2.604));
#1070 = DIRECTION('',(1.,8.881784197001E-16,2.22044604925E-15));
#1071 = DIRECTION('',(-8.881784197001E-16,1.,-2.22044604925E-15));
#1072 = ORIENTED_EDGE('',*,*,#1073,.F.);
#1073 = EDGE_CURVE('',#1074,#1065,#1076,.T.);
#1074 = VERTEX_POINT('',#1075);
#1075 = CARTESIAN_POINT('',(-2.54,6.096,-2.670307305648));
#1076 = LINE('',#1077,#1078);
#1077 = CARTESIAN_POINT('',(-2.54,6.096,-2.670307305648));
#1078 = VECTOR('',#1079,1.);
#1079 = DIRECTION('',(6.661338147751E-16,-1.,1.665334536938E-15));
#1080 = ORIENTED_EDGE('',*,*,#1081,.F.);
#1081 = EDGE_CURVE('',#1082,#1074,#1084,.T.);
#1082 = VERTEX_POINT('',#1083);
#1083 = CARTESIAN_POINT('',(-2.54,6.096,-0.826));
#1084 = LINE('',#1085,#1086);
#1085 = CARTESIAN_POINT('',(-2.54,6.096,-0.826));
#1086 = VECTOR('',#1087,1.);
#1087 = DIRECTION('',(2.22044604925E-15,4.440892098501E-16,-1.));
#1088 = ORIENTED_EDGE('',*,*,#1089,.T.);
#1089 = EDGE_CURVE('',#1082,#1090,#1092,.T.);
#1090 = VERTEX_POINT('',#1091);
#1091 = CARTESIAN_POINT('',(-2.54,5.334,-0.826));
#1092 = CIRCLE('',#1093,0.381);
#1093 = AXIS2_PLACEMENT_3D('',#1094,#1095,#1096);
#1094 = CARTESIAN_POINT('',(-2.54,5.715,-0.826));
#1095 = DIRECTION('',(1.,8.881784197001E-16,2.22044604925E-15));
#1096 = DIRECTION('',(-8.881784197001E-16,1.,-2.22044604925E-15));
#1097 = ORIENTED_EDGE('',*,*,#1098,.F.);
#1098 = EDGE_CURVE('',#1099,#1090,#1101,.T.);
#1099 = VERTEX_POINT('',#1100);
#1100 = CARTESIAN_POINT('',(-2.54,5.334,-1.207));
#1101 = LINE('',#1102,#1103);
#1102 = CARTESIAN_POINT('',(-2.54,5.334,-1.207));
#1103 = VECTOR('',#1104,1.);
#1104 = DIRECTION('',(-2.22044604925E-15,-4.440892098501E-16,1.));
#1105 = ORIENTED_EDGE('',*,*,#1106,.F.);
#1106 = EDGE_CURVE('',#1009,#1099,#1107,.T.);
#1107 = LINE('',#1108,#1109);
#1108 = CARTESIAN_POINT('',(-2.54,0.762,-1.207));
#1109 = VECTOR('',#1110,1.);
#1110 = DIRECTION('',(-8.881784197001E-16,1.,-2.22044604925E-15));
#1111 = PLANE('',#1112);
#1112 = AXIS2_PLACEMENT_3D('',#1113,#1114,#1115);
#1113 = CARTESIAN_POINT('',(-2.54,3.943549779385,-3.35238695954));
#1114 = DIRECTION('',(1.,-1.7763568394E-15,-4.440892098501E-16));
#1115 = DIRECTION('',(-2.22044604925E-15,-4.440892098501E-16,1.));
#1116 = ADVANCED_FACE('',(#1117),#1135,.T.);
#1117 = FACE_BOUND('',#1118,.T.);
#1118 = EDGE_LOOP('',(#1119,#1120,#1128,#1134));
#1119 = ORIENTED_EDGE('',*,*,#705,.F.);
#1120 = ORIENTED_EDGE('',*,*,#1121,.F.);
#1121 = EDGE_CURVE('',#1122,#706,#1124,.T.);
#1122 = VERTEX_POINT('',#1123);
#1123 = CARTESIAN_POINT('',(2.54,3.937,-1.207));
#1124 = LINE('',#1125,#1126);
#1125 = CARTESIAN_POINT('',(2.54,3.937,-3.16869347977));
#1126 = VECTOR('',#1127,1.);
#1127 = DIRECTION('',(4.440892098501E-16,-1.110223024625E-16,-1.));
#1128 = ORIENTED_EDGE('',*,*,#1129,.F.);
#1129 = EDGE_CURVE('',#1032,#1122,#1130,.T.);
#1130 = LINE('',#1131,#1132);
#1131 = CARTESIAN_POINT('',(0.127,3.937,-1.207));
#1132 = VECTOR('',#1133,1.);
#1133 = DIRECTION('',(1.,-4.440892098501E-16,1.110223024625E-15));
#1134 = ORIENTED_EDGE('',*,*,#1031,.F.);
#1135 = PLANE('',#1136);
#1136 = AXIS2_PLACEMENT_3D('',#1137,#1138,#1139);
#1137 = CARTESIAN_POINT('',(2.794,3.937,-2.985));
#1138 = DIRECTION('',(-4.440892098501E-16,-1.,1.110223024625E-16));
#1139 = DIRECTION('',(-1.,4.440892098501E-16,-1.110223024625E-16));
#1140 = ADVANCED_FACE('',(#1141),#1159,.T.);
#1141 = FACE_BOUND('',#1142,.T.);
#1142 = EDGE_LOOP('',(#1143,#1151,#1157,#1158));
#1143 = ORIENTED_EDGE('',*,*,#1144,.T.);
#1144 = EDGE_CURVE('',#1057,#1145,#1147,.T.);
#1145 = VERTEX_POINT('',#1146);
#1146 = CARTESIAN_POINT('',(2.54,4.191,-2.604));
#1147 = LINE('',#1148,#1149);
#1148 = CARTESIAN_POINT('',(-2.54,4.191,-2.604));
#1149 = VECTOR('',#1150,1.);
#1150 = DIRECTION('',(1.,-1.554312234475E-15,-2.22044604925E-16));
#1151 = ORIENTED_EDGE('',*,*,#1152,.T.);
#1152 = EDGE_CURVE('',#1145,#714,#1153,.T.);
#1153 = LINE('',#1154,#1155);
#1154 = CARTESIAN_POINT('',(2.54,4.191,-2.604));
#1155 = VECTOR('',#1156,1.);
#1156 = DIRECTION('',(2.22044604925E-15,4.440892098501E-16,-1.));
#1157 = ORIENTED_EDGE('',*,*,#721,.F.);
#1158 = ORIENTED_EDGE('',*,*,#1056,.F.);
#1159 = PLANE('',#1160);
#1160 = AXIS2_PLACEMENT_3D('',#1161,#1162,#1163);
#1161 = CARTESIAN_POINT('',(-2.54,4.191,-2.604));
#1162 = DIRECTION('',(-4.440892098501E-16,1.,-1.7763568394E-15));
#1163 = DIRECTION('',(1.998401444325E-15,2.22044604925E-16,-1.));
#1164 = ADVANCED_FACE('',(#1165),#1218,.T.);
#1165 = FACE_BOUND('',#1166,.T.);
#1166 = EDGE_LOOP('',(#1167,#1168,#1169,#1170,#1179,#1187,#1195,#1204,
    #1212));
#1167 = ORIENTED_EDGE('',*,*,#1121,.T.);
#1168 = ORIENTED_EDGE('',*,*,#713,.T.);
#1169 = ORIENTED_EDGE('',*,*,#1152,.F.);
#1170 = ORIENTED_EDGE('',*,*,#1171,.F.);
#1171 = EDGE_CURVE('',#1172,#1145,#1174,.T.);
#1172 = VERTEX_POINT('',#1173);
#1173 = CARTESIAN_POINT('',(2.54,5.202653989578,-2.670307305648));
#1174 = CIRCLE('',#1175,0.508);
#1175 = AXIS2_PLACEMENT_3D('',#1176,#1177,#1178);
#1176 = CARTESIAN_POINT('',(2.54,4.699,-2.604));
#1177 = DIRECTION('',(1.,8.881784197001E-16,2.22044604925E-15));
#1178 = DIRECTION('',(-8.881784197001E-16,1.,-2.22044604925E-15));
#1179 = ORIENTED_EDGE('',*,*,#1180,.F.);
#1180 = EDGE_CURVE('',#1181,#1172,#1183,.T.);
#1181 = VERTEX_POINT('',#1182);
#1182 = CARTESIAN_POINT('',(2.54,6.096,-2.670307305648));
#1183 = LINE('',#1184,#1185);
#1184 = CARTESIAN_POINT('',(2.54,6.096,-2.670307305648));
#1185 = VECTOR('',#1186,1.);
#1186 = DIRECTION('',(4.440892098501E-16,-1.,1.110223024625E-15));
#1187 = ORIENTED_EDGE('',*,*,#1188,.F.);
#1188 = EDGE_CURVE('',#1189,#1181,#1191,.T.);
#1189 = VERTEX_POINT('',#1190);
#1190 = CARTESIAN_POINT('',(2.54,6.096,-0.826));
#1191 = LINE('',#1192,#1193);
#1192 = CARTESIAN_POINT('',(2.54,6.096,-0.826));
#1193 = VECTOR('',#1194,1.);
#1194 = DIRECTION('',(2.22044604925E-15,4.440892098501E-16,-1.));
#1195 = ORIENTED_EDGE('',*,*,#1196,.T.);
#1196 = EDGE_CURVE('',#1189,#1197,#1199,.T.);
#1197 = VERTEX_POINT('',#1198);
#1198 = CARTESIAN_POINT('',(2.54,5.334,-0.826));
#1199 = CIRCLE('',#1200,0.381);
#1200 = AXIS2_PLACEMENT_3D('',#1201,#1202,#1203);
#1201 = CARTESIAN_POINT('',(2.54,5.715,-0.826));
#1202 = DIRECTION('',(1.,8.881784197001E-16,2.22044604925E-15));
#1203 = DIRECTION('',(-8.881784197001E-16,1.,-2.22044604925E-15));
#1204 = ORIENTED_EDGE('',*,*,#1205,.F.);
#1205 = EDGE_CURVE('',#1206,#1197,#1208,.T.);
#1206 = VERTEX_POINT('',#1207);
#1207 = CARTESIAN_POINT('',(2.54,5.334,-1.207));
#1208 = LINE('',#1209,#1210);
#1209 = CARTESIAN_POINT('',(2.54,5.334,-1.207));
#1210 = VECTOR('',#1211,1.);
#1211 = DIRECTION('',(-2.22044604925E-15,-4.440892098501E-16,1.));
#1212 = ORIENTED_EDGE('',*,*,#1213,.F.);
#1213 = EDGE_CURVE('',#1122,#1206,#1214,.T.);
#1214 = LINE('',#1215,#1216);
#1215 = CARTESIAN_POINT('',(2.54,0.762,-1.207));
#1216 = VECTOR('',#1217,1.);
#1217 = DIRECTION('',(-8.881784197001E-16,1.,-2.22044604925E-15));
#1218 = PLANE('',#1219);
#1219 = AXIS2_PLACEMENT_3D('',#1220,#1221,#1222);
#1220 = CARTESIAN_POINT('',(2.54,3.943549779385,-3.35238695954));
#1221 = DIRECTION('',(1.,-1.7763568394E-15,-4.440892098501E-16));
#1222 = DIRECTION('',(-2.22044604925E-15,-4.440892098501E-16,1.));
#1223 = ADVANCED_FACE('',(#1224),#1249,.T.);
#1224 = FACE_BOUND('',#1225,.T.);
#1225 = EDGE_LOOP('',(#1226,#1227,#1235,#1243));
#1226 = ORIENTED_EDGE('',*,*,#761,.F.);
#1227 = ORIENTED_EDGE('',*,*,#1228,.T.);
#1228 = EDGE_CURVE('',#762,#1229,#1231,.T.);
#1229 = VERTEX_POINT('',#1230);
#1230 = CARTESIAN_POINT('',(-0.254,3.937,-1.207));
#1231 = LINE('',#1232,#1233);
#1232 = CARTESIAN_POINT('',(-0.254,3.937,-2.985));
#1233 = VECTOR('',#1234,1.);
#1234 = DIRECTION('',(-4.440892098501E-16,-3.330669073875E-16,1.));
#1235 = ORIENTED_EDGE('',*,*,#1236,.F.);
#1236 = EDGE_CURVE('',#1237,#1229,#1239,.T.);
#1237 = VERTEX_POINT('',#1238);
#1238 = CARTESIAN_POINT('',(-0.254,1.905,-1.207));
#1239 = LINE('',#1240,#1241);
#1240 = CARTESIAN_POINT('',(-0.254,2.3495,-1.207));
#1241 = VECTOR('',#1242,1.);
#1242 = DIRECTION('',(1.110223024625E-16,1.,-6.661338147751E-16));
#1243 = ORIENTED_EDGE('',*,*,#1244,.F.);
#1244 = EDGE_CURVE('',#764,#1237,#1245,.T.);
#1245 = LINE('',#1246,#1247);
#1246 = CARTESIAN_POINT('',(-0.254,1.905,-2.985));
#1247 = VECTOR('',#1248,1.);
#1248 = DIRECTION('',(-4.440892098501E-16,-3.330669073875E-16,1.));
#1249 = PLANE('',#1250);
#1250 = AXIS2_PLACEMENT_3D('',#1251,#1252,#1253);
#1251 = CARTESIAN_POINT('',(-0.254,3.937,-2.985));
#1252 = DIRECTION('',(1.,-3.330669073875E-16,-2.22044604925E-16));
#1253 = DIRECTION('',(3.330669073875E-16,-1.,5.551115123126E-16));
#1254 = ADVANCED_FACE('',(#1255),#1273,.T.);
#1255 = FACE_BOUND('',#1256,.T.);
#1256 = EDGE_LOOP('',(#1257,#1258,#1266,#1272));
#1257 = ORIENTED_EDGE('',*,*,#771,.F.);
#1258 = ORIENTED_EDGE('',*,*,#1259,.T.);
#1259 = EDGE_CURVE('',#772,#1260,#1262,.T.);
#1260 = VERTEX_POINT('',#1261);
#1261 = CARTESIAN_POINT('',(0.254,3.937,-1.207));
#1262 = LINE('',#1263,#1264);
#1263 = CARTESIAN_POINT('',(0.254,3.937,-2.985));
#1264 = VECTOR('',#1265,1.);
#1265 = DIRECTION('',(-4.440892098501E-16,-3.330669073875E-16,1.));
#1266 = ORIENTED_EDGE('',*,*,#1267,.F.);
#1267 = EDGE_CURVE('',#1229,#1260,#1268,.T.);
#1268 = LINE('',#1269,#1270);
#1269 = CARTESIAN_POINT('',(-1.143,3.937,-1.207));
#1270 = VECTOR('',#1271,1.);
#1271 = DIRECTION('',(1.,-1.110223024625E-16,1.110223024625E-15));
#1272 = ORIENTED_EDGE('',*,*,#1228,.F.);
#1273 = PLANE('',#1274);
#1274 = AXIS2_PLACEMENT_3D('',#1275,#1276,#1277);
#1275 = CARTESIAN_POINT('',(0.254,3.937,-2.985));
#1276 = DIRECTION('',(1.110223024625E-16,-1.,3.330669073875E-16));
#1277 = DIRECTION('',(-1.,5.551115123126E-16,4.440892098501E-16));
#1278 = ADVANCED_FACE('',(#1279),#1297,.T.);
#1279 = FACE_BOUND('',#1280,.T.);
#1280 = EDGE_LOOP('',(#1281,#1282,#1283,#1291));
#1281 = ORIENTED_EDGE('',*,*,#787,.F.);
#1282 = ORIENTED_EDGE('',*,*,#1244,.T.);
#1283 = ORIENTED_EDGE('',*,*,#1284,.F.);
#1284 = EDGE_CURVE('',#1285,#1237,#1287,.T.);
#1285 = VERTEX_POINT('',#1286);
#1286 = CARTESIAN_POINT('',(0.254,1.905,-1.207));
#1287 = LINE('',#1288,#1289);
#1288 = CARTESIAN_POINT('',(-1.397,1.905,-1.207));
#1289 = VECTOR('',#1290,1.);
#1290 = DIRECTION('',(-1.,1.110223024625E-16,-1.110223024625E-15));
#1291 = ORIENTED_EDGE('',*,*,#1292,.F.);
#1292 = EDGE_CURVE('',#780,#1285,#1293,.T.);
#1293 = LINE('',#1294,#1295);
#1294 = CARTESIAN_POINT('',(0.254,1.905,-2.985));
#1295 = VECTOR('',#1296,1.);
#1296 = DIRECTION('',(-4.440892098501E-16,-3.330669073875E-16,1.));
#1297 = PLANE('',#1298);
#1298 = AXIS2_PLACEMENT_3D('',#1299,#1300,#1301);
#1299 = CARTESIAN_POINT('',(-0.254,1.905,-2.985));
#1300 = DIRECTION('',(-1.110223024625E-16,1.,-3.330669073875E-16));
#1301 = DIRECTION('',(1.,-5.551115123126E-16,-4.440892098501E-16));
#1302 = ADVANCED_FACE('',(#1303),#1314,.T.);
#1303 = FACE_BOUND('',#1304,.T.);
#1304 = EDGE_LOOP('',(#1305,#1306,#1307,#1313));
#1305 = ORIENTED_EDGE('',*,*,#779,.F.);
#1306 = ORIENTED_EDGE('',*,*,#1292,.T.);
#1307 = ORIENTED_EDGE('',*,*,#1308,.F.);
#1308 = EDGE_CURVE('',#1260,#1285,#1309,.T.);
#1309 = LINE('',#1310,#1311);
#1310 = CARTESIAN_POINT('',(0.254,1.3335,-1.207));
#1311 = VECTOR('',#1312,1.);
#1312 = DIRECTION('',(-1.110223024625E-16,-1.,6.661338147751E-16));
#1313 = ORIENTED_EDGE('',*,*,#1259,.F.);
#1314 = PLANE('',#1315);
#1315 = AXIS2_PLACEMENT_3D('',#1316,#1317,#1318);
#1316 = CARTESIAN_POINT('',(0.254,1.905,-2.985));
#1317 = DIRECTION('',(-1.,3.330669073875E-16,2.22044604925E-16));
#1318 = DIRECTION('',(-3.330669073875E-16,1.,-5.551115123126E-16));
#1319 = ADVANCED_FACE('',(#1320),#1345,.F.);
#1320 = FACE_BOUND('',#1321,.F.);
#1321 = EDGE_LOOP('',(#1322,#1323,#1331,#1339));
#1322 = ORIENTED_EDGE('',*,*,#795,.F.);
#1323 = ORIENTED_EDGE('',*,*,#1324,.T.);
#1324 = EDGE_CURVE('',#796,#1325,#1327,.T.);
#1325 = VERTEX_POINT('',#1326);
#1326 = CARTESIAN_POINT('',(-0.9525,2.6035,-1.207));
#1327 = LINE('',#1328,#1329);
#1328 = CARTESIAN_POINT('',(-0.9525,2.6035,-2.985));
#1329 = VECTOR('',#1330,1.);
#1330 = DIRECTION('',(-1.554312234475E-15,-3.330669073875E-16,1.));
#1331 = ORIENTED_EDGE('',*,*,#1332,.F.);
#1332 = EDGE_CURVE('',#1333,#1325,#1335,.T.);
#1333 = VERTEX_POINT('',#1334);
#1334 = CARTESIAN_POINT('',(-1.5875,2.6035,-1.207));
#1335 = LINE('',#1336,#1337);
#1336 = CARTESIAN_POINT('',(-1.74625,2.6035,-1.207));
#1337 = VECTOR('',#1338,1.);
#1338 = DIRECTION('',(1.,-1.110223024625E-16,1.110223024625E-15));
#1339 = ORIENTED_EDGE('',*,*,#1340,.F.);
#1340 = EDGE_CURVE('',#798,#1333,#1341,.T.);
#1341 = LINE('',#1342,#1343);
#1342 = CARTESIAN_POINT('',(-1.5875,2.6035,-2.985));
#1343 = VECTOR('',#1344,1.);
#1344 = DIRECTION('',(-1.554312234475E-15,-3.330669073875E-16,1.));
#1345 = PLANE('',#1346);
#1346 = AXIS2_PLACEMENT_3D('',#1347,#1348,#1349);
#1347 = CARTESIAN_POINT('',(-0.9525,2.6035,-2.985));
#1348 = DIRECTION('',(1.110223024625E-16,-1.,3.330669073875E-16));
#1349 = DIRECTION('',(-1.,5.551115123126E-16,-6.661338147751E-16));
#1350 = ADVANCED_FACE('',(#1351),#1369,.F.);
#1351 = FACE_BOUND('',#1352,.F.);
#1352 = EDGE_LOOP('',(#1353,#1354,#1362,#1368));
#1353 = ORIENTED_EDGE('',*,*,#821,.F.);
#1354 = ORIENTED_EDGE('',*,*,#1355,.T.);
#1355 = EDGE_CURVE('',#814,#1356,#1358,.T.);
#1356 = VERTEX_POINT('',#1357);
#1357 = CARTESIAN_POINT('',(-0.9525,3.2385,-1.207));
#1358 = LINE('',#1359,#1360);
#1359 = CARTESIAN_POINT('',(-0.9525,3.2385,-2.985));
#1360 = VECTOR('',#1361,1.);
#1361 = DIRECTION('',(-1.554312234475E-15,-3.330669073875E-16,1.));
#1362 = ORIENTED_EDGE('',*,*,#1363,.F.);
#1363 = EDGE_CURVE('',#1325,#1356,#1364,.T.);
#1364 = LINE('',#1365,#1366);
#1365 = CARTESIAN_POINT('',(-0.9525,2.00025,-1.207));
#1366 = VECTOR('',#1367,1.);
#1367 = DIRECTION('',(1.110223024625E-16,1.,-6.661338147751E-16));
#1368 = ORIENTED_EDGE('',*,*,#1324,.F.);
#1369 = PLANE('',#1370);
#1370 = AXIS2_PLACEMENT_3D('',#1371,#1372,#1373);
#1371 = CARTESIAN_POINT('',(-0.9525,3.2385,-2.985));
#1372 = DIRECTION('',(1.,-3.330669073875E-16,8.881784197001E-16));
#1373 = DIRECTION('',(3.330669073875E-16,-1.,5.551115123126E-16));
#1374 = ADVANCED_FACE('',(#1375),#1393,.F.);
#1375 = FACE_BOUND('',#1376,.F.);
#1376 = EDGE_LOOP('',(#1377,#1378,#1386,#1392));
#1377 = ORIENTED_EDGE('',*,*,#813,.F.);
#1378 = ORIENTED_EDGE('',*,*,#1379,.T.);
#1379 = EDGE_CURVE('',#806,#1380,#1382,.T.);
#1380 = VERTEX_POINT('',#1381);
#1381 = CARTESIAN_POINT('',(-1.5875,3.2385,-1.207));
#1382 = LINE('',#1383,#1384);
#1383 = CARTESIAN_POINT('',(-1.5875,3.2385,-2.985));
#1384 = VECTOR('',#1385,1.);
#1385 = DIRECTION('',(-1.554312234475E-15,-3.330669073875E-16,1.));
#1386 = ORIENTED_EDGE('',*,*,#1387,.F.);
#1387 = EDGE_CURVE('',#1356,#1380,#1388,.T.);
#1388 = LINE('',#1389,#1390);
#1389 = CARTESIAN_POINT('',(-2.06375,3.2385,-1.207));
#1390 = VECTOR('',#1391,1.);
#1391 = DIRECTION('',(-1.,1.110223024625E-16,-1.110223024625E-15));
#1392 = ORIENTED_EDGE('',*,*,#1355,.F.);
#1393 = PLANE('',#1394);
#1394 = AXIS2_PLACEMENT_3D('',#1395,#1396,#1397);
#1395 = CARTESIAN_POINT('',(-1.5875,3.2385,-2.985));
#1396 = DIRECTION('',(-1.110223024625E-16,1.,-3.330669073875E-16));
#1397 = DIRECTION('',(1.,-5.551115123126E-16,6.661338147751E-16));
#1398 = ADVANCED_FACE('',(#1399),#1410,.F.);
#1399 = FACE_BOUND('',#1400,.F.);
#1400 = EDGE_LOOP('',(#1401,#1402,#1403,#1409));
#1401 = ORIENTED_EDGE('',*,*,#805,.F.);
#1402 = ORIENTED_EDGE('',*,*,#1340,.T.);
#1403 = ORIENTED_EDGE('',*,*,#1404,.F.);
#1404 = EDGE_CURVE('',#1380,#1333,#1405,.T.);
#1405 = LINE('',#1406,#1407);
#1406 = CARTESIAN_POINT('',(-1.5875,1.68275,-1.207));
#1407 = VECTOR('',#1408,1.);
#1408 = DIRECTION('',(-1.110223024625E-16,-1.,6.661338147751E-16));
#1409 = ORIENTED_EDGE('',*,*,#1379,.F.);
#1410 = PLANE('',#1411);
#1411 = AXIS2_PLACEMENT_3D('',#1412,#1413,#1414);
#1412 = CARTESIAN_POINT('',(-1.5875,2.6035,-2.985));
#1413 = DIRECTION('',(-1.,3.330669073875E-16,-8.881784197001E-16));
#1414 = DIRECTION('',(-3.330669073875E-16,1.,-5.551115123126E-16));
#1415 = ADVANCED_FACE('',(#1416),#1427,.T.);
#1416 = FACE_BOUND('',#1417,.T.);
#1417 = EDGE_LOOP('',(#1418,#1419,#1420,#1426));
#1418 = ORIENTED_EDGE('',*,*,#835,.T.);
#1419 = ORIENTED_EDGE('',*,*,#919,.T.);
#1420 = ORIENTED_EDGE('',*,*,#1421,.F.);
#1421 = EDGE_CURVE('',#879,#912,#1422,.T.);
#1422 = LINE('',#1423,#1424);
#1423 = CARTESIAN_POINT('',(-2.54,0.762,-1.207));
#1424 = VECTOR('',#1425,1.);
#1425 = DIRECTION('',(1.,-1.554312234475E-15,-2.22044604925E-16));
#1426 = ORIENTED_EDGE('',*,*,#886,.F.);
#1427 = PLANE('',#1428);
#1428 = AXIS2_PLACEMENT_3D('',#1429,#1430,#1431);
#1429 = CARTESIAN_POINT('',(-2.54,0.762,-0.826));
#1430 = DIRECTION('',(-4.440892098501E-16,1.,-1.7763568394E-15));
#1431 = DIRECTION('',(1.998401444325E-15,2.22044604925E-16,-1.));
#1432 = ADVANCED_FACE('',(#1433,#1452,#1458),#1464,.T.);
#1433 = FACE_BOUND('',#1434,.T.);
#1434 = EDGE_LOOP('',(#1435,#1436,#1437,#1438,#1439,#1440,#1441,#1442,
    #1448,#1449,#1450,#1451));
#1435 = ORIENTED_EDGE('',*,*,#878,.F.);
#1436 = ORIENTED_EDGE('',*,*,#1421,.T.);
#1437 = ORIENTED_EDGE('',*,*,#911,.T.);
#1438 = ORIENTED_EDGE('',*,*,#991,.T.);
#1439 = ORIENTED_EDGE('',*,*,#1039,.T.);
#1440 = ORIENTED_EDGE('',*,*,#1129,.T.);
#1441 = ORIENTED_EDGE('',*,*,#1213,.T.);
#1442 = ORIENTED_EDGE('',*,*,#1443,.F.);
#1443 = EDGE_CURVE('',#1099,#1206,#1444,.T.);
#1444 = LINE('',#1445,#1446);
#1445 = CARTESIAN_POINT('',(-2.54,5.334,-1.207));
#1446 = VECTOR('',#1447,1.);
#1447 = DIRECTION('',(1.,-1.554312234475E-15,-2.22044604925E-16));
#1448 = ORIENTED_EDGE('',*,*,#1106,.F.);
#1449 = ORIENTED_EDGE('',*,*,#1008,.T.);
#1450 = ORIENTED_EDGE('',*,*,#960,.T.);
#1451 = ORIENTED_EDGE('',*,*,#936,.T.);
#1452 = FACE_BOUND('',#1453,.T.);
#1453 = EDGE_LOOP('',(#1454,#1455,#1456,#1457));
#1454 = ORIENTED_EDGE('',*,*,#1284,.T.);
#1455 = ORIENTED_EDGE('',*,*,#1236,.T.);
#1456 = ORIENTED_EDGE('',*,*,#1267,.T.);
#1457 = ORIENTED_EDGE('',*,*,#1308,.T.);
#1458 = FACE_BOUND('',#1459,.T.);
#1459 = EDGE_LOOP('',(#1460,#1461,#1462,#1463));
#1460 = ORIENTED_EDGE('',*,*,#1404,.F.);
#1461 = ORIENTED_EDGE('',*,*,#1387,.F.);
#1462 = ORIENTED_EDGE('',*,*,#1363,.F.);
#1463 = ORIENTED_EDGE('',*,*,#1332,.F.);
#1464 = PLANE('',#1465);
#1465 = AXIS2_PLACEMENT_3D('',#1466,#1467,#1468);
#1466 = CARTESIAN_POINT('',(-2.54,0.762,-1.207));
#1467 = DIRECTION('',(-1.7763568394E-15,1.627025617018E-30,1.));
#1468 = DIRECTION('',(-6.661338147751E-16,1.,-1.998401444325E-15));
#1469 = ADVANCED_FACE('',(#1470),#1481,.T.);
#1470 = FACE_BOUND('',#1471,.T.);
#1471 = EDGE_LOOP('',(#1472,#1473,#1474,#1480));
#1472 = ORIENTED_EDGE('',*,*,#1443,.T.);
#1473 = ORIENTED_EDGE('',*,*,#1205,.T.);
#1474 = ORIENTED_EDGE('',*,*,#1475,.F.);
#1475 = EDGE_CURVE('',#1090,#1197,#1476,.T.);
#1476 = LINE('',#1477,#1478);
#1477 = CARTESIAN_POINT('',(-2.54,5.334,-0.826));
#1478 = VECTOR('',#1479,1.);
#1479 = DIRECTION('',(1.,-1.554312234475E-15,-2.22044604925E-16));
#1480 = ORIENTED_EDGE('',*,*,#1098,.F.);
#1481 = PLANE('',#1482);
#1482 = AXIS2_PLACEMENT_3D('',#1483,#1484,#1485);
#1483 = CARTESIAN_POINT('',(-2.54,5.334,-1.207));
#1484 = DIRECTION('',(4.440892098501E-16,-1.,1.7763568394E-15));
#1485 = DIRECTION('',(-1.998401444325E-15,-2.22044604925E-16,1.));
#1486 = ADVANCED_FACE('',(#1487),#1498,.T.);
#1487 = FACE_BOUND('',#1488,.F.);
#1488 = EDGE_LOOP('',(#1489,#1495,#1496,#1497));
#1489 = ORIENTED_EDGE('',*,*,#1490,.T.);
#1490 = EDGE_CURVE('',#1082,#1189,#1491,.T.);
#1491 = LINE('',#1492,#1493);
#1492 = CARTESIAN_POINT('',(-2.54,6.096,-0.826));
#1493 = VECTOR('',#1494,1.);
#1494 = DIRECTION('',(1.,-1.554312234475E-15,-2.22044604925E-16));
#1495 = ORIENTED_EDGE('',*,*,#1196,.T.);
#1496 = ORIENTED_EDGE('',*,*,#1475,.F.);
#1497 = ORIENTED_EDGE('',*,*,#1089,.F.);
#1498 = CYLINDRICAL_SURFACE('',#1499,0.381);
#1499 = AXIS2_PLACEMENT_3D('',#1500,#1501,#1502);
#1500 = CARTESIAN_POINT('',(-2.54,5.715,-0.826));
#1501 = DIRECTION('',(-1.,1.33226762955E-15,-1.084683744679E-30));
#1502 = DIRECTION('',(-6.661338147751E-16,1.,-1.998401444325E-15));
#1503 = ADVANCED_FACE('',(#1504),#1547,.T.);
#1504 = FACE_BOUND('',#1505,.T.);
#1505 = EDGE_LOOP('',(#1506,#1507,#1508,#1509,#1517,#1525,#1533,#1541));
#1506 = ORIENTED_EDGE('',*,*,#1081,.F.);
#1507 = ORIENTED_EDGE('',*,*,#1490,.T.);
#1508 = ORIENTED_EDGE('',*,*,#1188,.T.);
#1509 = ORIENTED_EDGE('',*,*,#1510,.T.);
#1510 = EDGE_CURVE('',#1181,#1511,#1513,.T.);
#1511 = VERTEX_POINT('',#1512);
#1512 = CARTESIAN_POINT('',(1.27,6.096,-2.670307305648));
#1513 = LINE('',#1514,#1515);
#1514 = CARTESIAN_POINT('',(2.54,6.096,-2.670307305648));
#1515 = VECTOR('',#1516,1.);
#1516 = DIRECTION('',(-1.,6.661338147751E-16,-3.574525976783E-31));
#1517 = ORIENTED_EDGE('',*,*,#1518,.F.);
#1518 = EDGE_CURVE('',#1519,#1511,#1521,.T.);
#1519 = VERTEX_POINT('',#1520);
#1520 = CARTESIAN_POINT('',(1.27,6.096,-7.557));
#1521 = LINE('',#1522,#1523);
#1522 = CARTESIAN_POINT('',(1.27,6.096,-7.557));
#1523 = VECTOR('',#1524,1.);
#1524 = DIRECTION('',(-1.110223024625E-15,-2.22044604925E-16,1.));
#1525 = ORIENTED_EDGE('',*,*,#1526,.F.);
#1526 = EDGE_CURVE('',#1527,#1519,#1529,.T.);
#1527 = VERTEX_POINT('',#1528);
#1528 = CARTESIAN_POINT('',(-1.27,6.096,-7.557));
#1529 = LINE('',#1530,#1531);
#1530 = CARTESIAN_POINT('',(-2.54,6.096,-7.557));
#1531 = VECTOR('',#1532,1.);
#1532 = DIRECTION('',(1.,-1.554312234475E-15,-2.22044604925E-16));
#1533 = ORIENTED_EDGE('',*,*,#1534,.T.);
#1534 = EDGE_CURVE('',#1527,#1535,#1537,.T.);
#1535 = VERTEX_POINT('',#1536);
#1536 = CARTESIAN_POINT('',(-1.27,6.096,-2.670307305648));
#1537 = LINE('',#1538,#1539);
#1538 = CARTESIAN_POINT('',(-1.27,6.096,-7.557));
#1539 = VECTOR('',#1540,1.);
#1540 = DIRECTION('',(-1.665334536938E-15,-3.330669073875E-16,1.));
#1541 = ORIENTED_EDGE('',*,*,#1542,.F.);
#1542 = EDGE_CURVE('',#1074,#1535,#1543,.T.);
#1543 = LINE('',#1544,#1545);
#1544 = CARTESIAN_POINT('',(-2.54,6.096,-2.670307305648));
#1545 = VECTOR('',#1546,1.);
#1546 = DIRECTION('',(1.,-1.110223024625E-15,-1.110223024625E-16));
#1547 = PLANE('',#1548);
#1548 = AXIS2_PLACEMENT_3D('',#1549,#1550,#1551);
#1549 = CARTESIAN_POINT('',(-2.54,6.096,-0.826));
#1550 = DIRECTION('',(-4.440892098501E-16,1.,-1.7763568394E-15));
#1551 = DIRECTION('',(1.998401444325E-15,2.22044604925E-16,-1.));
#1552 = ADVANCED_FACE('',(#1553),#1571,.T.);
#1553 = FACE_BOUND('',#1554,.T.);
#1554 = EDGE_LOOP('',(#1555,#1556,#1564,#1570));
#1555 = ORIENTED_EDGE('',*,*,#1542,.T.);
#1556 = ORIENTED_EDGE('',*,*,#1557,.T.);
#1557 = EDGE_CURVE('',#1535,#1558,#1560,.T.);
#1558 = VERTEX_POINT('',#1559);
#1559 = CARTESIAN_POINT('',(-1.27,5.202653989578,-2.670307305648));
#1560 = LINE('',#1561,#1562);
#1561 = CARTESIAN_POINT('',(-1.27,6.096,-2.670307305648));
#1562 = VECTOR('',#1563,1.);
#1563 = DIRECTION('',(6.661338147751E-16,-1.,1.665334536938E-15));
#1564 = ORIENTED_EDGE('',*,*,#1565,.F.);
#1565 = EDGE_CURVE('',#1065,#1558,#1566,.T.);
#1566 = LINE('',#1567,#1568);
#1567 = CARTESIAN_POINT('',(-2.54,5.202653989578,-2.670307305648));
#1568 = VECTOR('',#1569,1.);
#1569 = DIRECTION('',(1.,-1.554312234475E-15,-2.22044604925E-16));
#1570 = ORIENTED_EDGE('',*,*,#1073,.F.);
#1571 = PLANE('',#1572);
#1572 = AXIS2_PLACEMENT_3D('',#1573,#1574,#1575);
#1573 = CARTESIAN_POINT('',(-2.54,6.096,-2.670307305648));
#1574 = DIRECTION('',(1.221245327088E-15,-1.110223024625E-16,-1.));
#1575 = DIRECTION('',(4.440892098501E-16,-1.,1.443289932013E-15));
#1576 = ADVANCED_FACE('',(#1577),#1597,.F.);
#1577 = FACE_BOUND('',#1578,.T.);
#1578 = EDGE_LOOP('',(#1579,#1580,#1588,#1594,#1595,#1596));
#1579 = ORIENTED_EDGE('',*,*,#1565,.T.);
#1580 = ORIENTED_EDGE('',*,*,#1581,.T.);
#1581 = EDGE_CURVE('',#1558,#1582,#1584,.T.);
#1582 = VERTEX_POINT('',#1583);
#1583 = CARTESIAN_POINT('',(1.27,5.202653989578,-2.670307305648));
#1584 = LINE('',#1585,#1586);
#1585 = CARTESIAN_POINT('',(-2.54,5.202653989578,-2.670307305648));
#1586 = VECTOR('',#1587,1.);
#1587 = DIRECTION('',(1.,-1.554312234475E-15,-2.22044604925E-16));
#1588 = ORIENTED_EDGE('',*,*,#1589,.T.);
#1589 = EDGE_CURVE('',#1582,#1172,#1590,.T.);
#1590 = LINE('',#1591,#1592);
#1591 = CARTESIAN_POINT('',(-2.54,5.202653989578,-2.670307305648));
#1592 = VECTOR('',#1593,1.);
#1593 = DIRECTION('',(1.,-1.554312234475E-15,-2.22044604925E-16));
#1594 = ORIENTED_EDGE('',*,*,#1171,.T.);
#1595 = ORIENTED_EDGE('',*,*,#1144,.F.);
#1596 = ORIENTED_EDGE('',*,*,#1064,.F.);
#1597 = CYLINDRICAL_SURFACE('',#1598,0.508);
#1598 = AXIS2_PLACEMENT_3D('',#1599,#1600,#1601);
#1599 = CARTESIAN_POINT('',(-2.54,4.699,-2.604));
#1600 = DIRECTION('',(-1.,1.33226762955E-15,-1.084683744679E-30));
#1601 = DIRECTION('',(-6.661338147751E-16,1.,-1.998401444325E-15));
#1602 = ADVANCED_FACE('',(#1603),#1614,.F.);
#1603 = FACE_BOUND('',#1604,.F.);
#1604 = EDGE_LOOP('',(#1605,#1606,#1612,#1613));
#1605 = ORIENTED_EDGE('',*,*,#1510,.T.);
#1606 = ORIENTED_EDGE('',*,*,#1607,.T.);
#1607 = EDGE_CURVE('',#1511,#1582,#1608,.T.);
#1608 = LINE('',#1609,#1610);
#1609 = CARTESIAN_POINT('',(1.27,6.096,-2.670307305648));
#1610 = VECTOR('',#1611,1.);
#1611 = DIRECTION('',(4.440892098501E-16,-1.,1.110223024625E-15));
#1612 = ORIENTED_EDGE('',*,*,#1589,.T.);
#1613 = ORIENTED_EDGE('',*,*,#1180,.F.);
#1614 = PLANE('',#1615);
#1615 = AXIS2_PLACEMENT_3D('',#1616,#1617,#1618);
#1616 = CARTESIAN_POINT('',(2.54,6.096,-2.670307305648));
#1617 = DIRECTION('',(-6.661338147751E-16,2.22044604925E-16,1.));
#1618 = DIRECTION('',(2.22044604925E-16,-1.,8.881784197001E-16));
#1619 = ADVANCED_FACE('',(#1620),#1664,.F.);
#1620 = FACE_BOUND('',#1621,.F.);
#1621 = EDGE_LOOP('',(#1622,#1630,#1638,#1647,#1655,#1662,#1663));
#1622 = ORIENTED_EDGE('',*,*,#1623,.T.);
#1623 = EDGE_CURVE('',#1558,#1624,#1626,.T.);
#1624 = VERTEX_POINT('',#1625);
#1625 = CARTESIAN_POINT('',(-1.27,4.81853487275,-5.587981667069));
#1626 = LINE('',#1627,#1628);
#1627 = CARTESIAN_POINT('',(-1.27,5.202653989578,-2.670307305648));
#1628 = VECTOR('',#1629,1.);
#1629 = DIRECTION('',(1.738035279467E-15,-0.13052619222,-0.991444861374)
  );
#1630 = ORIENTED_EDGE('',*,*,#1631,.T.);
#1631 = EDGE_CURVE('',#1624,#1632,#1634,.T.);
#1632 = VERTEX_POINT('',#1633);
#1633 = CARTESIAN_POINT('',(-1.27,4.356588642316,-6.388096008546));
#1634 = LINE('',#1635,#1636);
#1635 = CARTESIAN_POINT('',(-1.27,4.81853487275,-5.587981667069));
#1636 = VECTOR('',#1637,1.);
#1637 = DIRECTION('',(1.775288922175E-15,-0.5,-0.866025403784));
#1638 = ORIENTED_EDGE('',*,*,#1639,.F.);
#1639 = EDGE_CURVE('',#1640,#1632,#1642,.T.);
#1640 = VERTEX_POINT('',#1641);
#1641 = CARTESIAN_POINT('',(-1.27,4.411964754698,-7.23297221745));
#1642 = CIRCLE('',#1643,0.762);
#1643 = AXIS2_PLACEMENT_3D('',#1644,#1645,#1646);
#1644 = CARTESIAN_POINT('',(-1.27,5.0165,-6.769096008546));
#1645 = DIRECTION('',(-1.,-6.661338147751E-16,-1.665334536938E-15));
#1646 = DIRECTION('',(-6.661338147751E-16,1.,-1.665334536938E-15));
#1647 = ORIENTED_EDGE('',*,*,#1648,.T.);
#1648 = EDGE_CURVE('',#1640,#1649,#1651,.T.);
#1649 = VERTEX_POINT('',#1650);
#1650 = CARTESIAN_POINT('',(-1.27,4.957220628915,-7.943563507421));
#1651 = LINE('',#1652,#1653);
#1652 = CARTESIAN_POINT('',(-1.27,4.411964754698,-7.23297221745));
#1653 = VECTOR('',#1654,1.);
#1654 = DIRECTION('',(9.156821445884E-16,0.608761429009,-0.793353340291)
  );
#1655 = ORIENTED_EDGE('',*,*,#1656,.F.);
#1656 = EDGE_CURVE('',#1527,#1649,#1657,.T.);
#1657 = CIRCLE('',#1658,0.635);
#1658 = AXIS2_PLACEMENT_3D('',#1659,#1660,#1661);
#1659 = CARTESIAN_POINT('',(-1.27,5.461,-7.557));
#1660 = DIRECTION('',(-1.,-6.661338147751E-16,-1.665334536938E-15));
#1661 = DIRECTION('',(-6.661338147751E-16,1.,-1.665334536938E-15));
#1662 = ORIENTED_EDGE('',*,*,#1534,.T.);
#1663 = ORIENTED_EDGE('',*,*,#1557,.T.);
#1664 = PLANE('',#1665);
#1665 = AXIS2_PLACEMENT_3D('',#1666,#1667,#1668);
#1666 = CARTESIAN_POINT('',(-1.27,5.43325818139,-5.412319442254));
#1667 = DIRECTION('',(1.,-1.33226762955E-15,-3.330669073875E-16));
#1668 = DIRECTION('',(-1.665334536938E-15,-3.330669073875E-16,1.));
#1669 = ADVANCED_FACE('',(#1670),#1689,.T.);
#1670 = FACE_BOUND('',#1671,.F.);
#1671 = EDGE_LOOP('',(#1672,#1673,#1674,#1682));
#1672 = ORIENTED_EDGE('',*,*,#1526,.F.);
#1673 = ORIENTED_EDGE('',*,*,#1656,.T.);
#1674 = ORIENTED_EDGE('',*,*,#1675,.T.);
#1675 = EDGE_CURVE('',#1649,#1676,#1678,.T.);
#1676 = VERTEX_POINT('',#1677);
#1677 = CARTESIAN_POINT('',(1.27,4.957220628915,-7.943563507421));
#1678 = LINE('',#1679,#1680);
#1679 = CARTESIAN_POINT('',(-2.54,4.957220628915,-7.943563507421));
#1680 = VECTOR('',#1681,1.);
#1681 = DIRECTION('',(1.,-1.554312234475E-15,-2.22044604925E-16));
#1682 = ORIENTED_EDGE('',*,*,#1683,.T.);
#1683 = EDGE_CURVE('',#1676,#1519,#1684,.T.);
#1684 = CIRCLE('',#1685,0.635);
#1685 = AXIS2_PLACEMENT_3D('',#1686,#1687,#1688);
#1686 = CARTESIAN_POINT('',(1.27,5.461,-7.557));
#1687 = DIRECTION('',(1.,4.440892098501E-16,1.110223024625E-15));
#1688 = DIRECTION('',(-4.440892098501E-16,1.,-1.110223024625E-15));
#1689 = CYLINDRICAL_SURFACE('',#1690,0.635);
#1690 = AXIS2_PLACEMENT_3D('',#1691,#1692,#1693);
#1691 = CARTESIAN_POINT('',(-2.54,5.461,-7.557));
#1692 = DIRECTION('',(-1.,1.33226762955E-15,-1.084683744679E-30));
#1693 = DIRECTION('',(-6.661338147751E-16,1.,-1.998401444325E-15));
#1694 = ADVANCED_FACE('',(#1695),#1731,.T.);
#1695 = FACE_BOUND('',#1696,.T.);
#1696 = EDGE_LOOP('',(#1697,#1705,#1713,#1722,#1728,#1729,#1730));
#1697 = ORIENTED_EDGE('',*,*,#1698,.T.);
#1698 = EDGE_CURVE('',#1582,#1699,#1701,.T.);
#1699 = VERTEX_POINT('',#1700);
#1700 = CARTESIAN_POINT('',(1.27,4.81853487275,-5.587981667069));
#1701 = LINE('',#1702,#1703);
#1702 = CARTESIAN_POINT('',(1.27,5.202653989578,-2.670307305648));
#1703 = VECTOR('',#1704,1.);
#1704 = DIRECTION('',(1.158690186311E-15,-0.13052619222,-0.991444861374)
  );
#1705 = ORIENTED_EDGE('',*,*,#1706,.T.);
#1706 = EDGE_CURVE('',#1699,#1707,#1709,.T.);
#1707 = VERTEX_POINT('',#1708);
#1708 = CARTESIAN_POINT('',(1.27,4.356588642316,-6.388096008546));
#1709 = LINE('',#1710,#1711);
#1710 = CARTESIAN_POINT('',(1.27,4.81853487275,-5.587981667069));
#1711 = VECTOR('',#1712,1.);
#1712 = DIRECTION('',(1.183525948117E-15,-0.5,-0.866025403784));
#1713 = ORIENTED_EDGE('',*,*,#1714,.T.);
#1714 = EDGE_CURVE('',#1707,#1715,#1717,.T.);
#1715 = VERTEX_POINT('',#1716);
#1716 = CARTESIAN_POINT('',(1.27,4.411964754698,-7.23297221745));
#1717 = CIRCLE('',#1718,0.762);
#1718 = AXIS2_PLACEMENT_3D('',#1719,#1720,#1721);
#1719 = CARTESIAN_POINT('',(1.27,5.0165,-6.769096008546));
#1720 = DIRECTION('',(1.,4.440892098501E-16,1.110223024625E-15));
#1721 = DIRECTION('',(-4.440892098501E-16,1.,-1.110223024625E-15));
#1722 = ORIENTED_EDGE('',*,*,#1723,.T.);
#1723 = EDGE_CURVE('',#1715,#1676,#1724,.T.);
#1724 = LINE('',#1725,#1726);
#1725 = CARTESIAN_POINT('',(1.27,4.411964754698,-7.23297221745));
#1726 = VECTOR('',#1727,1.);
#1727 = DIRECTION('',(6.104547630589E-16,0.608761429009,-0.793353340291)
  );
#1728 = ORIENTED_EDGE('',*,*,#1683,.T.);
#1729 = ORIENTED_EDGE('',*,*,#1518,.T.);
#1730 = ORIENTED_EDGE('',*,*,#1607,.T.);
#1731 = PLANE('',#1732);
#1732 = AXIS2_PLACEMENT_3D('',#1733,#1734,#1735);
#1733 = CARTESIAN_POINT('',(1.27,5.43325818139,-5.412319442254));
#1734 = DIRECTION('',(1.,-8.881784197001E-16,-2.22044604925E-16));
#1735 = DIRECTION('',(-1.110223024625E-15,-2.22044604925E-16,1.));
#1736 = ADVANCED_FACE('',(#1737),#1748,.T.);
#1737 = FACE_BOUND('',#1738,.T.);
#1738 = EDGE_LOOP('',(#1739,#1740,#1741,#1747));
#1739 = ORIENTED_EDGE('',*,*,#1581,.F.);
#1740 = ORIENTED_EDGE('',*,*,#1623,.T.);
#1741 = ORIENTED_EDGE('',*,*,#1742,.T.);
#1742 = EDGE_CURVE('',#1624,#1699,#1743,.T.);
#1743 = LINE('',#1744,#1745);
#1744 = CARTESIAN_POINT('',(-2.54,4.81853487275,-5.587981667069));
#1745 = VECTOR('',#1746,1.);
#1746 = DIRECTION('',(1.,-1.554312234475E-15,-2.22044604925E-16));
#1747 = ORIENTED_EDGE('',*,*,#1698,.F.);
#1748 = PLANE('',#1749);
#1749 = AXIS2_PLACEMENT_3D('',#1750,#1751,#1752);
#1750 = CARTESIAN_POINT('',(-2.54,4.81853487275,-5.587981667069));
#1751 = DIRECTION('',(2.084288708264E-16,-0.991444861374,0.13052619222)
  );
#1752 = DIRECTION('',(-2.06825275329E-15,0.13052619222,0.991444861374));
#1753 = ADVANCED_FACE('',(#1754),#1765,.T.);
#1754 = FACE_BOUND('',#1755,.T.);
#1755 = EDGE_LOOP('',(#1756,#1757,#1758,#1764));
#1756 = ORIENTED_EDGE('',*,*,#1742,.F.);
#1757 = ORIENTED_EDGE('',*,*,#1631,.T.);
#1758 = ORIENTED_EDGE('',*,*,#1759,.T.);
#1759 = EDGE_CURVE('',#1632,#1707,#1760,.T.);
#1760 = LINE('',#1761,#1762);
#1761 = CARTESIAN_POINT('',(-2.54,4.356588642316,-6.388096008546));
#1762 = VECTOR('',#1763,1.);
#1763 = DIRECTION('',(1.,-1.554312234475E-15,-2.22044604925E-16));
#1764 = ORIENTED_EDGE('',*,*,#1706,.F.);
#1765 = PLANE('',#1766);
#1766 = AXIS2_PLACEMENT_3D('',#1767,#1768,#1769);
#1767 = CARTESIAN_POINT('',(-2.54,4.356588642316,-6.388096008546));
#1768 = DIRECTION('',(-5.035858824234E-16,-0.866025403784,0.5));
#1769 = DIRECTION('',(-2.063733325133E-15,0.5,0.866025403784));
#1770 = ADVANCED_FACE('',(#1771),#1782,.T.);
#1771 = FACE_BOUND('',#1772,.F.);
#1772 = EDGE_LOOP('',(#1773,#1779,#1780,#1781));
#1773 = ORIENTED_EDGE('',*,*,#1774,.F.);
#1774 = EDGE_CURVE('',#1640,#1715,#1775,.T.);
#1775 = LINE('',#1776,#1777);
#1776 = CARTESIAN_POINT('',(-2.54,4.411964754698,-7.23297221745));
#1777 = VECTOR('',#1778,1.);
#1778 = DIRECTION('',(1.,-1.554312234475E-15,-2.22044604925E-16));
#1779 = ORIENTED_EDGE('',*,*,#1639,.T.);
#1780 = ORIENTED_EDGE('',*,*,#1759,.T.);
#1781 = ORIENTED_EDGE('',*,*,#1714,.T.);
#1782 = CYLINDRICAL_SURFACE('',#1783,0.762);
#1783 = AXIS2_PLACEMENT_3D('',#1784,#1785,#1786);
#1784 = CARTESIAN_POINT('',(-2.54,5.0165,-6.769096008546));
#1785 = DIRECTION('',(-1.,1.33226762955E-15,-1.084683744679E-30));
#1786 = DIRECTION('',(-6.661338147751E-16,1.,-1.998401444325E-15));
#1787 = ADVANCED_FACE('',(#1788),#1794,.T.);
#1788 = FACE_BOUND('',#1789,.T.);
#1789 = EDGE_LOOP('',(#1790,#1791,#1792,#1793));
#1790 = ORIENTED_EDGE('',*,*,#1774,.F.);
#1791 = ORIENTED_EDGE('',*,*,#1648,.T.);
#1792 = ORIENTED_EDGE('',*,*,#1675,.T.);
#1793 = ORIENTED_EDGE('',*,*,#1723,.F.);
#1794 = PLANE('',#1795);
#1795 = AXIS2_PLACEMENT_3D('',#1796,#1797,#1798);
#1796 = CARTESIAN_POINT('',(-2.54,4.957220628915,-7.943563507421));
#1797 = DIRECTION('',(1.433697186005E-15,-0.793353340291,-0.608761429009
    ));
#1798 = DIRECTION('',(-1.179921888105E-15,-0.608761429009,0.793353340291
    ));
#1799 = ( GEOMETRIC_REPRESENTATION_CONTEXT(3) 
GLOBAL_UNCERTAINTY_ASSIGNED_CONTEXT((#1803)) 
GLOBAL_UNIT_ASSIGNED_CONTEXT((#1800,#1801,#1802)) REPRESENTATION_CONTEXT
('Context #1','3D Context with UNIT and UNCERTAINTY') );
#1800 = ( LENGTH_UNIT() NAMED_UNIT(*) SI_UNIT(.MILLI.,.METRE.) );
#1801 = ( NAMED_UNIT(*) PLANE_ANGLE_UNIT() SI_UNIT($,.RADIAN.) );
#1802 = ( NAMED_UNIT(*) SI_UNIT($,.STERADIAN.) SOLID_ANGLE_UNIT() );
#1803 = UNCERTAINTY_MEASURE_WITH_UNIT(LENGTH_MEASURE(5.E-06),#1800,
  'distance_accuracy_value','confusion accuracy');
#1804 = CONTEXT_DEPENDENT_SHAPE_REPRESENTATION(#1805,#1807);
#1805 = ( REPRESENTATION_RELATIONSHIP('','',#625,#10) 
REPRESENTATION_RELATIONSHIP_WITH_TRANSFORMATION(#1806) 
SHAPE_REPRESENTATION_RELATIONSHIP() );
#1806 = ITEM_DEFINED_TRANSFORMATION('','',#11,#19);
#1807 = PRODUCT_DEFINITION_SHAPE('Placement','Placement of an item',
  #1808);
#1808 = NEXT_ASSEMBLY_USAGE_OCCURRENCE('932','Body','',#5,#620,$);
#1809 = PRODUCT_RELATED_PRODUCT_CATEGORY('part',$,(#622));
#1810 = MECHANICAL_DESIGN_GEOMETRIC_PRESENTATION_REPRESENTATION('',(
    #1811),#602);
#1811 = STYLED_ITEM('color',(#1812),#64);
#1812 = PRESENTATION_STYLE_ASSIGNMENT((#1813,#1819));
#1813 = SURFACE_STYLE_USAGE(.BOTH.,#1814);
#1814 = SURFACE_SIDE_STYLE('',(#1815));
#1815 = SURFACE_STYLE_FILL_AREA(#1816);
#1816 = FILL_AREA_STYLE('',(#1817));
#1817 = FILL_AREA_STYLE_COLOUR('',#1818);
#1818 = COLOUR_RGB('',0.796078452645,0.823529417451,0.937254901616);
#1819 = CURVE_STYLE('',#1820,POSITIVE_LENGTH_MEASURE(0.1),#1821);
#1820 = DRAUGHTING_PRE_DEFINED_CURVE_FONT('continuous');
#1821 = COLOUR_RGB('',9.803921802644E-02,9.803921802644E-02,
  9.803921802644E-02);
#1822 = MECHANICAL_DESIGN_GEOMETRIC_PRESENTATION_REPRESENTATION('',(
    #1823),#1799);
#1823 = STYLED_ITEM('color',(#1824),#626);
#1824 = PRESENTATION_STYLE_ASSIGNMENT((#1825,#1831));
#1825 = SURFACE_STYLE_USAGE(.BOTH.,#1826);
#1826 = SURFACE_SIDE_STYLE('',(#1827));
#1827 = SURFACE_STYLE_FILL_AREA(#1828);
#1828 = FILL_AREA_STYLE('',(#1829));
#1829 = FILL_AREA_STYLE_COLOUR('',#1830);
#1830 = DRAUGHTING_PRE_DEFINED_COLOUR('white');
#1831 = CURVE_STYLE('',#1832,POSITIVE_LENGTH_MEASURE(0.1),#1821);
#1832 = DRAUGHTING_PRE_DEFINED_CURVE_FONT('continuous');
ENDSEC;
END-ISO-10303-21;
